STARTFONT 2.1
FONT -HP-Gothic-Bold-R-Normal--22-159-100-100-C-220-JISX0208.1990-0
SIZE 15 100 100
FONTBOUNDINGBOX 22 22 0 -2

STARTPROPERTIES 23
FONTNAME_REGISTRY ""
FOUNDRY "HP"
FAMILY_NAME "Gothic"
WEIGHT_NAME "Bold"
SLANT "R"
SETWIDTH_NAME "Normal"
ADD_STYLE_NAME ""
PIXEL_SIZE 22
POINT_SIZE 159
RESOLUTION_X 100
RESOLUTION_Y 100
SPACING "C"
AVERAGE_WIDTH 220
CHARSET_REGISTRY "JISX0208.1990"
CHARSET_ENCODING "0"
COPYRIGHT "Copyright (c) 1994 Hewlett-Packard Company. Copyright 1994 by Bridge Inc."
_HP_ASXVERSION "@(#) ASX 3.00 $Revision: 13.9 $ gotB22k"
WEIGHT 10
X_HEIGHT 20
QUAD_WIDTH 22
DEFAULT_CHAR 8751
FONT_DESCENT 2
FONT_ASCENT 20
ENDPROPERTIES

CHARS 6963

STARTCHAR jisx0208_2121
ENCODING 8481
SWIDTH 960 0
DWIDTH 22 0
BBX 22 22 0 -2
BITMAP
000000
000000
000000
000000
000000
000000
000000
000000
000000
000000
000000
000000
000000
000000
000000
000000
000000
000000
000000
000000
000000
000000
ENDCHAR

STARTCHAR jisx0208_2122
ENCODING 8482
SWIDTH 960 0
DWIDTH 22 0
BBX 22 22 0 -2
BITMAP
000000
000000
000000
000000
000000
000000
000000
000000
000000
000000
000000
000000
000000
000000
000000
300000
780000
7C0000
3E0000
1F0000
0F0000
060000
ENDCHAR

STARTCHAR jisx0208_2123
ENCODING 8483
SWIDTH 960 0
DWIDTH 22 0
BBX 22 22 0 -2
BITMAP
000000
000000
000000
000000
000000
000000
000000
000000
000000
000000
000000
000000
000000
000000
1E0000
3F0000
7F8000
738000
738000
7F8000
3F0000
1E0000
ENDCHAR

STARTCHAR jisx0208_2124
ENCODING 8484
SWIDTH 960 0
DWIDTH 22 0
BBX 22 22 0 -2
BITMAP
000000
000000
000000
000000
000000
000000
000000
000000
000000
000000
000000
000000
000000
000000
000000
000000
780000
780000
780000
780000
380000
700000
ENDCHAR

STARTCHAR jisx0208_2125
ENCODING 8485
SWIDTH 960 0
DWIDTH 22 0
BBX 22 22 0 -2
BITMAP
000000
000000
000000
000000
000000
000000
000000
000000
000000
000000
000000
000000
000000
000000
000000
000000
780000
780000
780000
780000
000000
000000
ENDCHAR

STARTCHAR jisx0208_2126
ENCODING 8486
SWIDTH 960 0
DWIDTH 22 0
BBX 22 22 0 -2
BITMAP
000000
000000
000000
000000
000000
000000
000000
000000
007C00
007C00
007C00
007C00
007C00
000000
000000
000000
000000
000000
000000
000000
000000
000000
ENDCHAR

STARTCHAR jisx0208_2127
ENCODING 8487
SWIDTH 960 0
DWIDTH 22 0
BBX 22 22 0 -2
BITMAP
000000
000000
000000
007800
007800
007800
007800
000000
000000
000000
000000
000000
000000
000000
007800
007800
007800
007800
000000
000000
000000
000000
ENDCHAR

STARTCHAR jisx0208_2128
ENCODING 8488
SWIDTH 960 0
DWIDTH 22 0
BBX 22 22 0 -2
BITMAP
000000
000000
000000
007800
007800
007800
007800
000000
000000
000000
000000
000000
000000
000000
007800
007800
007800
007800
003800
007000
000000
000000
ENDCHAR

STARTCHAR jisx0208_2129
ENCODING 8489
SWIDTH 960 0
DWIDTH 22 0
BBX 22 22 0 -2
BITMAP
000000
01FC00
03FE00
07FF00
078F00
070700
070F00
071F00
003E00
007C00
007800
007000
007000
007000
007000
000000
007800
007800
007800
007800
000000
000000
ENDCHAR

STARTCHAR jisx0208_212A
ENCODING 8490
SWIDTH 960 0
DWIDTH 22 0
BBX 22 22 0 -2
BITMAP
000000
007800
007800
007800
007800
007800
007800
007800
007800
007800
007800
003000
003000
003000
003000
000000
007800
007800
007800
007800
000000
000000
ENDCHAR

STARTCHAR jisx0208_212B
ENCODING 8491
SWIDTH 960 0
DWIDTH 22 0
BBX 22 22 0 -2
BITMAP
1C0000
7C0000
6C0000
700000
300000
000000
000000
000000
000000
000000
000000
000000
000000
000000
000000
000000
000000
000000
000000
000000
000000
000000
ENDCHAR

STARTCHAR jisx0208_212C
ENCODING 8492
SWIDTH 960 0
DWIDTH 22 0
BBX 22 22 0 -2
BITMAP
780000
FC0000
DC0000
CC0000
FC0000
780000
000000
000000
000000
000000
000000
000000
000000
000000
000000
000000
000000
000000
000000
000000
000000
000000
ENDCHAR

STARTCHAR jisx0208_212D
ENCODING 8493
SWIDTH 960 0
DWIDTH 22 0
BBX 22 22 0 -2
BITMAP
00FF00
01FF00
01F000
000000
000000
000000
000000
000000
000000
000000
000000
000000
000000
000000
000000
000000
000000
000000
000000
000000
000000
000000
ENDCHAR

STARTCHAR jisx0208_212E
ENCODING 8494
SWIDTH 960 0
DWIDTH 22 0
BBX 22 22 0 -2
BITMAP
01FE00
01FF00
001F00
000000
000000
000000
000000
000000
000000
000000
000000
000000
000000
000000
000000
000000
000000
000000
000000
000000
000000
000000
ENDCHAR

STARTCHAR jisx0208_212F
ENCODING 8495
SWIDTH 960 0
DWIDTH 22 0
BBX 22 22 0 -2
BITMAP
01C700
01C700
000000
000000
000000
000000
000000
000000
000000
000000
000000
000000
000000
000000
000000
000000
000000
000000
000000
000000
000000
000000
ENDCHAR

STARTCHAR jisx0208_2130
ENCODING 8496
SWIDTH 960 0
DWIDTH 22 0
BBX 22 22 0 -2
BITMAP
00FE00
01FF00
01EF00
000000
000000
000000
000000
000000
000000
000000
000000
000000
000000
000000
000000
000000
000000
000000
000000
000000
000000
000000
ENDCHAR

STARTCHAR jisx0208_2131
ENCODING 8497
SWIDTH 960 0
DWIDTH 22 0
BBX 22 22 0 -2
BITMAP
FFFFFC
FFFFFC
000000
000000
000000
000000
000000
000000
000000
000000
000000
000000
000000
000000
000000
000000
000000
000000
000000
000000
000000
000000
ENDCHAR

STARTCHAR jisx0208_2132
ENCODING 8498
SWIDTH 960 0
DWIDTH 22 0
BBX 22 22 0 -2
BITMAP
000000
000000
000000
000000
000000
000000
000000
000000
000000
000000
000000
000000
000000
000000
000000
000000
000000
000000
000000
FFFFFC
FFFFFC
FFFFFC
ENDCHAR

STARTCHAR jisx0208_2133
ENCODING 8499
SWIDTH 960 0
DWIDTH 22 0
BBX 22 22 0 -2
BITMAP
000000
000000
000000
000000
030000
07C000
07E000
03F000
00F800
007C00
003E00
001F00
000F00
000780
000780
000300
000000
000000
000000
000000
000000
000000
ENDCHAR

STARTCHAR jisx0208_2134
ENCODING 8500
SWIDTH 960 0
DWIDTH 22 0
BBX 22 22 0 -2
BITMAP
000000
000180
0001C0
0007C0
0306C0
07C700
07E300
03F000
00F800
007C00
003E00
001F00
000F00
000780
000780
000300
000000
000000
000000
000000
000000
000000
ENDCHAR

STARTCHAR jisx0208_2135
ENCODING 8501
SWIDTH 960 0
DWIDTH 22 0
BBX 22 22 0 -2
BITMAP
000000
000000
000000
038000
07E000
07F000
01F800
007C00
003E00
001F00
000F00
000780
000780
000380
003F80
003F80
001F00
000000
000000
000000
000000
000000
ENDCHAR

STARTCHAR jisx0208_2136
ENCODING 8502
SWIDTH 960 0
DWIDTH 22 0
BBX 22 22 0 -2
BITMAP
000000
0000C0
0000E0
0383E0
07E360
07F380
01F980
007C00
003E00
001F00
000F00
000780
000780
000380
003F80
003F80
001F00
000000
000000
000000
000000
000000
ENDCHAR

STARTCHAR jisx0208_2137
ENCODING 8503
SWIDTH 960 0
DWIDTH 22 0
BBX 22 22 0 -2
BITMAP
000000
000000
000000
000000
007380
007380
007380
007380
00F780
00E700
00E700
01EF00
01CE00
03DE00
039C00
039C00
000000
000000
000000
000000
000000
000000
ENDCHAR

STARTCHAR jisx0208_2138
ENCODING 8504
SWIDTH 960 0
DWIDTH 22 0
BBX 22 22 0 -2
BITMAP
007C00
00FE00
01FF00
03EF80
07C7C0
0F83E0
3F01F8
7E00FC
FC007C
F0001C
6FFFEC
0FFFE0
0FFFE0
003800
003800
003800
003800
003800
7FFFFC
7FFFFC
7FFFFC
000000
ENDCHAR

STARTCHAR jisx0208_2139
ENCODING 8505
SWIDTH 960 0
DWIDTH 22 0
BBX 22 22 0 -2
BITMAP
00E000
00E000
00E000
01E060
01DFF0
03FFF8
03FFF8
078070
0F80F0
0F01E0
1E03E0
3E03C0
7CE780
79EF80
31FF00
007E00
001F00
000F80
0007C0
0003C0
000180
000000
ENDCHAR

STARTCHAR jisx0208_213A
ENCODING 8506
SWIDTH 960 0
DWIDTH 22 0
BBX 22 22 0 -2
BITMAP
000018
00003C
00007C
0000F8
0001F0
0003E0
07C7C0
0FEF80
1FFF00
1E7E00
3C3FC0
3CF7E0
38F3F0
79E0F0
7BE060
77C000
7F8000
6F0000
7E0000
3C0000
000000
000000
ENDCHAR

STARTCHAR jisx0208_213B
ENCODING 8507
SWIDTH 960 0
DWIDTH 22 0
BBX 22 22 0 -2
BITMAP
01FF00
07FFC0
0FFFE0
1F01F0
3C0078
380038
78003C
70001C
70001C
70001C
70001C
70001C
70001C
70001C
78003C
380038
3C0078
1F01F0
0FFFE0
07FFC0
01FF00
000000
ENDCHAR

STARTCHAR jisx0208_213C
ENCODING 8508
SWIDTH 960 0
DWIDTH 22 0
BBX 22 22 0 -2
BITMAP
000000
000000
000000
000000
000000
000000
000000
000000
000000
3FFFF8
3FFFF8
3FFFF8
000000
000000
000000
000000
000000
000000
000000
000000
000000
000000
ENDCHAR

STARTCHAR jisx0208_213D
ENCODING 8509
SWIDTH 960 0
DWIDTH 22 0
BBX 22 22 0 -2
BITMAP
000000
000000
000000
000000
000000
000000
000000
000000
000000
FFFFFC
FFFFFC
FFFFFC
000000
000000
000000
000000
000000
000000
000000
000000
000000
000000
ENDCHAR

STARTCHAR jisx0208_213E
ENCODING 8510
SWIDTH 960 0
DWIDTH 22 0
BBX 22 22 0 -2
BITMAP
000000
000000
000000
000000
000000
000000
000000
000000
000000
00FE00
00FE00
00FE00
000000
000000
000000
000000
000000
000000
000000
000000
000000
000000
ENDCHAR

STARTCHAR jisx0208_213F
ENCODING 8511
SWIDTH 960 0
DWIDTH 22 0
BBX 22 22 0 -2
BITMAP
00001C
00003C
00007C
0000F8
0001F0
0003E0
0007C0
000F80
001F00
003E00
007C00
00F800
01F000
03E000
07C000
0F8000
1F0000
3E0000
7C0000
F80000
F00000
600000
ENDCHAR

STARTCHAR jisx0208_2140
ENCODING 8512
SWIDTH 960 0
DWIDTH 22 0
BBX 22 22 0 -2
BITMAP
F00000
F80000
7C0000
3E0000
1F0000
0F8000
07C000
03E000
01F000
00F800
007C00
003E00
001F00
000F80
0007C0
0003E0
0001F0
0000F8
00007C
00003C
00001C
00000C
ENDCHAR

STARTCHAR jisx0208_2141
ENCODING 8513
SWIDTH 960 0
DWIDTH 22 0
BBX 22 22 0 -2
BITMAP
000000
000000
000000
000000
000000
000000
000000
07C00C
1FF01C
3FF83C
7C7C7C
F83FF8
F01FF0
6007C0
000000
000000
000000
000000
000000
000000
000000
000000
ENDCHAR

STARTCHAR jisx0208_2142
ENCODING 8514
SWIDTH 960 0
DWIDTH 22 0
BBX 22 22 0 -2
BITMAP
038380
038380
038380
038380
038380
038380
038380
038380
038380
038380
038380
038380
038380
038380
038380
038380
038380
038380
038380
038380
038380
038380
ENDCHAR

STARTCHAR jisx0208_2143
ENCODING 8515
SWIDTH 960 0
DWIDTH 22 0
BBX 22 22 0 -2
BITMAP
003800
003800
003800
003800
003800
003800
003800
003800
003800
003800
003800
003800
003800
003800
003800
003800
003800
003800
003800
003800
003800
003800
ENDCHAR

STARTCHAR jisx0208_2144
ENCODING 8516
SWIDTH 960 0
DWIDTH 22 0
BBX 22 22 0 -2
BITMAP
000000
000000
000000
000000
000000
000000
000000
000000
3C78F0
3C78F0
3C78F0
3C78F0
000000
000000
000000
000000
000000
000000
000000
000000
000000
000000
ENDCHAR

STARTCHAR jisx0208_2145
ENCODING 8517
SWIDTH 960 0
DWIDTH 22 0
BBX 22 22 0 -2
BITMAP
000000
000000
000000
000000
000000
000000
000000
000000
0F01E0
0F01E0
0F01E0
0F01E0
000000
000000
000000
000000
000000
000000
000000
000000
000000
000000
ENDCHAR

STARTCHAR jisx0208_2146
ENCODING 8518
SWIDTH 960 0
DWIDTH 22 0
BBX 22 22 0 -2
BITMAP
00003C
000038
00003C
00003C
00003C
000000
000000
000000
000000
000000
000000
000000
000000
000000
000000
000000
000000
000000
000000
000000
000000
000000
ENDCHAR

STARTCHAR jisx0208_2147
ENCODING 8519
SWIDTH 960 0
DWIDTH 22 0
BBX 22 22 0 -2
BITMAP
780000
780000
780000
380000
700000
000000
000000
000000
000000
000000
000000
000000
000000
000000
000000
000000
000000
000000
000000
000000
000000
000000
ENDCHAR

STARTCHAR jisx0208_2148
ENCODING 8520
SWIDTH 960 0
DWIDTH 22 0
BBX 22 22 0 -2
BITMAP
0003FC
0003B8
0003BC
0003BC
0003BC
000000
000000
000000
000000
000000
000000
000000
000000
000000
000000
000000
000000
000000
000000
000000
000000
000000
ENDCHAR

STARTCHAR jisx0208_2149
ENCODING 8521
SWIDTH 960 0
DWIDTH 22 0
BBX 22 22 0 -2
BITMAP
778000
778000
7F8000
3B8000
770000
000000
000000
000000
000000
000000
000000
000000
000000
000000
000000
000000
000000
000000
000000
000000
000000
000000
ENDCHAR

STARTCHAR jisx0208_214A
ENCODING 8522
SWIDTH 960 0
DWIDTH 22 0
BBX 22 22 0 -2
BITMAP
00001C
00003C
00007C
000078
0000F0
0000F0
0001E0
0001E0
0001C0
0001C0
0001C0
0001C0
0001C0
0001E0
0001E0
0000F0
0000F0
000078
00007C
00003C
00001C
00000C
ENDCHAR

STARTCHAR jisx0208_214B
ENCODING 8523
SWIDTH 960 0
DWIDTH 22 0
BBX 22 22 0 -2
BITMAP
700000
780000
7C0000
3C0000
1E0000
1E0000
0F0000
0F0000
070000
070000
070000
070000
070000
0F0000
0F0000
1E0000
1E0000
3C0000
7C0000
780000
700000
600000
ENDCHAR

STARTCHAR jisx0208_214C
ENCODING 8524
SWIDTH 960 0
DWIDTH 22 0
BBX 22 22 0 -2
BITMAP
00007C
0001FC
0001F0
0001C0
0001C0
0001C0
0001C0
0001C0
0001C0
0001C0
0001C0
0001C0
0001C0
0001C0
0001C0
0001C0
0001C0
0001C0
0001F0
0001FC
00007C
00001C
ENDCHAR

STARTCHAR jisx0208_214D
ENCODING 8525
SWIDTH 960 0
DWIDTH 22 0
BBX 22 22 0 -2
BITMAP
7C0000
7F0000
1F0000
070000
070000
070000
070000
070000
070000
070000
070000
070000
070000
070000
070000
070000
070000
070000
1F0000
7F0000
7C0000
700000
ENDCHAR

STARTCHAR jisx0208_214E
ENCODING 8526
SWIDTH 960 0
DWIDTH 22 0
BBX 22 22 0 -2
BITMAP
0001FC
0001FC
0001C0
0001C0
0001C0
0001C0
0001C0
0001C0
0001C0
0001C0
0001C0
0001C0
0001C0
0001C0
0001C0
0001C0
0001C0
0001C0
0001C0
0001FC
0001FC
0001FC
ENDCHAR

STARTCHAR jisx0208_214F
ENCODING 8527
SWIDTH 960 0
DWIDTH 22 0
BBX 22 22 0 -2
BITMAP
7F0000
7F0000
070000
070000
070000
070000
070000
070000
070000
070000
070000
070000
070000
070000
070000
070000
070000
070000
070000
7F0000
7F0000
7F0000
ENDCHAR

STARTCHAR jisx0208_2150
ENCODING 8528
SWIDTH 960 0
DWIDTH 22 0
BBX 22 22 0 -2
BITMAP
00007C
0000FC
0000F0
0000E0
0000E0
0000E0
0000E0
0000E0
0000E0
0003E0
0003C0
0003E0
0000E0
0000E0
0000E0
0000E0
0000E0
0000E0
0000F0
0000FC
00007C
00003C
ENDCHAR

STARTCHAR jisx0208_2151
ENCODING 8529
SWIDTH 960 0
DWIDTH 22 0
BBX 22 22 0 -2
BITMAP
7C0000
7E0000
1E0000
0E0000
0E0000
0E0000
0E0000
0E0000
0E0000
0F8000
078000
0F8000
0E0000
0E0000
0E0000
0E0000
0E0000
0E0000
1E0000
7E0000
7C0000
780000
ENDCHAR

STARTCHAR jisx0208_2152
ENCODING 8530
SWIDTH 960 0
DWIDTH 22 0
BBX 22 22 0 -2
BITMAP
00001C
00003C
000038
000078
000070
0000F0
0000E0
0001E0
0001C0
0003C0
000380
0003C0
0001C0
0001E0
0000E0
0000F0
000070
000078
000038
00003C
00001C
00001C
ENDCHAR

STARTCHAR jisx0208_2153
ENCODING 8531
SWIDTH 960 0
DWIDTH 22 0
BBX 22 22 0 -2
BITMAP
700000
780000
380000
3C0000
1C0000
1E0000
0E0000
0F0000
070000
078000
038000
078000
070000
0F0000
0E0000
1E0000
1C0000
3C0000
380000
780000
700000
700000
ENDCHAR

STARTCHAR jisx0208_2154
ENCODING 8532
SWIDTH 960 0
DWIDTH 22 0
BBX 22 22 0 -2
BITMAP
0000EC
0001FC
0001DC
0003FC
0003B8
0007F8
000770
000FF0
000EE0
001FE0
001DC0
001FE0
000EE0
000FF0
000770
0007F8
0003B8
0003FC
0001DC
0001FC
0000EC
0000EC
ENDCHAR

STARTCHAR jisx0208_2155
ENCODING 8533
SWIDTH 960 0
DWIDTH 22 0
BBX 22 22 0 -2
BITMAP
EE0000
FF0000
770000
7F8000
3B8000
3FC000
1DC000
1FE000
0EE000
0FF000
077000
0FF000
0EE000
1FE000
1DC000
3FC000
3B8000
7F8000
770000
FF0000
EE0000
EE0000
ENDCHAR

STARTCHAR jisx0208_2156
ENCODING 8534
SWIDTH 960 0
DWIDTH 22 0
BBX 22 22 0 -2
BITMAP
0007FC
0007FC
000700
000700
000700
000700
000700
000700
000700
000700
000700
000700
000700
000700
000700
000700
000700
000700
000700
000700
000700
000700
ENDCHAR

STARTCHAR jisx0208_2157
ENCODING 8535
SWIDTH 960 0
DWIDTH 22 0
BBX 22 22 0 -2
BITMAP
01C000
01C000
01C000
01C000
01C000
01C000
01C000
01C000
01C000
01C000
01C000
01C000
01C000
01C000
01C000
01C000
01C000
01C000
01C000
7FC000
7FC000
7FC000
ENDCHAR

STARTCHAR jisx0208_2158
ENCODING 8536
SWIDTH 960 0
DWIDTH 22 0
BBX 22 22 0 -2
BITMAP
000FFC
000FFC
000E1C
000EFC
000EFC
000EFC
000EE0
000EE0
000EE0
000EE0
000EE0
000EE0
000EE0
000EE0
000EE0
000EE0
000EE0
000EE0
000EE0
000FE0
000FE0
000FE0
ENDCHAR

STARTCHAR jisx0208_2159
ENCODING 8537
SWIDTH 960 0
DWIDTH 22 0
BBX 22 22 0 -2
BITMAP
0FE000
0FE000
0EE000
0EE000
0EE000
0EE000
0EE000
0EE000
0EE000
0EE000
0EE000
0EE000
0EE000
0EE000
0EE000
7EE000
7EE000
7EE000
70E000
7FE000
7FE000
7FE000
ENDCHAR

STARTCHAR jisx0208_215A
ENCODING 8538
SWIDTH 960 0
DWIDTH 22 0
BBX 22 22 0 -2
BITMAP
0001FC
0001F8
0001F0
0001F0
0001E0
0001E0
0001E0
0001C0
0001C0
0001C0
0001C0
0001C0
0001C0
0001C0
0001E0
0001E0
0001E0
0001F0
0001F0
0001F8
0001FC
0001FC
ENDCHAR

STARTCHAR jisx0208_215B
ENCODING 8539
SWIDTH 960 0
DWIDTH 22 0
BBX 22 22 0 -2
BITMAP
7F0000
3F0000
1F0000
1F0000
0F0000
0F0000
0F0000
070000
070000
070000
070000
070000
070000
070000
0F0000
0F0000
0F0000
1F0000
1F0000
3F0000
7F0000
7F0000
ENDCHAR

STARTCHAR jisx0208_215C
ENCODING 8540
SWIDTH 960 0
DWIDTH 22 0
BBX 22 22 0 -2
BITMAP
000000
000000
003800
003800
003800
003800
003800
003800
003800
1FFFF0
1FFFF0
1FFFF0
003800
003800
003800
003800
003800
003800
003800
000000
000000
000000
ENDCHAR

STARTCHAR jisx0208_215D
ENCODING 8541
SWIDTH 960 0
DWIDTH 22 0
BBX 22 22 0 -2
BITMAP
000000
000000
000000
000000
000000
000000
000000
000000
000000
1FFFF0
1FFFF0
1FFFF0
000000
000000
000000
000000
000000
000000
000000
000000
000000
000000
ENDCHAR

STARTCHAR jisx0208_215E
ENCODING 8542
SWIDTH 960 0
DWIDTH 22 0
BBX 22 22 0 -2
BITMAP
000000
000000
003800
003800
003800
003800
003800
1FFFF0
1FFFF0
1FFFF0
003800
003800
003800
003800
003800
000000
1FFFF0
1FFFF0
1FFFF0
000000
000000
000000
ENDCHAR

STARTCHAR jisx0208_215F
ENCODING 8543
SWIDTH 960 0
DWIDTH 22 0
BBX 22 22 0 -2
BITMAP
000000
000000
000000
0600C0
0F01E0
0F83E0
07C7C0
03EF80
01FF00
00FE00
007C00
00FE00
01FF00
03EF80
07C7C0
0F83E0
0F01E0
0600C0
000000
000000
000000
000000
ENDCHAR

STARTCHAR jisx0208_2160
ENCODING 8544
SWIDTH 960 0
DWIDTH 22 0
BBX 22 22 0 -2
BITMAP
000000
000000
000000
007800
007800
007800
007800
000000
000000
3FFFF0
3FFFF0
3FFFF0
000000
000000
007800
007800
007800
007800
000000
000000
000000
000000
ENDCHAR

STARTCHAR jisx0208_2161
ENCODING 8545
SWIDTH 960 0
DWIDTH 22 0
BBX 22 22 0 -2
BITMAP
000000
000000
000000
000000
000000
000000
1FFFF0
1FFFF0
1FFFF0
000000
000000
000000
1FFFF0
1FFFF0
1FFFF0
000000
000000
000000
000000
000000
000000
000000
ENDCHAR

STARTCHAR jisx0208_2162
ENCODING 8546
SWIDTH 960 0
DWIDTH 22 0
BBX 22 22 0 -2
BITMAP
000000
000000
000380
000780
000700
000F00
1FFEF0
1FFFF0
1FFFF0
001C00
003800
007800
1FF7F0
1FFFF0
1FFFF0
00E000
01C000
03C000
038000
000000
000000
000000
ENDCHAR

STARTCHAR jisx0208_2163
ENCODING 8547
SWIDTH 960 0
DWIDTH 22 0
BBX 22 22 0 -2
BITMAP
000000
000000
000070
0001F0
0007F0
001FC0
007F00
01FC00
07F000
1FC000
1F0000
1FC000
07F000
01FC00
007F00
001FC0
0007F0
0001F0
000070
000000
000000
000000
ENDCHAR

STARTCHAR jisx0208_2164
ENCODING 8548
SWIDTH 960 0
DWIDTH 22 0
BBX 22 22 0 -2
BITMAP
000000
000000
1C0000
1F0000
1FC000
07F000
01FC00
007F00
001FC0
0007F0
0001F0
0007F0
001FC0
007F00
01FC00
07F000
1FC000
1F0000
1C0000
000000
000000
000000
ENDCHAR

STARTCHAR jisx0208_2165
ENCODING 8549
SWIDTH 960 0
DWIDTH 22 0
BBX 22 22 0 -2
BITMAP
000000
0000F0
000FF0
007FF0
03FF80
1FF800
1FC000
1FF800
03FF80
007FF0
000FF0
0000F0
000000
1FFFF0
1FFFF0
1FFFF0
000000
1FFFF0
1FFFF0
1FFFF0
000000
000000
ENDCHAR

STARTCHAR jisx0208_2166
ENCODING 8550
SWIDTH 960 0
DWIDTH 22 0
BBX 22 22 0 -2
BITMAP
000000
1E0000
1FE000
1FFC00
03FF80
003FF0
0007F0
003FF0
03FF80
1FFC00
1FE000
1E0000
000000
1FFFF0
1FFFF0
1FFFF0
000000
1FFFF0
1FFFF0
1FFFF0
000000
000000
ENDCHAR

STARTCHAR jisx0208_2167
ENCODING 8551
SWIDTH 960 0
DWIDTH 22 0
BBX 22 22 0 -2
BITMAP
000000
000000
000000
000000
1F01F0
7FC7FC
7FEFFC
F1FF1C
E0FE0C
E07C0C
E0380C
E0FE0C
F1FF1C
7FEFFC
7FC7FC
1F01F0
000000
000000
000000
000000
000000
000000
ENDCHAR

STARTCHAR jisx0208_2168
ENCODING 8552
SWIDTH 960 0
DWIDTH 22 0
BBX 22 22 0 -2
BITMAP
000000
000000
003800
007C00
007C00
007C00
003800
000000
000000
000000
000000
000000
000000
000000
1C0070
3E00F8
3E00F8
3E00F8
1C0070
000000
000000
000000
ENDCHAR

STARTCHAR jisx0208_2169
ENCODING 8553
SWIDTH 960 0
DWIDTH 22 0
BBX 22 22 0 -2
BITMAP
001FFC
001FFC
001FFC
00007C
0001FC
0003DC
0007DC
000F9C
07DF1C
1FFE1C
3FFC1C
3C7800
783C00
701C00
701C00
701C00
783C00
3C7800
3FF800
1FF000
07C000
000000
ENDCHAR

STARTCHAR jisx0208_216A
ENCODING 8554
SWIDTH 960 0
DWIDTH 22 0
BBX 22 22 0 -2
BITMAP
007C00
01FF00
03FF80
03C780
0783C0
0701C0
0701C0
0701C0
0783C0
03C780
03FF80
01FF00
007C00
003800
0FFFE0
0FFFE0
0FFFE0
003800
003800
003800
003800
000000
ENDCHAR

STARTCHAR jisx0208_216B
ENCODING 8555
SWIDTH 960 0
DWIDTH 22 0
BBX 22 22 0 -2
BITMAP
FC0000
DC0000
CC0000
FC0000
780000
000000
000000
000000
000000
000000
000000
000000
000000
000000
000000
000000
000000
000000
000000
000000
000000
000000
ENDCHAR

STARTCHAR jisx0208_216C
ENCODING 8556
SWIDTH 960 0
DWIDTH 22 0
BBX 22 22 0 -2
BITMAP
380000
780000
700000
F00000
E00000
E00000
000000
000000
000000
000000
000000
000000
000000
000000
000000
000000
000000
000000
000000
000000
000000
000000
ENDCHAR

STARTCHAR jisx0208_216D
ENCODING 8557
SWIDTH 960 0
DWIDTH 22 0
BBX 22 22 0 -2
BITMAP
370000
7F0000
6E0000
FE0000
DC0000
DC0000
000000
000000
000000
000000
000000
000000
000000
000000
000000
000000
000000
000000
000000
000000
000000
000000
ENDCHAR

STARTCHAR jisx0208_216E
ENCODING 8558
SWIDTH 960 0
DWIDTH 22 0
BBX 22 22 0 -2
BITMAP
7E0000
6E1F80
667FE0
7EFFF0
3DF0F8
01C078
03C038
038000
038000
038000
038000
038000
03801C
03801C
03C03C
01C038
01F0F8
00FFF0
007FE0
001F80
000000
000000
ENDCHAR

STARTCHAR jisx0208_216F
ENCODING 8559
SWIDTH 960 0
DWIDTH 22 0
BBX 22 22 0 -2
BITMAP
000000
0E00E0
0F01E0
0701C0
0783C0
038380
03C780
01C700
01EF00
00EE00
07FFC0
07FFC0
07FFC0
003800
07FFC0
07FFC0
07FFC0
003800
003800
003800
000000
000000
ENDCHAR

STARTCHAR jisx0208_2170
ENCODING 8560
SWIDTH 960 0
DWIDTH 22 0
BBX 22 22 0 -2
BITMAP
003800
01FE00
07FF80
07FF80
0F3BC0
0E39C0
0E39C0
0FB800
07F800
03FE00
00FF80
003FC0
003BE0
0E38E0
0E38E0
0F38E0
07B9E0
07FFC0
03FFC0
00FF00
003800
003800
ENDCHAR

STARTCHAR jisx0208_2171
ENCODING 8561
SWIDTH 960 0
DWIDTH 22 0
BBX 22 22 0 -2
BITMAP
000000
000000
000000
000300
000380
000780
007F00
01FF00
03FF80
03CFC0
079BC0
073DC0
073800
077800
0771C0
07F3C0
03E7C0
03FF80
01FF00
03FC00
038000
018000
ENDCHAR

STARTCHAR jisx0208_2172
ENCODING 8562
SWIDTH 960 0
DWIDTH 22 0
BBX 22 22 0 -2
BITMAP
000000
003F80
007FC0
00FFE0
00F1E0
00E0E0
00E0E0
00E000
0FFF80
0FFF80
0FFF80
007000
007000
0F7000
1FF000
1FF070
1CF8F0
1F7FF0
1FFFE0
0FEFC0
000000
000000
ENDCHAR

STARTCHAR jisx0208_2173
ENCODING 8563
SWIDTH 960 0
DWIDTH 22 0
BBX 22 22 0 -2
BITMAP
000000
0F00C0
3FC1E0
3FC3E0
79E3C0
70E780
70EF00
79EF00
3FDE00
3FFC00
0F3DE0
007BF8
00F7F8
01EF3C
01EE1C
03CE1C
078F3C
0F87F8
0F07F8
0601E0
000000
000000
ENDCHAR

STARTCHAR jisx0208_2174
ENCODING 8564
SWIDTH 960 0
DWIDTH 22 0
BBX 22 22 0 -2
BITMAP
000000
00E380
00E380
00E380
00E380
00E380
0FFFF0
0FFFF0
0FFFF0
01C700
01C700
01C700
1FFFE0
1FFFE0
1FFFE0
038E00
038E00
038E00
038E00
038E00
000000
000000
ENDCHAR

STARTCHAR jisx0208_2175
ENCODING 8565
SWIDTH 960 0
DWIDTH 22 0
BBX 22 22 0 -2
BITMAP
000000
00F000
01F800
03FC00
039C00
039C00
03BC00
03F800
01F000
03E000
07F800
0778E0
0F3CE0
0E1DE0
0E1FC0
0E0FC0
0F0780
07FFE0
07FDE0
01F8C0
000000
000000
ENDCHAR

STARTCHAR jisx0208_2176
ENCODING 8566
SWIDTH 960 0
DWIDTH 22 0
BBX 22 22 0 -2
BITMAP
000000
000000
000000
003800
003800
033980
07BBC0
07BFC0
07F7C0
01FF00
007C00
01FF00
07FFC0
07B7C0
07BBC0
033980
003800
003800
000000
000000
000000
000000
ENDCHAR

STARTCHAR jisx0208_2177
ENCODING 8567
SWIDTH 960 0
DWIDTH 22 0
BBX 22 22 0 -2
BITMAP
01FF00
07FFC0
0FFFE0
1F83F0
3E00F8
3C7B78
79FFBC
79FFBC
73C79C
73839C
73879C
73873C
73CF78
7BFFF8
79FFF0
3CFBE0
3E0000
1F8380
0FFFC0
07FFC0
01FF00
000000
ENDCHAR

STARTCHAR jisx0208_2178
ENCODING 8568
SWIDTH 960 0
DWIDTH 22 0
BBX 22 22 0 -2
BITMAP
01FF00
03FF80
03C780
038380
03C000
03E000
01F800
03FE00
03BF00
038F80
03C780
03E380
01F780
00FF80
003F00
000F80
000780
038380
03C780
03FF80
01FF00
00FE00
ENDCHAR

STARTCHAR jisx0208_2179
ENCODING 8569
SWIDTH 960 0
DWIDTH 22 0
BBX 22 22 0 -2
BITMAP
003800
003800
007C00
007C00
007C00
00FE00
00EE00
7FEFFC
7FEFFC
3FC7F8
1E00F0
0F83E0
0783C0
038380
0739C0
07FDC0
0EFFE0
0FEFE0
1F83F0
1E00F0
1C0070
000000
ENDCHAR

STARTCHAR jisx0208_217A
ENCODING 8570
SWIDTH 960 0
DWIDTH 22 0
BBX 22 22 0 -2
BITMAP
003800
003800
007C00
007C00
007C00
00FE00
00FE00
7FFFFC
7FFFFC
3FFFF8
1FFFF0
0FFFE0
07FFC0
03FF80
07FFC0
07FFC0
0FFFE0
0FEFE0
1F83F0
1E00F0
1C0070
000000
ENDCHAR

STARTCHAR jisx0208_217B
ENCODING 8571
SWIDTH 960 0
DWIDTH 22 0
BBX 22 22 0 -2
BITMAP
01FF00
07FFC0
0FFFE0
1F83F0
3E00F8
3C0078
78003C
78003C
70001C
70001C
70001C
70001C
70001C
78003C
78003C
3C0078
3E00F8
1F83F0
0FFFE0
07FFC0
01FF00
000000
ENDCHAR

STARTCHAR jisx0208_217C
ENCODING 8572
SWIDTH 960 0
DWIDTH 22 0
BBX 22 22 0 -2
BITMAP
01FF00
07FFC0
0FFFE0
1FFFF0
3FFFF8
3FFFF8
7FFFFC
7FFFFC
7FFFFC
7FFFFC
7FFFFC
7FFFFC
7FFFFC
7FFFFC
7FFFFC
3FFFF8
3FFFF8
1FFFF0
0FFFE0
07FFC0
01FF00
000000
ENDCHAR

STARTCHAR jisx0208_217D
ENCODING 8573
SWIDTH 960 0
DWIDTH 22 0
BBX 22 22 0 -2
BITMAP
01FF00
07FFC0
0FFFE0
1F83F0
3E7CF8
3DFF78
7BFFBC
7BC7BC
7783DC
7701DC
7701DC
7701DC
7783DC
7BC7BC
7BFFBC
3DFF78
3E7CF8
1F83F0
0FFFE0
07FFC0
01FF00
000000
ENDCHAR

STARTCHAR jisx0208_217E
ENCODING 8574
SWIDTH 960 0
DWIDTH 22 0
BBX 22 22 0 -2
BITMAP
007C00
00FE00
01FF00
03EF80
07C7C0
0F83E0
1F01F0
3E00F8
7C007C
F8003C
F0001C
F8003C
7C007C
3E00F8
1F01F0
0F83E0
07C7C0
03EF80
01FF00
00FE00
007C00
003800
ENDCHAR

STARTCHAR jisx0208_2221
ENCODING 8737
SWIDTH 960 0
DWIDTH 22 0
BBX 22 22 0 -2
BITMAP
007C00
00FE00
01FF00
03FF80
07FFC0
0FFFE0
1FFFF0
3FFFF8
7FFFFC
FFFFFC
FFFFFC
FFFFFC
7FFFFC
3FFFF8
1FFFF0
0FFFE0
07FFC0
03FF80
01FF00
00FE00
007C00
003800
ENDCHAR

STARTCHAR jisx0208_2222
ENCODING 8738
SWIDTH 960 0
DWIDTH 22 0
BBX 22 22 0 -2
BITMAP
000000
3FFFF8
3FFFF8
3FFFF8
380038
380038
380038
380038
380038
380038
380038
380038
380038
380038
380038
380038
380038
3FFFF8
3FFFF8
3FFFF8
000000
000000
ENDCHAR

STARTCHAR jisx0208_2223
ENCODING 8739
SWIDTH 960 0
DWIDTH 22 0
BBX 22 22 0 -2
BITMAP
000000
3FFFF8
3FFFF8
3FFFF8
3FFFF8
3FFFF8
3FFFF8
3FFFF8
3FFFF8
3FFFF8
3FFFF8
3FFFF8
3FFFF8
3FFFF8
3FFFF8
3FFFF8
3FFFF8
3FFFF8
3FFFF8
3FFFF8
000000
000000
ENDCHAR

STARTCHAR jisx0208_2224
ENCODING 8740
SWIDTH 960 0
DWIDTH 22 0
BBX 22 22 0 -2
BITMAP
000000
003800
003800
007C00
00FE00
00FE00
01EF00
01C700
03C780
0783C0
0783C0
0F01E0
0E00E0
1E00F0
3C0078
3C0078
7BFFBC
7FFFFC
7FFFFC
000000
000000
000000
ENDCHAR

STARTCHAR jisx0208_2225
ENCODING 8741
SWIDTH 960 0
DWIDTH 22 0
BBX 22 22 0 -2
BITMAP
000000
003800
003800
007C00
00FE00
00FE00
01FF00
01FF00
03FF80
07FFC0
07FFC0
0FFFE0
0FFFE0
1FFFF0
3FFFF8
3FFFF8
7FFFFC
7FFFFC
7FFFFC
000000
000000
000000
ENDCHAR

STARTCHAR jisx0208_2226
ENCODING 8742
SWIDTH 960 0
DWIDTH 22 0
BBX 22 22 0 -2
BITMAP
000000
000000
7FFFFC
7FFFFC
7FFFFC
380038
3C0078
1E00F0
0E00E0
0F01E0
0783C0
0783C0
03C780
01C700
01EF00
00FE00
00FE00
007C00
003800
003800
000000
000000
ENDCHAR

STARTCHAR jisx0208_2227
ENCODING 8743
SWIDTH 960 0
DWIDTH 22 0
BBX 22 22 0 -2
BITMAP
000000
000000
7FFFFC
7FFFFC
7FFFFC
3FFFF8
3FFFF8
1FFFF0
0FFFE0
0FFFE0
07FFC0
07FFC0
03FF80
01FF00
01FF00
00FE00
00FE00
007C00
003800
003800
000000
000000
ENDCHAR

STARTCHAR jisx0208_2228
ENCODING 8744
SWIDTH 960 0
DWIDTH 22 0
BBX 22 22 0 -2
BITMAP
000000
187860
3C78F0
3E79F0
1F7BE0
0F87C0
07CF80
03DF00
3DFEF0
3CFCF0
3C78F0
3DFEF0
03DF00
07CF80
0F87C0
1F7BE0
3E79F0
3C78F0
187860
000000
000000
000000
ENDCHAR

STARTCHAR jisx0208_2229
ENCODING 8745
SWIDTH 960 0
DWIDTH 22 0
BBX 22 22 0 -2
BITMAP
000000
3FFFF0
3FFFF0
3FFFF0
3FFFF0
000000
000000
3FFFF0
3FFFF0
3FFFF0
3FFFF0
007800
007800
007800
007800
007800
007800
007800
007800
007800
000000
000000
ENDCHAR

STARTCHAR jisx0208_222A
ENCODING 8746
SWIDTH 960 0
DWIDTH 22 0
BBX 22 22 0 -2
BITMAP
000000
000000
000000
000000
000180
0003C0
0003E0
0001F0
0000FC
FFFF3C
FFFFFC
FFFFFC
00003C
0001F0
0003E0
0003C0
000180
000000
000000
000000
000000
000000
ENDCHAR

STARTCHAR jisx0208_222B
ENCODING 8747
SWIDTH 960 0
DWIDTH 22 0
BBX 22 22 0 -2
BITMAP
000000
000000
000000
000000
030000
078000
0F8000
1F0000
7E0000
F9FFFC
FFFFFC
FFFFFC
780000
1F0000
0F8000
078000
030000
000000
000000
000000
000000
000000
ENDCHAR

STARTCHAR jisx0208_222C
ENCODING 8748
SWIDTH 960 0
DWIDTH 22 0
BBX 22 22 0 -2
BITMAP
007C00
007C00
00FE00
01FF00
03B780
07BFC0
07BBC0
033980
003800
003800
003800
003800
003800
003800
003800
003800
003800
003800
003800
003800
003800
003800
ENDCHAR

STARTCHAR jisx0208_222D
ENCODING 8749
SWIDTH 960 0
DWIDTH 22 0
BBX 22 22 0 -2
BITMAP
003800
003800
003800
003800
003800
003800
003800
003800
003800
003800
003800
003800
003800
033980
07BBC0
07BFC0
03B780
01FF00
00FE00
007C00
007C00
003800
ENDCHAR

STARTCHAR jisx0208_222E
ENCODING 8750
SWIDTH 960 0
DWIDTH 22 0
BBX 22 22 0 -2
BITMAP
000000
000000
000000
000000
000000
1FFFF0
1FFFF0
1FFFF0
1FFFF0
000000
000000
000000
1FFFF0
1FFFF0
1FFFF0
1FFFF0
000000
000000
000000
000000
000000
000000
ENDCHAR

STARTCHAR jisx0208_222F
ENCODING 8751
SWIDTH 960 0
DWIDTH 22 0
BBX 22 22 0 -2
BITMAP
000000
300018
300018
000000
000000
000000
000000
000000
000000
000000
000000
000000
000000
000000
000000
000000
000000
000000
300018
300018
000000
000000
ENDCHAR

STARTCHAR jisx0208_223A
ENCODING 8762
SWIDTH 960 0
DWIDTH 22 0
BBX 22 22 0 -2
BITMAP
000000
000000
000000
03FFF0
0FFFF0
1FFFF0
1E0000
3C0000
380000
3FFFF0
3FFFF0
3FFFF0
380000
3C0000
1E0000
1FFFF0
0FFFF0
03FFF0
000000
000000
000000
000000
ENDCHAR

STARTCHAR jisx0208_223B
ENCODING 8763
SWIDTH 960 0
DWIDTH 22 0
BBX 22 22 0 -2
BITMAP
000000
000000
000000
1FFF80
1FFFE0
1FFFF0
0000F0
000078
000038
1FFFF8
1FFFF8
1FFFF8
000038
000078
0000F0
1FFFF0
1FFFE0
1FFF80
000000
000000
000000
000000
ENDCHAR

STARTCHAR jisx0208_223C
ENCODING 8764
SWIDTH 960 0
DWIDTH 22 0
BBX 22 22 0 -2
BITMAP
000000
000000
01FFF0
07FFF0
0FFFF0
0F0000
1E0000
1C0000
1C0000
1C0000
1E0000
0F0000
0FFFF0
07FFF0
01FFF0
000000
1FFFF0
1FFFF0
1FFFF0
000000
000000
000000
ENDCHAR

STARTCHAR jisx0208_223D
ENCODING 8765
SWIDTH 960 0
DWIDTH 22 0
BBX 22 22 0 -2
BITMAP
000000
000000
1FFF00
1FFFC0
1FFFE0
0001E0
0000F0
000070
000070
000070
0000F0
0001E0
1FFFE0
1FFFC0
1FFF00
000000
1FFFF0
1FFFF0
1FFFF0
000000
000000
000000
ENDCHAR

STARTCHAR jisx0208_223E
ENCODING 8766
SWIDTH 960 0
DWIDTH 22 0
BBX 22 22 0 -2
BITMAP
000000
000000
000000
01FFF0
07FFF0
0FFFF0
0F0000
1E0000
1C0000
1C0000
1C0000
1C0000
1C0000
1E0000
0F0000
0FFFF0
07FFF0
01FFF0
000000
000000
000000
000000
ENDCHAR

STARTCHAR jisx0208_223F
ENCODING 8767
SWIDTH 960 0
DWIDTH 22 0
BBX 22 22 0 -2
BITMAP
000000
000000
000000
1FFF00
1FFFC0
1FFFE0
0001E0
0000F0
000070
000070
000070
000070
000070
0000F0
0001E0
1FFFE0
1FFFC0
1FFF00
000000
000000
000000
000000
ENDCHAR

STARTCHAR jisx0208_2240
ENCODING 8768
SWIDTH 960 0
DWIDTH 22 0
BBX 22 22 0 -2
BITMAP
000000
000000
0E00E0
0E00E0
0E00E0
0E00E0
0E00E0
0E00E0
0E00E0
0E00E0
0E00E0
0E00E0
0E00E0
0E00E0
0F01E0
0783C0
07FFC0
03FF80
00FE00
000000
000000
000000
ENDCHAR

STARTCHAR jisx0208_2241
ENCODING 8769
SWIDTH 960 0
DWIDTH 22 0
BBX 22 22 0 -2
BITMAP
000000
000000
00FE00
03FF80
07FFC0
0783C0
0F01E0
0E00E0
0E00E0
0E00E0
0E00E0
0E00E0
0E00E0
0E00E0
0E00E0
0E00E0
0E00E0
0E00E0
0E00E0
000000
000000
000000
ENDCHAR

STARTCHAR jisx0208_224A
ENCODING 8778
SWIDTH 960 0
DWIDTH 22 0
BBX 22 22 0 -2
BITMAP
000000
000000
003800
003800
007C00
007C00
00FE00
00EE00
01EF00
01C700
03C780
038380
0783C0
0701C0
0F01E0
0E00E0
1E00F0
1C0070
1C0070
000000
000000
000000
ENDCHAR

STARTCHAR jisx0208_224B
ENCODING 8779
SWIDTH 960 0
DWIDTH 22 0
BBX 22 22 0 -2
BITMAP
000000
000000
1C0070
1C0070
1E00F0
0E00E0
0F01E0
0701C0
0783C0
038380
03C780
01C700
01EF00
00EE00
00FE00
007C00
007C00
003800
003800
000000
000000
000000
ENDCHAR

STARTCHAR jisx0208_224C
ENCODING 8780
SWIDTH 960 0
DWIDTH 22 0
BBX 22 22 0 -2
BITMAP
000000
000000
000000
000000
000000
000000
000000
3FFFF8
3FFFF8
3FFFF8
000038
000038
000038
000038
000038
000000
000000
000000
000000
000000
000000
000000
ENDCHAR

STARTCHAR jisx0208_224D
ENCODING 8781
SWIDTH 960 0
DWIDTH 22 0
BBX 22 22 0 -2
BITMAP
000000
000600
000700
000780
0007C0
0003E0
FFFDF0
FFFFF8
FFFFFC
00003C
00001C
00003C
FFFFFC
FFFFF8
FFFFF0
0001E0
0007C0
000780
000700
000600
000000
000000
ENDCHAR

STARTCHAR jisx0208_224E
ENCODING 8782
SWIDTH 960 0
DWIDTH 22 0
BBX 22 22 0 -2
BITMAP
000000
00C600
01C700
03C780
07C7C0
0F83E0
1F7DF0
3FFFF8
7FFFFC
F8003C
F0001C
F8003C
7FFFFC
3FFFF8
1FFFF0
0F01E0
07C7C0
03C780
01C700
00C600
000000
000000
ENDCHAR

STARTCHAR jisx0208_224F
ENCODING 8783
SWIDTH 960 0
DWIDTH 22 0
BBX 22 22 0 -2
BITMAP
000000
000000
1C0070
1C0070
1E00F0
0FFFE0
0FFFE0
07FFC0
0701C0
038380
03C780
01C700
01EF00
00EE00
00FE00
007C00
007C00
003800
003800
000000
000000
000000
ENDCHAR

STARTCHAR jisx0208_2250
ENCODING 8784
SWIDTH 960 0
DWIDTH 22 0
BBX 22 22 0 -2
BITMAP
000000
000000
0FFFC0
0FFFC0
0FFFC0
0001C0
0001C0
0001C0
0001C0
0FFFC0
0FFFC0
0FFFC0
0001C0
0001C0
0001C0
0001C0
0FFFC0
0FFFC0
0FFFC0
000000
000000
000000
ENDCHAR

STARTCHAR jisx0208_225C
ENCODING 8796
SWIDTH 960 0
DWIDTH 22 0
BBX 22 22 0 -2
BITMAP
000000
000060
0000E0
0001E0
0003E0
0007C0
000F80
001F00
003E00
003C00
007800
00F800
01F000
03E000
07C000
0F8000
1F7FF0
1FFFF0
1FFFF0
000000
000000
000000
ENDCHAR

STARTCHAR jisx0208_225D
ENCODING 8797
SWIDTH 960 0
DWIDTH 22 0
BBX 22 22 0 -2
BITMAP
000000
000000
003800
003800
003800
003800
003800
003800
003800
003800
003800
003800
003800
003800
003800
003800
1FFFF0
1FFFF0
1FFFF0
000000
000000
000000
ENDCHAR

STARTCHAR jisx0208_225E
ENCODING 8798
SWIDTH 960 0
DWIDTH 22 0
BBX 22 22 0 -2
BITMAP
0FFFE0
3FFFF8
7F83FC
FC007C
F0001C
60000C
000000
000000
000000
000000
000000
000000
000000
000000
000000
000000
000000
000000
000000
000000
000000
000000
ENDCHAR

STARTCHAR jisx0208_225F
ENCODING 8799
SWIDTH 960 0
DWIDTH 22 0
BBX 22 22 0 -2
BITMAP
000000
007C00
01FE00
03FF00
03C700
018780
000380
007B80
01FF80
03FF80
03C780
078380
070380
070380
070380
070780
078F00
03FF00
03FE00
00F800
000000
000000
ENDCHAR

STARTCHAR jisx0208_2260
ENCODING 8800
SWIDTH 960 0
DWIDTH 22 0
BBX 22 22 0 -2
BITMAP
000000
000000
3FFFF8
3FFFF8
3FFFF8
1C0030
1E0070
0F00E0
0F01E0
0781C0
038380
03C380
01E700
01EF00
00EE00
007C00
007C00
003800
003800
000000
000000
000000
ENDCHAR

STARTCHAR jisx0208_2261
ENCODING 8801
SWIDTH 960 0
DWIDTH 22 0
BBX 22 22 0 -2
BITMAP
000000
000000
000000
000000
000000
1FFFF0
1FFFF0
1FFFF0
000000
1FFFF0
1FFFF0
1FFFF0
000000
1FFFF0
1FFFF0
1FFFF0
000000
000000
000000
000000
000000
000000
ENDCHAR

STARTCHAR jisx0208_2262
ENCODING 8802
SWIDTH 960 0
DWIDTH 22 0
BBX 22 22 0 -2
BITMAP
000000
000000
03C000
03C000
03C000
03C000
000000
1FFFF0
1FFFF0
1FFFF0
000000
1FFFF0
1FFFF0
1FFFF0
000000
000780
000780
000780
000780
000000
000000
000000
ENDCHAR

STARTCHAR jisx0208_2263
ENCODING 8803
SWIDTH 960 0
DWIDTH 22 0
BBX 22 22 0 -2
BITMAP
000000
001860
003CF0
007DF0
00FBE0
01F7C0
03EF80
07DF00
0FBE00
1F7C00
1E7800
1F7C00
0FBE00
07DF00
03EF80
01F7C0
00FBE0
007DF0
003CF0
001860
000000
000000
ENDCHAR

STARTCHAR jisx0208_2264
ENCODING 8804
SWIDTH 960 0
DWIDTH 22 0
BBX 22 22 0 -2
BITMAP
000000
0C3000
1E7800
1F7C00
0FBE00
07DF00
03EF80
01F7C0
00FBE0
007DF0
003CF0
007DF0
00FBE0
01F7C0
03EF80
07DF00
0FBE00
1F7C00
1E7800
0C3000
000000
000000
ENDCHAR

STARTCHAR jisx0208_2265
ENCODING 8805
SWIDTH 960 0
DWIDTH 22 0
BBX 22 22 0 -2
BITMAP
001FFC
001FFC
003C00
003800
003800
003800
007800
007000
007000
00F000
00E000
1CE000
3CE000
7DE000
FDC000
EFC000
67C000
078000
038000
038000
000000
000000
ENDCHAR

STARTCHAR jisx0208_2266
ENCODING 8806
SWIDTH 960 0
DWIDTH 22 0
BBX 22 22 0 -2
BITMAP
000000
000000
000000
000000
1E01F0
7F87FC
7FCFFC
F3DF1C
E1BE0C
E03C0C
E0780C
E0FB0C
F1F79C
7FE7FC
7FC3FC
1F00F0
000000
000000
000000
000000
000000
000000
ENDCHAR

STARTCHAR jisx0208_2267
ENCODING 8807
SWIDTH 960 0
DWIDTH 22 0
BBX 22 22 0 -2
BITMAP
000000
000000
000000
000000
1F01F0
7FC7FC
7FEFFC
F1FF1C
E0FE00
E07C00
E03800
E0FE00
F1FF1C
7FEFFC
7FC7FC
1F01F0
000000
000000
000000
000000
000000
000000
ENDCHAR

STARTCHAR jisx0208_2268
ENCODING 8808
SWIDTH 960 0
DWIDTH 22 0
BBX 22 22 0 -2
BITMAP
000000
000000
1C0070
3E00F8
3E00F8
3E00F8
1C0070
000000
000000
000000
000000
000000
000000
000000
003800
007C00
007C00
007C00
003800
000000
000000
000000
ENDCHAR

STARTCHAR jisx0208_2269
ENCODING 8809
SWIDTH 960 0
DWIDTH 22 0
BBX 22 22 0 -2
BITMAP
007F00
00FF80
00F780
00E300
00E000
00F000
007000
007000
007000
007000
007800
003800
003800
003800
003800
003C00
001C00
031C00
07BC00
07FC00
03F800
01F000
ENDCHAR

STARTCHAR jisx0208_226A
ENCODING 8810
SWIDTH 960 0
DWIDTH 22 0
BBX 22 22 0 -2
BITMAP
07F3F8
0FF7FC
0F77BC
0E3718
0E0700
0F0780
070380
070380
070380
070380
0783C0
0381C0
0381C0
0381C0
0381C0
03C1E0
01C0E0
31D8E0
7BFDE0
7FBFE0
3F9FC0
1F0F80
ENDCHAR

STARTCHAR jisx0208_2272
ENCODING 8818
SWIDTH 960 0
DWIDTH 22 0
BBX 22 22 0 -2
BITMAP
007C00
006C00
007C00
003800
000000
007C00
007C00
00FE00
00EE00
01EF00
01C700
03C780
038380
07FFC0
07FFC0
0FFFE0
0E00E0
1E00F0
1C0070
1C0070
000000
000000
ENDCHAR

STARTCHAR jisx0208_2273
ENCODING 8819
SWIDTH 960 0
DWIDTH 22 0
BBX 22 22 0 -2
BITMAP
000000
3C1800
7E3C00
FF3C00
E77800
E77000
FFF000
7EE000
3DE000
03C000
038000
078000
0F7878
0FFCFC
1EFDFC
1DCDCC
3DCDCC
79FDFC
78FCFC
307878
000000
000000
ENDCHAR

STARTCHAR jisx0208_2274
ENCODING 8820
SWIDTH 960 0
DWIDTH 22 0
BBX 22 22 0 -2
BITMAP
000380
000380
038380
038380
0383F0
03FFF0
1FFFF0
1FFF80
1F8380
038380
038380
038380
0383F0
03FFF0
1FFFF0
1FFF80
1F8380
038380
038380
038000
038000
000000
ENDCHAR

STARTCHAR jisx0208_2275
ENCODING 8821
SWIDTH 960 0
DWIDTH 22 0
BBX 22 22 0 -2
BITMAP
01C000
01C000
01C000
01C000
01C000
01C000
01C000
01FF00
01BF80
01FFC0
01E3C0
01C1C0
01C1C0
01C3C0
01C7C0
01CF80
01FF00
01BE00
01FC00
01F000
01C000
000000
ENDCHAR

STARTCHAR jisx0208_2276
ENCODING 8822
SWIDTH 960 0
DWIDTH 22 0
BBX 22 22 0 -2
BITMAP
003800
003C00
003E00
003F00
003F80
0037C0
003BC0
0039E0
0039E0
0038E0
0038E0
0039E0
0039E0
003BC0
003FC0
01F780
03FB00
07F800
07F800
07F000
03E000
000000
ENDCHAR

STARTCHAR jisx0208_2277
ENCODING 8823
SWIDTH 960 0
DWIDTH 22 0
BBX 22 22 0 -2
BITMAP
007800
007800
007800
03B700
07FF80
07FF80
03B700
007800
007800
007800
007800
007800
003000
003000
003000
003000
003000
003000
007800
007800
007800
007800
ENDCHAR

STARTCHAR jisx0208_2278
ENCODING 8824
SWIDTH 960 0
DWIDTH 22 0
BBX 22 22 0 -2
BITMAP
007800
007800
007800
03B700
07FF80
07FF80
03B700
007800
007800
007800
003000
007800
007800
007800
03B700
07FF80
07FF80
03B700
007800
007800
007800
003000
ENDCHAR

STARTCHAR jisx0208_2279
ENCODING 8825
SWIDTH 960 0
DWIDTH 22 0
BBX 22 22 0 -2
BITMAP
03FFC0
03FFC0
07FB80
07FB80
07FB80
07FB80
07FB80
03FB80
03FB80
00FB80
003B80
003B80
003B80
003B80
003B80
003B80
003B80
003B80
003B80
003B80
003B80
003B80
ENDCHAR

STARTCHAR jisx0208_227E
ENCODING 8830
SWIDTH 960 0
DWIDTH 22 0
BBX 22 22 0 -2
BITMAP
07FFC0
0FFFE0
1F83F0
3E00F8
7C007C
78003C
F0001C
F0001C
E0000C
E0000C
E0000C
E0000C
E0000C
F0001C
F0001C
78003C
7C007C
3E00F8
1F83F0
0FFFE0
07FFC0
01FF00
ENDCHAR

STARTCHAR jisx0208_2330
ENCODING 9008
SWIDTH 960 0
DWIDTH 22 0
BBX 22 22 0 -2
BITMAP
000000
00FE00
03FF80
07FFC0
0783C0
0F01E0
0E00E0
0E00E0
0E00E0
0E00E0
0E00E0
0E00E0
0E00E0
0E00E0
0E00E0
0F01E0
0783C0
07FFC0
03FF80
00FE00
000000
000000
ENDCHAR

STARTCHAR jisx0208_2331
ENCODING 9009
SWIDTH 960 0
DWIDTH 22 0
BBX 22 22 0 -2
BITMAP
000000
003800
00F800
03F800
03F800
03B800
003800
003800
003800
003800
003800
003800
003800
003800
003800
003800
003800
003800
003800
003800
000000
000000
ENDCHAR

STARTCHAR jisx0208_2332
ENCODING 9010
SWIDTH 960 0
DWIDTH 22 0
BBX 22 22 0 -2
BITMAP
000000
00FC00
03FF00
07FF80
078780
0F03C0
0E01C0
0E01C0
0003C0
000780
001F80
007F00
01FC00
03F000
07C000
078000
0F0000
0EFFC0
0FFFC0
0FFFC0
000000
000000
ENDCHAR

STARTCHAR jisx0208_2333
ENCODING 9011
SWIDTH 960 0
DWIDTH 22 0
BBX 22 22 0 -2
BITMAP
000000
01FE00
07FF80
07FF80
0F03C0
0E01C0
0E01C0
0003C0
00FF80
00FF00
00FFC0
0003C0
0001E0
1C00E0
1C00E0
1E01E0
0F03C0
0FFFC0
07FF80
01FE00
000000
000000
ENDCHAR

STARTCHAR jisx0208_2334
ENCODING 9012
SWIDTH 960 0
DWIDTH 22 0
BBX 22 22 0 -2
BITMAP
000000
000700
000F00
001F00
003F00
003F00
007700
00F700
01F700
01E700
03C700
078700
0F8700
1F0700
1EFFE0
1FFFE0
1FFFE0
000700
000700
000700
000000
000000
ENDCHAR

STARTCHAR jisx0208_2335
ENCODING 9013
SWIDTH 960 0
DWIDTH 22 0
BBX 22 22 0 -2
BITMAP
000000
03FFC0
03FFC0
03FFC0
038000
038000
078000
077E00
06FF80
07FFC0
0783C0
0701E0
0000E0
0000E0
0E00E0
0F01E0
0F83C0
07FFC0
03FF80
00FE00
000000
000000
ENDCHAR

STARTCHAR jisx0208_2336
ENCODING 9014
SWIDTH 960 0
DWIDTH 22 0
BBX 22 22 0 -2
BITMAP
000000
00FE00
03FF80
07FFC0
0783C0
0F01C0
0E0000
0EFE00
0FFF80
0FFFC0
0F83C0
0F01E0
0E00E0
0E00E0
0E00E0
0F01E0
0783C0
07FFC0
03FF80
00FE00
000000
000000
ENDCHAR

STARTCHAR jisx0208_2337
ENCODING 9015
SWIDTH 960 0
DWIDTH 22 0
BBX 22 22 0 -2
BITMAP
000000
0FFFE0
0FFFE0
0FFFE0
0001C0
000380
000780
000700
000F00
000E00
001E00
001C00
001C00
003C00
003800
003800
007800
007000
007000
007000
000000
000000
ENDCHAR

STARTCHAR jisx0208_2338
ENCODING 9016
SWIDTH 960 0
DWIDTH 22 0
BBX 22 22 0 -2
BITMAP
000000
01FE00
07FF80
07FF80
0F03C0
0E01C0
0E01C0
0F03C0
07FF80
03FF00
0FFFC0
0F03C0
1E01E0
1C00E0
1C00E0
1E01E0
0F03C0
0FFFC0
07FF80
01FE00
000000
000000
ENDCHAR

STARTCHAR jisx0208_2339
ENCODING 9017
SWIDTH 960 0
DWIDTH 22 0
BBX 22 22 0 -2
BITMAP
000000
00FE00
03FF80
07FFC0
0783C0
0F01E0
0E00E0
0E00E0
0E00E0
0F01E0
0783E0
07FFE0
03FFE0
00FEE0
0000E0
0701E0
0783C0
07FFC0
03FF80
00FE00
000000
000000
ENDCHAR

STARTCHAR jisx0208_2341
ENCODING 9025
SWIDTH 960 0
DWIDTH 22 0
BBX 22 22 0 -2
BITMAP
000000
003800
003800
007C00
007C00
00FE00
00EE00
00EE00
01EF00
01C700
03C780
038380
0783C0
077DC0
07FFC0
0FFFE0
0E00E0
1E00F0
1C0070
1C0070
000000
000000
ENDCHAR

STARTCHAR jisx0208_2342
ENCODING 9026
SWIDTH 960 0
DWIDTH 22 0
BBX 22 22 0 -2
BITMAP
000000
0FFE00
0FFF80
0FFF80
0E03C0
0E01C0
0E01C0
0E03C0
0FFF80
0FFF00
0FFFC0
0E03C0
0E01E0
0E00E0
0E00E0
0E00E0
0E01E0
0FFFC0
0FFFC0
0FFF00
000000
000000
ENDCHAR

STARTCHAR jisx0208_2343
ENCODING 9027
SWIDTH 960 0
DWIDTH 22 0
BBX 22 22 0 -2
BITMAP
000000
00FC00
03FF00
07FF80
0F87C0
0E03C0
1E01C0
1C0000
1C0000
1C0000
1C0000
1C0000
1C00E0
1C00E0
1E01E0
0E01C0
0F87C0
07FF80
03FF00
00FC00
000000
000000
ENDCHAR

STARTCHAR jisx0208_2344
ENCODING 9028
SWIDTH 960 0
DWIDTH 22 0
BBX 22 22 0 -2
BITMAP
000000
0FFC00
0FFF00
0FFF80
0E07C0
0E01C0
0E01E0
0E00E0
0E00E0
0E00E0
0E00E0
0E00E0
0E00E0
0E00E0
0E01E0
0E01C0
0E07C0
0FFF80
0FFF00
0FFC00
000000
000000
ENDCHAR

STARTCHAR jisx0208_2345
ENCODING 9029
SWIDTH 960 0
DWIDTH 22 0
BBX 22 22 0 -2
BITMAP
000000
07FFE0
07FFE0
07FFE0
070000
070000
070000
070000
07FF80
07FF80
07FF80
070000
070000
070000
070000
070000
070000
07FFE0
07FFE0
07FFE0
000000
000000
ENDCHAR

STARTCHAR jisx0208_2346
ENCODING 9030
SWIDTH 960 0
DWIDTH 22 0
BBX 22 22 0 -2
BITMAP
000000
07FFE0
07FFE0
07FFE0
070000
070000
070000
070000
07FF80
07FF80
07FF80
070000
070000
070000
070000
070000
070000
070000
070000
070000
000000
000000
ENDCHAR

STARTCHAR jisx0208_2347
ENCODING 9031
SWIDTH 960 0
DWIDTH 22 0
BBX 22 22 0 -2
BITMAP
000000
00FC00
03FF00
07FF80
0F87C0
0E03C0
1E01C0
1C0000
1C0000
1C0000
1C1FE0
1C1FE0
1C1FE0
1C00E0
1E00E0
0E01E0
0F87E0
07FFE0
03FEE0
00FCE0
000000
000000
ENDCHAR

STARTCHAR jisx0208_2348
ENCODING 9032
SWIDTH 960 0
DWIDTH 22 0
BBX 22 22 0 -2
BITMAP
000000
0E00E0
0E00E0
0E00E0
0E00E0
0E00E0
0E00E0
0E00E0
0FFFE0
0FFFE0
0FFFE0
0E00E0
0E00E0
0E00E0
0E00E0
0E00E0
0E00E0
0E00E0
0E00E0
0E00E0
000000
000000
ENDCHAR

STARTCHAR jisx0208_2349
ENCODING 9033
SWIDTH 960 0
DWIDTH 22 0
BBX 22 22 0 -2
BITMAP
000000
00FE00
00FE00
00FE00
003800
003800
003800
003800
003800
003800
003800
003800
003800
003800
003800
003800
003800
00FE00
00FE00
00FE00
000000
000000
ENDCHAR

STARTCHAR jisx0208_234A
ENCODING 9034
SWIDTH 960 0
DWIDTH 22 0
BBX 22 22 0 -2
BITMAP
000000
000380
000380
000380
000380
000380
000380
000380
000380
000380
000380
000380
000380
070380
070380
070380
078780
03FF00
03FF00
00FC00
000000
000000
ENDCHAR

STARTCHAR jisx0208_234B
ENCODING 9035
SWIDTH 960 0
DWIDTH 22 0
BBX 22 22 0 -2
BITMAP
000000
0E03C0
0E07C0
0E0F80
0E1F00
0E3E00
0E7C00
0EF800
0FF000
0DE000
0FF800
0F7800
0F3C00
0E1E00
0E1F00
0E0F00
0E0780
0E03C0
0E03E0
0E01E0
000000
000000
ENDCHAR

STARTCHAR jisx0208_234C
ENCODING 9036
SWIDTH 960 0
DWIDTH 22 0
BBX 22 22 0 -2
BITMAP
000000
070000
070000
070000
070000
070000
070000
070000
070000
070000
070000
070000
070000
070000
070000
070000
070000
07FFE0
07FFE0
07FFE0
000000
000000
ENDCHAR

STARTCHAR jisx0208_234D
ENCODING 9037
SWIDTH 960 0
DWIDTH 22 0
BBX 22 22 0 -2
BITMAP
000000
1C0070
1C0070
1E00F0
1E00F0
1F01F0
1F01F0
1F01F0
1F83F0
1B8370
1FC770
1DC770
1DEF70
1CEE70
1CEE70
1CFE70
1C7C70
1C7C70
1C3870
1C3870
000000
000000
ENDCHAR

STARTCHAR jisx0208_234E
ENCODING 9038
SWIDTH 960 0
DWIDTH 22 0
BBX 22 22 0 -2
BITMAP
000000
0E00E0
0F00E0
0F80E0
0F80E0
0FC0E0
0DE0E0
0FE0E0
0EF0E0
0E78E0
0E7CE0
0E3CE0
0E1EE0
0E0EE0
0E0EE0
0E07E0
0E03E0
0E03E0
0E01E0
0E00E0
000000
000000
ENDCHAR

STARTCHAR jisx0208_234F
ENCODING 9039
SWIDTH 960 0
DWIDTH 22 0
BBX 22 22 0 -2
BITMAP
000000
00FC00
03FF00
07FF80
0F87C0
0E01C0
1E01E0
1C00E0
1C00E0
1C00E0
1C00E0
1C00E0
1C00E0
1C00E0
1E01E0
0E01C0
0F87C0
07FF80
03FF00
00FC00
000000
000000
ENDCHAR

STARTCHAR jisx0208_2350
ENCODING 9040
SWIDTH 960 0
DWIDTH 22 0
BBX 22 22 0 -2
BITMAP
000000
07FF00
07FFC0
07FFC0
0701E0
0700E0
0700E0
0700E0
0700E0
0701E0
07FFC0
07FFC0
07FF00
070000
070000
070000
070000
070000
070000
070000
000000
000000
ENDCHAR

STARTCHAR jisx0208_2351
ENCODING 9041
SWIDTH 960 0
DWIDTH 22 0
BBX 22 22 0 -2
BITMAP
000000
00FC00
03FF00
07FF80
0F87C0
0E01C0
1E01E0
1C00E0
1C00E0
1C00E0
1C00E0
1C00E0
1C00E0
1C0CE0
1E1DE0
0E1FC0
0F8FC0
07F780
03FFC0
00FD80
000000
000000
ENDCHAR

STARTCHAR jisx0208_2352
ENCODING 9042
SWIDTH 960 0
DWIDTH 22 0
BBX 22 22 0 -2
BITMAP
000000
0FFE00
0FFF80
0FFF80
0E03C0
0E01C0
0E01C0
0E01C0
0E01C0
0E03C0
0FFF80
0FFF80
0FFF00
0E0780
0E0380
0E03C0
0E01C0
0E01E0
0E00E0
0E00E0
000000
000000
ENDCHAR

STARTCHAR jisx0208_2353
ENCODING 9043
SWIDTH 960 0
DWIDTH 22 0
BBX 22 22 0 -2
BITMAP
000000
01FE00
07FF80
07FF80
0F03C0
0E01C0
0E01C0
0F8000
07F000
03FE00
00FF80
001FC0
0003E0
0E00E0
0E00E0
0F00E0
0781E0
07FFC0
03FFC0
00FF00
000000
000000
ENDCHAR

STARTCHAR jisx0208_2354
ENCODING 9044
SWIDTH 960 0
DWIDTH 22 0
BBX 22 22 0 -2
BITMAP
000000
1FFFF0
1FFFF0
1FFFF0
003800
003800
003800
003800
003800
003800
003800
003800
003800
003800
003800
003800
003800
003800
003800
003800
000000
000000
ENDCHAR

STARTCHAR jisx0208_2355
ENCODING 9045
SWIDTH 960 0
DWIDTH 22 0
BBX 22 22 0 -2
BITMAP
000000
0E00E0
0E00E0
0E00E0
0E00E0
0E00E0
0E00E0
0E00E0
0E00E0
0E00E0
0E00E0
0E00E0
0E00E0
0E00E0
0E00E0
0F01E0
0783C0
07FFC0
03FF80
00FE00
000000
000000
ENDCHAR

STARTCHAR jisx0208_2356
ENCODING 9046
SWIDTH 960 0
DWIDTH 22 0
BBX 22 22 0 -2
BITMAP
000000
1C0070
1C0070
1E00F0
0E00E0
0F01E0
0701C0
0701C0
0783C0
038380
03C780
01C700
01EF00
00EE00
00EE00
00FE00
007C00
007C00
003800
003800
000000
000000
ENDCHAR

STARTCHAR jisx0208_2357
ENCODING 9047
SWIDTH 960 0
DWIDTH 22 0
BBX 22 22 0 -2
BITMAP
000000
70381C
70381C
70381C
787C3C
387C38
387C38
3C7C78
1CFE70
1CEE70
1EEEF0
0EEEE0
0FEEE0
0DC7E0
07C7C0
07C7C0
07C7C0
038380
038380
038380
000000
000000
ENDCHAR

STARTCHAR jisx0208_2358
ENCODING 9048
SWIDTH 960 0
DWIDTH 22 0
BBX 22 22 0 -2
BITMAP
000000
0F01E0
0F83E0
0783C0
03C780
01EF00
01EF00
00FE00
007C00
007C00
003800
00FE00
00FE00
01EF00
03C780
03C780
0783C0
0F01E0
1F01F0
1E00F0
000000
000000
ENDCHAR

STARTCHAR jisx0208_2359
ENCODING 9049
SWIDTH 960 0
DWIDTH 22 0
BBX 22 22 0 -2
BITMAP
000000
0E00E0
0E00E0
0F01E0
0701C0
0783C0
038380
03C780
01C700
01EF00
00EE00
00FE00
007C00
007C00
003800
003800
003800
003800
003800
003800
000000
000000
ENDCHAR

STARTCHAR jisx0208_235A
ENCODING 9050
SWIDTH 960 0
DWIDTH 22 0
BBX 22 22 0 -2
BITMAP
000000
07FFC0
07FFC0
07FFC0
000380
000F00
000F00
001E00
003C00
003C00
007800
00F000
00F000
01E000
03C000
03C000
078000
0F7FC0
0FFFC0
0FFFC0
000000
000000
ENDCHAR

STARTCHAR jisx0208_2361
ENCODING 9057
SWIDTH 960 0
DWIDTH 22 0
BBX 22 22 0 -2
BITMAP
000000
000000
000000
000000
000000
000000
00FC00
03FF00
07FF00
078780
070380
00FF80
03FF80
03FF80
078380
070380
078F80
07FF80
03FF80
01FB80
000000
000000
ENDCHAR

STARTCHAR jisx0208_2362
ENCODING 9058
SWIDTH 960 0
DWIDTH 22 0
BBX 22 22 0 -2
BITMAP
000000
070000
070000
070000
070000
070000
077C00
07FF00
07FF80
07C780
0783C0
0701C0
0701C0
0701C0
0701C0
0783C0
07C780
07FF80
07FF00
077C00
000000
000000
ENDCHAR

STARTCHAR jisx0208_2363
ENCODING 9059
SWIDTH 960 0
DWIDTH 22 0
BBX 22 22 0 -2
BITMAP
000000
000000
000000
000000
000000
000000
007C00
01FF00
03FF80
03C7C0
0783C0
0701C0
070000
070000
0701C0
0783C0
03C7C0
03FF80
01FF00
007C00
000000
000000
ENDCHAR

STARTCHAR jisx0208_2364
ENCODING 9060
SWIDTH 960 0
DWIDTH 22 0
BBX 22 22 0 -2
BITMAP
000000
0001C0
0001C0
0001C0
0001C0
0001C0
007DC0
01FFC0
03FFC0
03C7C0
0783C0
0701C0
0701C0
0701C0
0701C0
0783C0
03C7C0
03FFC0
01FFC0
007DC0
000000
000000
ENDCHAR

STARTCHAR jisx0208_2365
ENCODING 9061
SWIDTH 960 0
DWIDTH 22 0
BBX 22 22 0 -2
BITMAP
000000
000000
000000
000000
000000
000000
007C00
01FF00
03FF80
03C780
0783C0
077DC0
07FFC0
07FFC0
070000
0781C0
03C3C0
03FFC0
01FF80
007E00
000000
000000
ENDCHAR

STARTCHAR jisx0208_2366
ENCODING 9062
SWIDTH 960 0
DWIDTH 22 0
BBX 22 22 0 -2
BITMAP
000000
003F00
007F00
007F00
007000
007000
03FF00
03FF00
03FF00
007000
007000
007000
007000
007000
007000
007000
007000
007000
007000
007000
000000
000000
ENDCHAR

STARTCHAR jisx0208_2367
ENCODING 9063
SWIDTH 960 0
DWIDTH 22 0
BBX 22 22 0 -2
BITMAP
000000
000000
000000
000000
000000
000000
00FB80
03FF80
03FF80
078780
070380
070380
070380
078780
03FF80
03FF80
00FB80
070380
078780
07FF00
03FF00
00FC00
ENDCHAR

STARTCHAR jisx0208_2368
ENCODING 9064
SWIDTH 960 0
DWIDTH 22 0
BBX 22 22 0 -2
BITMAP
000000
070000
070000
070000
070000
070000
077E00
07FF00
06FF80
07C780
078380
070380
070380
070380
070380
070380
070380
070380
070380
070380
000000
000000
ENDCHAR

STARTCHAR jisx0208_2369
ENCODING 9065
SWIDTH 960 0
DWIDTH 22 0
BBX 22 22 0 -2
BITMAP
000000
003800
003800
003800
003800
000000
003800
003800
003800
003800
003800
003800
003800
003800
003800
003800
003800
003800
003800
003800
000000
000000
ENDCHAR

STARTCHAR jisx0208_236A
ENCODING 9066
SWIDTH 960 0
DWIDTH 22 0
BBX 22 22 0 -2
BITMAP
000000
001C00
001C00
001C00
001C00
000000
001C00
001C00
001C00
001C00
001C00
001C00
001C00
001C00
001C00
001C00
001C00
001C00
001C00
01FC00
01FC00
01F800
ENDCHAR

STARTCHAR jisx0208_236B
ENCODING 9067
SWIDTH 960 0
DWIDTH 22 0
BBX 22 22 0 -2
BITMAP
000000
070000
070000
070000
070000
070000
070F00
071F00
073E00
077C00
07F800
06F000
07F800
07BC00
079E00
071E00
070F00
070780
070780
070380
000000
000000
ENDCHAR

STARTCHAR jisx0208_236C
ENCODING 9068
SWIDTH 960 0
DWIDTH 22 0
BBX 22 22 0 -2
BITMAP
000000
003800
003800
003800
003800
003800
003800
003800
003800
003800
003800
003800
003800
003800
003800
003800
003800
003E00
003E00
003E00
000000
000000
ENDCHAR

STARTCHAR jisx0208_236D
ENCODING 9069
SWIDTH 960 0
DWIDTH 22 0
BBX 22 22 0 -2
BITMAP
000000
000000
000000
000000
000000
000000
1BE7C0
1FEFE0
1FFFF0
1E7CF0
1C3870
1C3870
1C3870
1C3870
1C3870
1C3870
1C3870
1C3870
1C3870
1C3870
000000
000000
ENDCHAR

STARTCHAR jisx0208_236E
ENCODING 9070
SWIDTH 960 0
DWIDTH 22 0
BBX 22 22 0 -2
BITMAP
000000
000000
000000
000000
000000
000000
077E00
07FF00
06FF80
07C780
078380
070380
070380
070380
070380
070380
070380
070380
070380
070380
000000
000000
ENDCHAR

STARTCHAR jisx0208_236F
ENCODING 9071
SWIDTH 960 0
DWIDTH 22 0
BBX 22 22 0 -2
BITMAP
000000
000000
000000
000000
000000
000000
00FC00
03FF00
07FF80
078780
0F03C0
0E01C0
0E01C0
0E01C0
0E01C0
0F03C0
078780
07FF80
03FF00
00FC00
000000
000000
ENDCHAR

STARTCHAR jisx0208_2370
ENCODING 9072
SWIDTH 960 0
DWIDTH 22 0
BBX 22 22 0 -2
BITMAP
000000
000000
000000
000000
000000
000000
037E00
03FF80
03FF80
03C3C0
0381C0
0381C0
0381C0
0381C0
0381C0
03C3C0
03FF80
03FF80
037E00
038000
038000
038000
ENDCHAR

STARTCHAR jisx0208_2371
ENCODING 9073
SWIDTH 960 0
DWIDTH 22 0
BBX 22 22 0 -2
BITMAP
000000
000000
000000
000000
000000
000000
00FB80
03FF80
03FF80
078780
070380
070380
070380
070380
070380
078780
03FF80
03FF80
00FB80
000380
000380
000380
ENDCHAR

STARTCHAR jisx0208_2372
ENCODING 9074
SWIDTH 960 0
DWIDTH 22 0
BBX 22 22 0 -2
BITMAP
000000
000000
000000
000000
000000
000000
00E780
00FF80
00DF80
00FC00
00F000
00E000
00E000
00E000
00E000
00E000
00E000
00E000
00E000
00E000
000000
000000
ENDCHAR

STARTCHAR jisx0208_2373
ENCODING 9075
SWIDTH 960 0
DWIDTH 22 0
BBX 22 22 0 -2
BITMAP
000000
000000
000000
000000
000000
000000
01FC00
03FE00
07FF00
070700
078700
07F000
03FC00
00FF00
001F80
070780
078380
07FF80
03FF00
00FE00
000000
000000
ENDCHAR

STARTCHAR jisx0208_2374
ENCODING 9076
SWIDTH 960 0
DWIDTH 22 0
BBX 22 22 0 -2
BITMAP
000000
007000
007000
007000
007000
007000
03FF00
03FF00
03FF00
007000
007000
007000
007000
007000
007000
007000
007000
007F00
007F00
003F00
000000
000000
ENDCHAR

STARTCHAR jisx0208_2375
ENCODING 9077
SWIDTH 960 0
DWIDTH 22 0
BBX 22 22 0 -2
BITMAP
000000
000000
000000
000000
000000
000000
070380
070380
070380
070380
070380
070380
070380
070380
070380
070780
078F80
07FF80
03FB80
01FB80
000000
000000
ENDCHAR

STARTCHAR jisx0208_2376
ENCODING 9078
SWIDTH 960 0
DWIDTH 22 0
BBX 22 22 0 -2
BITMAP
000000
000000
000000
000000
000000
000000
0701C0
0701C0
0783C0
038380
03C780
01C700
01C700
01EF00
00EE00
00FE00
007C00
007C00
003800
003800
000000
000000
ENDCHAR

STARTCHAR jisx0208_2377
ENCODING 9079
SWIDTH 960 0
DWIDTH 22 0
BBX 22 22 0 -2
BITMAP
000000
000000
000000
000000
000000
000000
1C3870
1C3870
1E38F0
0E7CE0
0E7CE0
0F7DE0
07FDC0
06EDC0
07EFC0
03EF80
03EF80
03C780
01C700
01C700
000000
000000
ENDCHAR

STARTCHAR jisx0208_2378
ENCODING 9080
SWIDTH 960 0
DWIDTH 22 0
BBX 22 22 0 -2
BITMAP
000000
000000
000000
000000
000000
000000
070380
078780
07CF80
03CF00
01DE00
00FC00
00FC00
007800
01FE00
01DE00
03CF00
078780
078780
070380
000000
000000
ENDCHAR

STARTCHAR jisx0208_2379
ENCODING 9081
SWIDTH 960 0
DWIDTH 22 0
BBX 22 22 0 -2
BITMAP
000000
000000
000000
000000
000000
000000
070380
070380
078780
038700
03CF00
01CE00
01CE00
01DE00
00DC00
00FC00
007800
007800
00F000
07F000
07E000
07C000
ENDCHAR

STARTCHAR jisx0208_237A
ENCODING 9082
SWIDTH 960 0
DWIDTH 22 0
BBX 22 22 0 -2
BITMAP
000000
000000
000000
000000
000000
000000
03FF80
03FF80
03FF80
000F00
001E00
003C00
007C00
007800
00F000
01E000
03E000
07DF80
07FF80
07FF80
000000
000000
ENDCHAR

STARTCHAR jisx0208_2421
ENCODING 9249
SWIDTH 960 0
DWIDTH 22 0
BBX 22 22 0 -2
BITMAP
000000
000000
000000
000000
00E000
00E000
00EF00
0FFF00
0FFF00
0FF800
01CE00
03FF80
07FFC0
0FDBE0
0FFDE0
1DB8E0
1DF8E0
1CF1E0
1FE3E0
1FFFC0
0F5F80
001E00
ENDCHAR

STARTCHAR jisx0208_2422
ENCODING 9250
SWIDTH 960 0
DWIDTH 22 0
BBX 22 22 0 -2
BITMAP
00E000
00E7C0
1FFFC0
1FFFC0
1FFC00
01C300
01FF80
03FFE0
0FFFF0
1FCEF8
3DDE38
3DDC3C
79FC1C
71B81C
71F81C
70F03C
73E078
7FF0F8
7F63F0
3E1FE0
001F80
001E00
ENDCHAR

STARTCHAR jisx0208_2423
ENCODING 9251
SWIDTH 960 0
DWIDTH 22 0
BBX 22 22 0 -2
BITMAP
000000
000000
000000
000000
000000
000000
0E0000
0E0180
1E03C0
1E03C0
1C01E0
1C01E0
1C00F0
1C00F0
1C0070
1E7070
1E7070
0EF000
0FE000
07E000
03C000
000000
ENDCHAR

STARTCHAR jisx0208_2424
ENCODING 9252
SWIDTH 960 0
DWIDTH 22 0
BBX 22 22 0 -2
BITMAP
000000
380000
380000
380060
7800F0
7800F0
700078
700078
700038
70003C
70003C
70001C
78001C
78001C
38E01C
3CE01C
3CE000
1DE000
1FC000
0FC000
078000
000000
ENDCHAR

STARTCHAR jisx0208_2425
ENCODING 9253
SWIDTH 960 0
DWIDTH 22 0
BBX 22 22 0 -2
BITMAP
000000
000000
000000
000000
000000
01E000
01FF00
01FF00
003F00
004000
0FFF80
0FFFC0
0FC3C0
0001C0
0001C0
0001C0
0003C0
000780
001F80
00FF00
00FE00
00F800
ENDCHAR

STARTCHAR jisx0208_2426
ENCODING 9254
SWIDTH 960 0
DWIDTH 22 0
BBX 22 22 0 -2
BITMAP
03FF80
03FF80
003F80
000000
007F80
3FFFE0
3FFFE0
3FC0F0
000070
000070
000070
000070
0000F0
0000F0
0001E0
0003E0
000FC0
003F80
01FF00
01FC00
01F000
000000
ENDCHAR

STARTCHAR jisx0208_2427
ENCODING 9255
SWIDTH 960 0
DWIDTH 22 0
BBX 22 22 0 -2
BITMAP
000000
000000
000000
000000
01E000
01FF00
01FF00
003F00
000000
07FF80
07FF80
07EF00
001E00
007C00
00F800
01FE00
03FE00
07CE00
0F8E00
1F0FF0
1E0FF0
0C07F0
ENDCHAR

STARTCHAR jisx0208_2428
ENCODING 9256
SWIDTH 960 0
DWIDTH 22 0
BBX 22 22 0 -2
BITMAP
03FF00
03FF00
003F00
000000
003F80
0FFFC0
0FFFC0
0FE780
001F00
003E00
007C00
00F800
01FE00
03FE00
07CE00
0F8E00
1F0E00
3E0E00
7C0FFC
780FFC
3007FC
000000
ENDCHAR

STARTCHAR jisx0208_2429
ENCODING 9257
SWIDTH 960 0
DWIDTH 22 0
BBX 22 22 0 -2
BITMAP
000000
000000
000000
000000
000000
038000
038000
03F980
1F7BE0
1FFBF0
1FC0F0
039F60
03FF80
037FE0
07F1E0
1FC0E0
3F80E0
3B99E0
1FBFE0
0FBFC0
079F80
030000
ENDCHAR

STARTCHAR jisx0208_242A
ENCODING 9258
SWIDTH 960 0
DWIDTH 22 0
BBX 22 22 0 -2
BITMAP
070000
070000
070180
07FBE0
7EFBF8
7FF8FC
7F803C
070018
071FC0
077FF0
07FFF8
07F078
0FC03C
3F001C
FF001C
F7001C
F7183C
3F3C78
1F3FF8
0F1FF0
0707C0
060000
ENDCHAR

STARTCHAR jisx0208_242B
ENCODING 9259
SWIDTH 960 0
DWIDTH 22 0
BBX 22 22 0 -2
BITMAP
038000
038000
038180
0783C0
077BE0
FFFDF0
FFFEF8
FF1E7C
0E0E3C
0E0E1C
1E0E1C
1C0E0C
1C1E1C
3C1E7C
381C7C
783C38
7B3C00
F77800
F7F800
E3F000
61E000
000000
ENDCHAR

STARTCHAR jisx0208_242C
ENCODING 9260
SWIDTH 960 0
DWIDTH 22 0
BBX 22 22 0 -2
BITMAP
03805C
03807C
0381EC
0783B0
077BC0
FFFDF0
FFFEF8
FF1E7C
0E0E3C
0E0E1C
1E0E1C
1C0E0C
1C1E1C
3C1E7C
381C7C
783C38
7B3C00
F77800
F7F800
E3F000
61E000
000000
ENDCHAR

STARTCHAR jisx0208_242D
ENCODING 9261
SWIDTH 960 0
DWIDTH 22 0
BBX 22 22 0 -2
BITMAP
003800
003BE0
1FDFE0
1FFFE0
1FFC00
000FF8
3FFDF8
3FFFF8
3FFF00
000780
03FB80
0FFFC0
0FFFE0
1E07E0
1C01C0
1C0000
1E0000
1F81C0
0FFFC0
07FFC0
01FF00
000000
ENDCHAR

STARTCHAR jisx0208_242E
ENCODING 9262
SWIDTH 960 0
DWIDTH 22 0
BBX 22 22 0 -2
BITMAP
00382C
003BFC
1FDFF4
1FFFD8
1FFC00
000FF8
3FFDF8
3FFFF8
3FFF00
000780
03FB80
0FFFC0
0FFFE0
1E07E0
1C01C0
1C0000
1E0000
1F81C0
0FFFC0
07FFC0
01FF00
000000
ENDCHAR

STARTCHAR jisx0208_242F
ENCODING 9263
SWIDTH 960 0
DWIDTH 22 0
BBX 22 22 0 -2
BITMAP
000780
000F80
001F00
007E00
00FC00
01F800
07E000
0FC000
1F8000
1E0000
1C0000
1F8000
0FC000
07E000
01F800
00FC00
007E00
001F00
000F80
0007C0
0003C0
000180
ENDCHAR

STARTCHAR jisx0208_2430
ENCODING 9264
SWIDTH 960 0
DWIDTH 22 0
BBX 22 22 0 -2
BITMAP
000798
000F9C
001F7C
007E6C
00FC70
01F830
07E000
0FC000
1F8000
1E0000
1C0000
1F8000
0FC000
07E000
01F800
00FC00
007E00
001F00
000F80
0007C0
0003C0
000180
ENDCHAR

STARTCHAR jisx0208_2431
ENCODING 9265
SWIDTH 960 0
DWIDTH 22 0
BBX 22 22 0 -2
BITMAP
3800E0
3800E0
3800E0
3800E0
7800E0
70FFFC
70FFFC
70FFFC
7000E0
7000E0
7000E0
7000E0
7000E0
7000E0
7001E0
7001E0
7803C0
3807C0
380F80
381F00
001E00
000C00
ENDCHAR

STARTCHAR jisx0208_2432
ENCODING 9266
SWIDTH 960 0
DWIDTH 22 0
BBX 22 22 0 -2
BITMAP
3800EC
3800FC
3800D4
3800FC
7800EC
70FFF0
70FFFC
70FFFC
7000E0
7000E0
7000E0
7000E0
7000E0
7000E0
7001E0
7001E0
7803C0
3807C0
380F80
381F00
001E00
000C00
ENDCHAR

STARTCHAR jisx0208_2433
ENCODING 9267
SWIDTH 960 0
DWIDTH 22 0
BBX 22 22 0 -2
BITMAP
000000
07FF80
07FF80
07FF80
000000
000000
000000
000000
000000
000000
0C0000
1E0000
3E0000
3C0000
380000
380000
3C00F0
3FFFF0
1FFFF0
07FF80
000000
000000
ENDCHAR

STARTCHAR jisx0208_2434
ENCODING 9268
SWIDTH 960 0
DWIDTH 22 0
BBX 22 22 0 -2
BITMAP
00002C
07FFBC
07FFB4
07FF98
000000
000000
000000
000000
000000
000000
0C0000
1E0000
3E0000
3C0000
380000
380000
3C00F0
3FFFF0
1FFFF0
07FF80
000000
000000
ENDCHAR

STARTCHAR jisx0208_2435
ENCODING 9269
SWIDTH 960 0
DWIDTH 22 0
BBX 22 22 0 -2
BITMAP
003800
003800
003CF0
001FF0
3FFFF0
3FFF80
3FFE00
000F00
000700
01FF80
07FBC0
0FFFE0
1F07E0
1E01C0
1C0000
1C0000
1E0000
1F01C0
0FFFC0
07FFC0
01FF00
000000
ENDCHAR

STARTCHAR jisx0208_2436
ENCODING 9270
SWIDTH 960 0
DWIDTH 22 0
BBX 22 22 0 -2
BITMAP
00382C
00383C
003DF4
001FD8
3FFFE0
3FFF00
3FFE00
000F00
000700
01FF80
07FBC0
0FFFE0
1F07E0
1E01C0
1C0000
1C0000
1E0000
1F01C0
0FFFC0
07FFC0
01FF00
000000
ENDCHAR

STARTCHAR jisx0208_2437
ENCODING 9271
SWIDTH 960 0
DWIDTH 22 0
BBX 22 22 0 -2
BITMAP
0E0000
0E0000
0E0000
0E0000
0E0000
0E0000
0E0000
0E0000
1E0000
1C0000
1C0000
1C0000
1C0000
1C0030
1C0078
1C00F8
1E01F0
0F07E0
0FFFC0
07FF80
01FE00
000000
ENDCHAR

STARTCHAR jisx0208_2438
ENCODING 9272
SWIDTH 960 0
DWIDTH 22 0
BBX 22 22 0 -2
BITMAP
0E0000
0E0180
0E05C0
0E07C0
0E06C0
0E0300
0E0000
0E0000
1E0000
1C0000
1C0000
1C0000
1C0000
1C0030
1C0078
1C00F8
1E01F0
0F07E0
0FFFC0
07FF80
01FE00
000000
ENDCHAR

STARTCHAR jisx0208_2439
ENCODING 9273
SWIDTH 960 0
DWIDTH 22 0
BBX 22 22 0 -2
BITMAP
001C00
001C00
03FFFC
FFFFFC
FFFFFC
FE1C00
01FC00
03FC00
07FC00
07BE00
071E00
071E00
07BE00
07FE00
03EE00
01DE00
003C00
007C00
01F800
03F000
03E000
018000
ENDCHAR

STARTCHAR jisx0208_243A
ENCODING 9274
SWIDTH 960 0
DWIDTH 22 0
BBX 22 22 0 -2
BITMAP
001C6C
001C7C
03FFB4
FFFFFC
FFFFFC
FE1C00
01FC00
03FC00
07FC00
07BE00
071E00
071E00
07BE00
07FE00
03EE00
01DE00
003C00
007C00
01F800
03F000
03E000
018000
ENDCHAR

STARTCHAR jisx0208_243B
ENCODING 9275
SWIDTH 960 0
DWIDTH 22 0
BBX 22 22 0 -2
BITMAP
0001C0
0E01C0
0E01C0
0E01C0
0E01C0
0E3FFC
FFFFFC
FFFFFC
FFE1C0
0E01C0
0E01C0
0E01C0
0E1FC0
0E1FC0
0E0F80
0E0000
0E0000
0F00F0
0FFFF0
07FFF0
03FF80
000000
ENDCHAR

STARTCHAR jisx0208_243C
ENCODING 9276
SWIDTH 960 0
DWIDTH 22 0
BBX 22 22 0 -2
BITMAP
0001CC
0E01FC
0E01B4
0E01F8
0E01D8
0E3FE4
FFFFFC
FFFFFC
FFE1C0
0E01C0
0E01C0
0E01C0
0E1FC0
0E1FC0
0E0F80
0E0000
0E0000
0F00F0
0FFFF0
07FFF0
03FF80
000000
ENDCHAR

STARTCHAR jisx0208_243D
ENCODING 9277
SWIDTH 960 0
DWIDTH 22 0
BBX 22 22 0 -2
BITMAP
007F80
0FFF80
0FFF80
0FDE00
003C00
01F000
07E7FC
1F9FFC
FEFFFC
FFFE00
FC7800
00F000
01E000
01C000
01C000
01C000
01E000
00F000
00FF80
007F80
001F80
000000
ENDCHAR

STARTCHAR jisx0208_243E
ENCODING 9278
SWIDTH 960 0
DWIDTH 22 0
BBX 22 22 0 -2
BITMAP
007F8C
0FFFBC
0FFFB4
0FDF38
003C18
01F000
07E7FC
1F9FFC
FEFFFC
FFFE00
FC7800
00F000
01E000
01C000
01C000
01C000
01E000
00F000
00FF80
007F80
001F80
000000
ENDCHAR

STARTCHAR jisx0208_243F
ENCODING 9279
SWIDTH 960 0
DWIDTH 22 0
BBX 22 22 0 -2
BITMAP
038000
038000
03F800
7FF800
7FF800
7F8000
070FF8
070FF8
0F0FF8
0E0000
0E0000
0E0000
1E1800
1C3C00
1C7C00
3C7800
387000
787800
787FFC
703FFC
301FFC
000000
ENDCHAR

STARTCHAR jisx0208_2440
ENCODING 9280
SWIDTH 960 0
DWIDTH 22 0
BBX 22 22 0 -2
BITMAP
03801C
03807C
03F86C
7FF870
7FF830
7F8000
070FF8
070FF8
0F0FF8
0E0000
0E0000
0E0000
1E1800
1C3C00
1C7C00
3C7800
387000
787800
787FFC
703FFC
301FFC
000000
ENDCHAR

STARTCHAR jisx0208_2441
ENCODING 9281
SWIDTH 960 0
DWIDTH 22 0
BBX 22 22 0 -2
BITMAP
01C000
01C000
03CF80
3FBF80
3FFF80
3FF800
038000
070000
073F80
0FFFE0
0EFFF0
1FE0F8
3F8078
3E0038
1C0038
000078
000078
0701F0
07FFE0
07FFC0
01FF00
000000
ENDCHAR

STARTCHAR jisx0208_2442
ENCODING 9282
SWIDTH 960 0
DWIDTH 22 0
BBX 22 22 0 -2
BITMAP
01C05C
01C07C
03CFEC
3FBFB0
3FFF80
3FF800
038000
070000
073F80
0FFFE0
0EFFF0
1FE0F8
3F8078
3E0038
1C0038
000078
000078
0701F0
07FFE0
07FFC0
01FF00
000000
ENDCHAR

STARTCHAR jisx0208_2443
ENCODING 9283
SWIDTH 960 0
DWIDTH 22 0
BBX 22 22 0 -2
BITMAP
000000
000000
000000
000000
000000
000000
007F80
3FFFE0
3FFFE0
3FC0F0
000070
000070
000070
0000F0
0000F0
0001E0
0007E0
00FFC0
00FF80
00FE00
000000
000000
ENDCHAR

STARTCHAR jisx0208_2444
ENCODING 9284
SWIDTH 960 0
DWIDTH 22 0
BBX 22 22 0 -2
BITMAP
000000
000000
000000
001FC0
03FFF0
FFFFF8
FFF078
FE003C
00001C
00001C
00001C
00001C
00001C
00003C
000078
0000F8
0007F0
00FFE0
00FF80
00FC00
000000
000000
ENDCHAR

STARTCHAR jisx0208_2445
ENCODING 9285
SWIDTH 960 0
DWIDTH 22 0
BBX 22 22 0 -2
BITMAP
00002C
00003C
000034
001FD8
03FFE0
FFFFF8
FFF078
FE003C
00001C
00001C
00001C
00001C
00001C
00003C
000078
0000F8
0007F0
00FFE0
00FF80
00FC00
000000
000000
ENDCHAR

STARTCHAR jisx0208_2446
ENCODING 9286
SWIDTH 960 0
DWIDTH 22 0
BBX 22 22 0 -2
BITMAP
000000
0003FC
00FFFC
7FFFFC
7FFF00
7F9C00
007800
00F000
00E000
01E000
01C000
01C000
01C000
01C000
01E000
01E000
00F000
00FC00
007FC0
003FC0
000FC0
000000
ENDCHAR

STARTCHAR jisx0208_2447
ENCODING 9287
SWIDTH 960 0
DWIDTH 22 0
BBX 22 22 0 -2
BITMAP
000000
0003FC
00FFFC
7FFFFC
7FFF00
7F9C18
00781C
00F07C
00E06C
01E070
01C030
01C000
01C000
01C000
01E000
01E000
00F000
00FC00
007FC0
003FC0
000FC0
000000
ENDCHAR

STARTCHAR jisx0208_2448
ENCODING 9288
SWIDTH 960 0
DWIDTH 22 0
BBX 22 22 0 -2
BITMAP
01C000
01C000
01C000
01C000
01C000
01C1E0
01CFE0
01FFE0
00FF00
03F800
07E000
0F8000
0F0000
1E0000
1C0000
1C0000
1C0000
1E00F0
0FFFF0
0FFFF0
03FF80
000000
ENDCHAR

STARTCHAR jisx0208_2449
ENCODING 9289
SWIDTH 960 0
DWIDTH 22 0
BBX 22 22 0 -2
BITMAP
01C038
01C0F8
01C0D8
01C0E0
01C060
01C180
01CFE0
01FFE0
00FF00
03F800
07E000
0F8000
0F0000
1E0000
1C0000
1C0000
1C0000
1E00F0
0FFFF0
0FFFF0
03FF80
000000
ENDCHAR

STARTCHAR jisx0208_244A
ENCODING 9290
SWIDTH 960 0
DWIDTH 22 0
BBX 22 22 0 -2
BITMAP
070000
070000
07F180
7EF3E0
7FF3F8
7F80FC
0E003C
1E0198
1C03C0
1C03C0
3C0380
380380
780380
78FF80
F1FF80
F3FFE0
E383F8
63C3FC
03FFBC
01FF98
007F00
000000
ENDCHAR

STARTCHAR jisx0208_244B
ENCODING 9291
SWIDTH 960 0
DWIDTH 22 0
BBX 22 22 0 -2
BITMAP
1C0000
1C0000
1C7FF8
3C7FF8
387FF8
380000
380000
380000
380000
380000
380000
383000
387800
38F800
38F000
38E000
38F000
3CFFFC
1C7FFC
1C3FFC
1C0000
000000
ENDCHAR

STARTCHAR jisx0208_244C
ENCODING 9292
SWIDTH 960 0
DWIDTH 22 0
BBX 22 22 0 -2
BITMAP
003800
003800
383800
387F80
39FFE0
3FFFF0
37F1F8
1F7078
3E703C
3CF03C
7EE01C
6EE01C
6FE01C
EDC01C
E7CFDC
E7DFFC
E39FF8
EFDC3C
FFDFFC
7ECFEC
3C07E0
000000
ENDCHAR

STARTCHAR jisx0208_244D
ENCODING 9293
SWIDTH 960 0
DWIDTH 22 0
BBX 22 22 0 -2
BITMAP
0E0000
0E0000
0F07E0
7F9FF8
7FFFF8
7F7C3C
0EF01C
0DE01C
0FC01C
1F801C
1F001C
3E001C
3E001C
7E0FDC
EE1FFC
EE1FF8
6E1C3C
0E1FFC
0E0FEC
0E07C0
0E0000
000000
ENDCHAR

STARTCHAR jisx0208_244E
ENCODING 9294
SWIDTH 960 0
DWIDTH 22 0
BBX 22 22 0 -2
BITMAP
000000
01FF00
07FFC0
0FFFE0
1F63F0
3E70F8
7C7078
78703C
F0F03C
F0E01C
E0E01C
E1E01C
E1C01C
E1C03C
E3C03C
F78078
FF80F8
7F03F0
3E0FE0
000FC0
000F00
000000
ENDCHAR

STARTCHAR jisx0208_244F
ENCODING 9295
SWIDTH 960 0
DWIDTH 22 0
BBX 22 22 0 -2
BITMAP
380380
380380
380380
7803FC
71FFFC
71FFFC
71FFC0
7001C0
7001C0
7001C0
7001C0
7001C0
7001C0
707FC0
70FFC0
71FFF0
71C1FC
79E1FC
39FFDC
38FFCC
383F80
000000
ENDCHAR

STARTCHAR jisx0208_2450
ENCODING 9296
SWIDTH 960 0
DWIDTH 22 0
BBX 22 22 0 -2
BITMAP
3803AC
3803BC
3803B4
7803D8
71FFFC
71FFFC
71FFC0
7001C0
7001C0
7001C0
7001C0
7001C0
7001C0
707FC0
70FFC0
71FFF0
71C1FC
79E1FC
39FFDC
38FFCC
383F80
000000
ENDCHAR

STARTCHAR jisx0208_2451
ENCODING 9297
SWIDTH 960 0
DWIDTH 22 0
BBX 22 22 0 -2
BITMAP
38037C
38036C
380364
7803FC
71FFFC
71FFFC
71FFC0
7001C0
7001C0
7001C0
7001C0
7001C0
7001C0
707FC0
70FFC0
71FFF0
71C1FC
79E1FC
39FFDC
38FFCC
383F80
000000
ENDCHAR

STARTCHAR jisx0208_2452
ENCODING 9298
SWIDTH 960 0
DWIDTH 22 0
BBX 22 22 0 -2
BITMAP
000000
00C180
7FE380
7FE3C0
7FC1C0
0781E0
1F01F0
1E01F0
3C01F8
3801BC
7801FC
7001DC
7001CC
7003C0
700380
700780
780F00
3C3F00
3FFE00
1FFC00
07F000
000000
ENDCHAR

STARTCHAR jisx0208_2453
ENCODING 9299
SWIDTH 960 0
DWIDTH 22 0
BBX 22 22 0 -2
BITMAP
00000C
00C1AC
7FE3BC
7FE3F4
7FC1D8
0781E0
1F01F0
1E01F0
3C01F8
3801BC
7801FC
7001DC
7001CC
7003C0
700380
700780
780F00
3C3F00
3FFE00
1FFC00
07F000
000000
ENDCHAR

STARTCHAR jisx0208_2454
ENCODING 9300
SWIDTH 960 0
DWIDTH 22 0
BBX 22 22 0 -2
BITMAP
00007C
00C16C
7FE364
7FE3FC
7FC1BC
0781C0
1F01F0
1E01F0
3C01F8
3801BC
7801FC
7001DC
7001CC
7003C0
700380
700780
780F00
3C3F00
3FFE00
1FFC00
07F000
000000
ENDCHAR

STARTCHAR jisx0208_2455
ENCODING 9301
SWIDTH 960 0
DWIDTH 22 0
BBX 22 22 0 -2
BITMAP
01F000
01FC00
007F00
001F00
000600
007000
007000
007000
007000
007000
007860
0C7CF0
0E3EF8
1E1F7C
1E0F3C
3C071C
7D871C
FBCF0C
F3FF0C
61FE00
00FC00
000000
ENDCHAR

STARTCHAR jisx0208_2456
ENCODING 9302
SWIDTH 960 0
DWIDTH 22 0
BBX 22 22 0 -2
BITMAP
01F01C
01FC7C
007F6C
001F70
000630
007000
007000
007000
007000
007000
007860
0C7CF0
0E3EF8
1E1F7C
1E0F3C
3C071C
7D871C
FBCF0C
F3FF0C
61FE00
00FC00
000000
ENDCHAR

STARTCHAR jisx0208_2457
ENCODING 9303
SWIDTH 960 0
DWIDTH 22 0
BBX 22 22 0 -2
BITMAP
01F000
01FC78
007EFC
001EDC
0006CC
0070FC
007078
007000
007000
007000
007860
0C7CF0
0E3EF8
1E1F7C
1E0F3C
3C071C
7D871C
FBCF0C
F3FF0C
61FE00
00FC00
000000
ENDCHAR

STARTCHAR jisx0208_2458
ENCODING 9304
SWIDTH 960 0
DWIDTH 22 0
BBX 22 22 0 -2
BITMAP
000000
000000
000000
000000
03C000
07E000
0FF000
1EF800
3E7C00
7C3F00
F81F80
F00FC0
6003E0
0001F8
0000FC
00007C
00001C
00000C
000000
000000
000000
000000
ENDCHAR

STARTCHAR jisx0208_2459
ENCODING 9305
SWIDTH 960 0
DWIDTH 22 0
BBX 22 22 0 -2
BITMAP
000000
000030
0001B8
0001F8
03C1D8
07E0C0
0FF000
1EF800
3E7C00
7C3F00
F81F80
F00FC0
6003E0
0001F8
0000FC
00007C
00001C
00000C
000000
000000
000000
000000
ENDCHAR

STARTCHAR jisx0208_245A
ENCODING 9306
SWIDTH 960 0
DWIDTH 22 0
BBX 22 22 0 -2
BITMAP
000000
000000
0000F0
0001F8
03C1B8
07E198
0FF1F8
1EF8F0
3E7C00
7C3F00
F81F80
F00FC0
6003E0
0001F8
0000FC
00007C
00001C
00000C
000000
000000
000000
000000
ENDCHAR

STARTCHAR jisx0208_245B
ENCODING 9307
SWIDTH 960 0
DWIDTH 22 0
BBX 22 22 0 -2
BITMAP
380000
39FFF8
39FFF8
79FFF8
7001C0
7001C0
7001C0
71FFFC
71FFFC
71FFFC
7001C0
7001C0
7001C0
707FC0
70FFC0
71FFF0
71C1FC
79E1FC
39FFDC
38FFCC
383F80
000000
ENDCHAR

STARTCHAR jisx0208_245C
ENCODING 9308
SWIDTH 960 0
DWIDTH 22 0
BBX 22 22 0 -2
BITMAP
38002C
39FFFC
39FFF4
79FFD8
7001C0
7001C0
7001C0
71FFFC
71FFFC
71FFFC
7001C0
7001C0
7001C0
707FC0
70FFC0
71FFF0
71C1FC
79E1FC
39FFDC
38FFCC
383F80
000000
ENDCHAR

STARTCHAR jisx0208_245D
ENCODING 9309
SWIDTH 960 0
DWIDTH 22 0
BBX 22 22 0 -2
BITMAP
38007C
39FFEC
39FFE4
79FFFC
7001BC
7001C0
7001C0
71FFFC
71FFFC
71FFFC
7001C0
7001C0
7001C0
707FC0
70FFC0
71FFF0
71C1FC
79E1FC
39FFDC
38FFCC
383F80
000000
ENDCHAR

STARTCHAR jisx0208_245E
ENCODING 9310
SWIDTH 960 0
DWIDTH 22 0
BBX 22 22 0 -2
BITMAP
003800
003800
0038F0
3FFFF0
3FFFF0
3FFF80
003800
0039E0
1FFFE0
1FFFE0
1FFF00
003800
003800
0FF800
1FFE00
3FFFC0
383FF0
3C7BF8
3FF8F8
1FF030
07E000
000000
ENDCHAR

STARTCHAR jisx0208_245F
ENCODING 9311
SWIDTH 960 0
DWIDTH 22 0
BBX 22 22 0 -2
BITMAP
007C00
0FFE00
0FFE00
0FDC00
003C00
003800
003870
007870
007070
07FC70
1FFF70
3FFFF0
7DC7F8
7BC0FC
F3807C
E780EC
EF01E0
FF03C0
FE07C0
7C1F80
001F00
001C00
ENDCHAR

STARTCHAR jisx0208_2460
ENCODING 9312
SWIDTH 960 0
DWIDTH 22 0
BBX 22 22 0 -2
BITMAP
038000
038000
03F8C0
7F79F0
7FF9F8
7FC0FC
07003C
3F001C
7F800C
738000
738000
778000
7F8060
3F00F0
1E00F8
0E0078
0E0038
0F0078
0FFFF8
07FFF0
03FFE0
000000
ENDCHAR

STARTCHAR jisx0208_2461
ENCODING 9313
SWIDTH 960 0
DWIDTH 22 0
BBX 22 22 0 -2
BITMAP
001C00
381C00
381C00
38FF80
3BFFE0
3FFFF0
1FB9F8
3E3878
3C783C
7E703C
6E701C
EEF01C
E6E01C
E7E03C
E3C03C
E3E078
E7E0F8
FEC3F0
7E1FE0
3C1FC0
001F00
000000
ENDCHAR

STARTCHAR jisx0208_2462
ENCODING 9314
SWIDTH 960 0
DWIDTH 22 0
BBX 22 22 0 -2
BITMAP
01C000
01C000
3DC000
3FFC00
3FFC00
07FC00
038000
038000
7B80C0
7FFDE0
7FFDE0
0FFCF0
070070
070078
070038
070038
070038
078078
03FFF0
03FFF0
00FFC0
000000
ENDCHAR

STARTCHAR jisx0208_2463
ENCODING 9315
SWIDTH 960 0
DWIDTH 22 0
BBX 22 22 0 -2
BITMAP
000000
000000
000000
000000
003800
073800
073FC0
075FE0
07FFF0
03FCF0
3FCE70
3F8E70
3DC0F0
01CFF0
01EFE0
00EFC0
00E000
00F000
007000
007000
007000
007000
ENDCHAR

STARTCHAR jisx0208_2464
ENCODING 9316
SWIDTH 960 0
DWIDTH 22 0
BBX 22 22 0 -2
BITMAP
003800
1C3C00
1C1FE0
1C7FF8
1DFFFC
0FFE3C
FFCF1C
FF070C
F7070C
07801C
03803C
0387FC
03C7F8
01C7E0
01C000
01E000
00E000
00E000
00F000
007000
007000
007000
ENDCHAR

STARTCHAR jisx0208_2465
ENCODING 9317
SWIDTH 960 0
DWIDTH 22 0
BBX 22 22 0 -2
BITMAP
000000
000000
000000
000000
003800
003800
0E3C00
0E1F00
1EFFC0
1DFFC0
1FDDE0
1BDCE0
1F9CE0
1F1CE0
1FDCE0
1EDDE0
1DFFC0
0EFFC0
0E3F00
00F800
00F000
006000
ENDCHAR

STARTCHAR jisx0208_2466
ENCODING 9318
SWIDTH 960 0
DWIDTH 22 0
BBX 22 22 0 -2
BITMAP
003C00
003E00
381E00
382FC0
38FFF0
39FFF8
7BE77C
77C71C
77871C
7F070C
6E070C
7E070C
7D870C
7FC71C
7BE71C
79F77C
78FFF8
387FF0
381FC0
38FC00
00F800
00E000
ENDCHAR

STARTCHAR jisx0208_2467
ENCODING 9319
SWIDTH 960 0
DWIDTH 22 0
BBX 22 22 0 -2
BITMAP
000000
000000
000000
000000
003800
003800
003800
003800
003FC0
003FC0
003FC0
003800
003800
003800
07F800
0FFE00
1FFF80
1C3FE0
1FFBE0
0FF8E0
07F000
000000
ENDCHAR

STARTCHAR jisx0208_2468
ENCODING 9320
SWIDTH 960 0
DWIDTH 22 0
BBX 22 22 0 -2
BITMAP
003800
003800
003800
003800
0038F0
003FF0
003FF0
003F80
003800
003800
003800
003800
003800
0FF800
1FFE00
3FFFC0
383FF0
3C7BF8
3FF8F8
1FF030
07E000
000000
ENDCHAR

STARTCHAR jisx0208_2469
ENCODING 9321
SWIDTH 960 0
DWIDTH 22 0
BBX 22 22 0 -2
BITMAP
03FC00
03FF00
003F00
000700
0E0000
0E0000
0E0000
1E7F80
1DFFE0
1FFFF0
1BC0F0
3F0078
3E0038
3C0038
180038
000078
0000F0
0003F0
01FFE0
01FF80
01FE00
000000
ENDCHAR

STARTCHAR jisx0208_246A
ENCODING 9322
SWIDTH 960 0
DWIDTH 22 0
BBX 22 22 0 -2
BITMAP
0E01C0
0E01C0
0E01C0
1E01E0
1C00E0
1C00E0
1D80E0
1DC0E0
1FC0E0
1B80E0
1F80E0
1F00E0
1F00E0
1E00E0
0E01E0
0E01E0
0003C0
0007C0
001F80
00FF00
00FE00
00F800
ENDCHAR

STARTCHAR jisx0208_246B
ENCODING 9323
SWIDTH 960 0
DWIDTH 22 0
BBX 22 22 0 -2
BITMAP
003F00
07FF80
07FF80
07EF00
001E00
007C00
00F800
01E780
03BFE0
07FFF0
0FE0F0
1F8078
3E0038
7C0038
79F038
33FC78
03FEF0
039FF0
03EFE0
01FFC0
00FF00
000000
ENDCHAR

STARTCHAR jisx0208_246C
ENCODING 9324
SWIDTH 960 0
DWIDTH 22 0
BBX 22 22 0 -2
BITMAP
0E0000
0E0000
0F0F80
7FBFC0
7FFFE0
7F78E0
0EF0E0
0DE0E0
0FC0E0
1F80E0
1F00E0
3E00E0
3E00E0
7E00E0
EE00EC
EE00FC
6E00DC
0E00FC
0E00F8
0E0070
0E0000
000000
ENDCHAR

STARTCHAR jisx0208_246D
ENCODING 9325
SWIDTH 960 0
DWIDTH 22 0
BBX 22 22 0 -2
BITMAP
003F00
07FF80
07FF80
07EF00
001E00
007C00
00F800
01E780
03BFE0
07FFF0
0FE0F0
1F8078
3E0038
7C0038
780038
300078
0000F0
0003F0
01FFE0
01FFC0
01FF00
000000
ENDCHAR

STARTCHAR jisx0208_246E
ENCODING 9326
SWIDTH 960 0
DWIDTH 22 0
BBX 22 22 0 -2
BITMAP
000000
000000
000000
000000
038000
038000
038000
03CF80
1FFFE0
1FBFE0
1F7CF0
03F070
07E070
07C070
0F8070
1F8070
3F80F0
3B81E0
1B8FE0
038FC0
038F00
038000
ENDCHAR

STARTCHAR jisx0208_246F
ENCODING 9327
SWIDTH 960 0
DWIDTH 22 0
BBX 22 22 0 -2
BITMAP
0E0000
0E0000
0F0000
7F8FC0
7FBFF0
7F7FF8
0EF878
0DE03C
0FC01C
1F801C
1F001C
3E001C
3E001C
7E003C
EE003C
EE0078
6E01F8
0E0FF0
0E0FE0
0E0F80
0E0000
000000
ENDCHAR

STARTCHAR jisx0208_2470
ENCODING 9328
SWIDTH 960 0
DWIDTH 22 0
BBX 22 22 0 -2
BITMAP
00FC00
0FFC00
0FFC00
0F9C00
003800
00FF80
03FFE0
07FFF0
0F70F8
1FF038
3EE03C
3DE01C
7BC01C
7BC01C
77BE1C
7F7FBC
6F7FB8
7E73F8
3C7DF0
003FE0
001F80
000000
ENDCHAR

STARTCHAR jisx0208_2471
ENCODING 9329
SWIDTH 960 0
DWIDTH 22 0
BBX 22 22 0 -2
BITMAP
00FE00
0FFE00
0FFE00
0FBC00
007A00
03FF80
0FFFC0
1F83C0
3E71C0
3DFBC0
1BBFC0
03F780
03FF00
05FC00
0FC3C0
1F0FF0
3FDFF8
7FFE7C
F9FC3C
F0F81C
60701C
000000
ENDCHAR

STARTCHAR jisx0208_2472
ENCODING 9330
SWIDTH 960 0
DWIDTH 22 0
BBX 22 22 0 -2
BITMAP
00E000
00E7C0
1FFFC0
1FFFC0
1FFC00
038000
07FC38
06FEFC
0FFFFC
1F8FE0
3E3F80
7CFE00
79FE00
33EE00
07CE00
078E00
070000
078078
07FFF8
03FFF8
01FFC0
000000
ENDCHAR

STARTCHAR jisx0208_2473
ENCODING 9331
SWIDTH 960 0
DWIDTH 22 0
BBX 22 22 0 -2
BITMAP
007800
007800
00F000
00F000
01E000
01E000
03C000
03C000
078000
07F800
0EFC00
0FFC1C
1F9C1C
1E1C1C
3C1C1C
3C1C3C
781C38
781C78
F01FF0
F00FE0
6007C0
000000
ENDCHAR

STARTCHAR jisx0208_2521
ENCODING 9505
SWIDTH 960 0
DWIDTH 22 0
BBX 22 22 0 -2
BITMAP
000000
000000
000000
000000
000000
0000C0
1FFFE0
1FFFF0
1FFFF0
0001E0
0077C0
007F80
006F00
007600
007000
00F000
00F000
01E000
03E000
07C000
078000
030000
ENDCHAR

STARTCHAR jisx0208_2522
ENCODING 9506
SWIDTH 960 0
DWIDTH 22 0
BBX 22 22 0 -2
BITMAP
000000
000030
7FFFF8
7FFFFC
7FFFFC
000078
0000F0
0071F0
0073E0
0077C0
007780
007300
007000
00F000
00E000
01E000
03C000
07C000
0F8000
1F0000
1E0000
0C0000
ENDCHAR

STARTCHAR jisx0208_2523
ENCODING 9507
SWIDTH 960 0
DWIDTH 22 0
BBX 22 22 0 -2
BITMAP
000000
000000
000000
000000
000180
0003C0
0007C0
000F80
001F00
003E00
00FC00
01FC00
07FC00
1FDC00
1F9C00
0E1C00
001C00
001C00
001C00
001C00
001C00
001C00
ENDCHAR

STARTCHAR jisx0208_2524
ENCODING 9508
SWIDTH 960 0
DWIDTH 22 0
BBX 22 22 0 -2
BITMAP
0000F0
0001F0
0003E0
0007C0
000F80
001F00
003E00
007E00
01FE00
03EE00
0FEE00
3F8E00
3F0E00
1C0E00
000E00
000E00
000E00
000E00
000E00
000E00
000E00
000E00
ENDCHAR

STARTCHAR jisx0208_2525
ENCODING 9509
SWIDTH 960 0
DWIDTH 22 0
BBX 22 22 0 -2
BITMAP
000000
000000
000000
000000
003800
003800
003800
0FFFE0
0FFFE0
0FFFE0
0E00E0
0E00E0
0E00E0
0E01E0
0E01E0
0003C0
0007C0
000F80
003F00
00FE00
00FC00
00F000
ENDCHAR

STARTCHAR jisx0208_2526
ENCODING 9510
SWIDTH 960 0
DWIDTH 22 0
BBX 22 22 0 -2
BITMAP
007000
007000
007000
3FFFF0
3FFFF0
3FFFF0
380070
380070
380070
380070
380070
3800F0
0000E0
0001E0
0003C0
0007C0
000F80
003F00
01FE00
01FC00
01F000
000000
ENDCHAR

STARTCHAR jisx0208_2527
ENCODING 9511
SWIDTH 960 0
DWIDTH 22 0
BBX 22 22 0 -2
BITMAP
000000
000000
000000
000000
000000
000000
000000
07FFC0
07FFC0
07FFC0
003800
003800
003800
003800
003800
003800
003800
1FFFF0
1FFFF0
1FFFF0
000000
000000
ENDCHAR

STARTCHAR jisx0208_2528
ENCODING 9512
SWIDTH 960 0
DWIDTH 22 0
BBX 22 22 0 -2
BITMAP
000000
000000
000000
1FFFF0
1FFFF0
1FFFF0
003800
003800
003800
003800
003800
003800
003800
003800
003800
003800
7FFFFC
7FFFFC
7FFFFC
000000
000000
000000
ENDCHAR

STARTCHAR jisx0208_2529
ENCODING 9513
SWIDTH 960 0
DWIDTH 22 0
BBX 22 22 0 -2
BITMAP
000000
000000
000000
000000
000E00
000E00
000E00
000E00
1FFFE0
1FFFE0
1FFFE0
003E00
00FE00
01EE00
03EE00
0FCE00
3F8E00
3F0E00
3C0E00
007E00
007E00
007C00
ENDCHAR

STARTCHAR jisx0208_252A
ENCODING 9514
SWIDTH 960 0
DWIDTH 22 0
BBX 22 22 0 -2
BITMAP
000700
000700
000700
000700
3FFFFC
3FFFFC
3FFFFC
001F00
007F00
00F700
01F700
03E700
07C700
1F8700
7F0700
7E0700
780700
000700
003F00
003F00
003E00
000000
ENDCHAR

STARTCHAR jisx0208_252B
ENCODING 9515
SWIDTH 960 0
DWIDTH 22 0
BBX 22 22 0 -2
BITMAP
00E000
00E000
00E000
00E000
3FFFF0
3FFFF0
3FFFF0
00E070
01E070
01E070
01C070
03C070
03C070
078070
0780F0
0F00F0
1F00E0
3E01E0
7C1FE0
781FC0
301F80
000000
ENDCHAR

STARTCHAR jisx0208_252C
ENCODING 9516
SWIDTH 960 0
DWIDTH 22 0
BBX 22 22 0 -2
BITMAP
00E05C
00E07C
00E06C
00E030
3FFFC0
3FFFF0
3FFFF0
00E070
01E070
01E070
01C070
03C070
03C070
078070
0780F0
0F00F0
1F00E0
3E01E0
7C1FE0
781FC0
301F80
000000
ENDCHAR

STARTCHAR jisx0208_252D
ENCODING 9517
SWIDTH 960 0
DWIDTH 22 0
BBX 22 22 0 -2
BITMAP
007000
007000
007000
007FE0
3FFFE0
3FFFE0
3FF000
007000
007000
007000
007FF8
7FFFF8
7FFFF8
7FF800
003800
003800
003800
003800
003800
003800
003800
003800
ENDCHAR

STARTCHAR jisx0208_252E
ENCODING 9518
SWIDTH 960 0
DWIDTH 22 0
BBX 22 22 0 -2
BITMAP
00702C
00703C
007034
007FD8
3FFFE0
3FFFE0
3FF000
007000
007000
007000
007FF8
7FFFF8
7FFFF8
7FF800
003800
003800
003800
003800
003800
003800
003800
003800
ENDCHAR

STARTCHAR jisx0208_252F
ENCODING 9519
SWIDTH 960 0
DWIDTH 22 0
BBX 22 22 0 -2
BITMAP
007000
00F000
00F060
01EFF0
03FFF8
07FFF8
0F8070
1F00F0
3E00F0
3C01E0
1803E0
0003C0
000780
000F80
001F00
003E00
007C00
01F800
07F000
07E000
078000
000000
ENDCHAR

STARTCHAR jisx0208_2530
ENCODING 9520
SWIDTH 960 0
DWIDTH 22 0
BBX 22 22 0 -2
BITMAP
00702C
00F03C
00F074
01EFD8
03FFF0
07FFF8
0F8070
1F00F0
3E00F0
3C01E0
1803E0
0003C0
000780
000F80
001F00
003E00
007C00
01F800
07F000
07E000
078000
000000
ENDCHAR

STARTCHAR jisx0208_2531
ENCODING 9521
SWIDTH 960 0
DWIDTH 22 0
BBX 22 22 0 -2
BITMAP
038000
038000
078000
070000
0FFFFC
0FFFFC
1FFFFC
3C0E00
7C0E00
F80E00
F00E00
600E00
001E00
001E00
003C00
007C00
00F800
03F000
07E000
07C000
030000
000000
ENDCHAR

STARTCHAR jisx0208_2532
ENCODING 9522
SWIDTH 960 0
DWIDTH 22 0
BBX 22 22 0 -2
BITMAP
03805C
03807C
07806C
070030
0FFFCC
0FFFFC
1FFFFC
3C0E00
7C0E00
F80E00
F00E00
600E00
001E00
001E00
003C00
007C00
00F800
03F000
07E000
07C000
030000
000000
ENDCHAR

STARTCHAR jisx0208_2533
ENCODING 9523
SWIDTH 960 0
DWIDTH 22 0
BBX 22 22 0 -2
BITMAP
000000
000000
000000
1FFFF0
1FFFF0
1FFFF0
000070
000070
000070
000070
000070
000070
000070
000070
000070
000070
1FFFF0
1FFFF0
1FFFF0
000070
000000
000000
ENDCHAR

STARTCHAR jisx0208_2534
ENCODING 9524
SWIDTH 960 0
DWIDTH 22 0
BBX 22 22 0 -2
BITMAP
00005C
00007C
00006C
1FFFB0
1FFFF0
1FFFF0
000070
000070
000070
000070
000070
000070
000070
000070
000070
000070
1FFFF0
1FFFF0
1FFFF0
000070
000000
000000
ENDCHAR

STARTCHAR jisx0208_2535
ENCODING 9525
SWIDTH 960 0
DWIDTH 22 0
BBX 22 22 0 -2
BITMAP
070380
070380
070380
070380
070380
FFFFFC
FFFFFC
FFFFFC
070380
070380
070380
070380
070380
000780
000780
000F00
001F00
007E00
01FC00
01F800
01E000
000000
ENDCHAR

STARTCHAR jisx0208_2536
ENCODING 9526
SWIDTH 960 0
DWIDTH 22 0
BBX 22 22 0 -2
BITMAP
07035C
07037C
0703EC
0703B0
070380
FFFFFC
FFFFFC
FFFFFC
070380
070380
070380
070380
070380
000780
000780
000F00
001F00
007E00
01FC00
01F800
01E000
000000
ENDCHAR

STARTCHAR jisx0208_2537
ENCODING 9527
SWIDTH 960 0
DWIDTH 22 0
BBX 22 22 0 -2
BITMAP
000000
060000
0F8000
0FC000
07E000
01E000
30C038
7C0038
7E0078
3F0078
0F00F0
0601F0
0003E0
0007C0
000F80
003F00
007E00
03FC00
1FF000
1FE000
1F0000
000000
ENDCHAR

STARTCHAR jisx0208_2538
ENCODING 9528
SWIDTH 960 0
DWIDTH 22 0
BBX 22 22 0 -2
BITMAP
00005C
06007C
0F806C
0FC030
07E000
01E000
30C038
7C0038
7E0078
3F0078
0F00F0
0601F0
0003E0
0007C0
000F80
003F00
007E00
03FC00
1FF000
1FE000
1F0000
000000
ENDCHAR

STARTCHAR jisx0208_2539
ENCODING 9529
SWIDTH 960 0
DWIDTH 22 0
BBX 22 22 0 -2
BITMAP
000000
000180
1FFFC0
1FFFE0
1FFFE0
0001C0
0003C0
000780
000780
000F00
001F00
003E00
007F80
00F7C0
03F3E0
07E1F0
1FC0F0
7F0078
7E0078
780030
000000
000000
ENDCHAR

STARTCHAR jisx0208_253A
ENCODING 9530
SWIDTH 960 0
DWIDTH 22 0
BBX 22 22 0 -2
BITMAP
00002C
0001BC
1FFFF4
1FFFD8
1FFFE0
0001C0
0003C0
000780
000780
000F00
001F00
003E00
007F80
00F7C0
03F3E0
07E1F0
1FC0F0
7F0078
7E0078
780030
000000
000000
ENDCHAR

STARTCHAR jisx0208_253B
ENCODING 9531
SWIDTH 960 0
DWIDTH 22 0
BBX 22 22 0 -2
BITMAP
038000
038000
038000
038030
0387F8
03FFFC
7FFFFC
7FFC38
7F80F8
0381F0
0383E0
0387C0
038780
038300
038000
038000
03C000
03FFF0
01FFF0
00FFF0
000000
000000
ENDCHAR

STARTCHAR jisx0208_253C
ENCODING 9532
SWIDTH 960 0
DWIDTH 22 0
BBX 22 22 0 -2
BITMAP
03802C
03803C
038034
038018
0387F0
03FFFC
7FFFFC
7FFC38
7F80F8
0381F0
0383E0
0387C0
038780
038300
038000
038000
03C000
03FFF0
01FFF0
00FFF0
000000
000000
ENDCHAR

STARTCHAR jisx0208_253D
ENCODING 9533
SWIDTH 960 0
DWIDTH 22 0
BBX 22 22 0 -2
BITMAP
000000
000000
180000
3C0038
3E0038
1F0038
0F0078
078078
078070
0300F0
0001F0
0001E0
0003C0
0007C0
000F80
001F00
007E00
01FC00
07F800
07E000
078000
000000
ENDCHAR

STARTCHAR jisx0208_253E
ENCODING 9534
SWIDTH 960 0
DWIDTH 22 0
BBX 22 22 0 -2
BITMAP
00007C
00007C
18002C
3C0010
3E0038
1F0038
0F0078
078078
078070
0300F0
0001F0
0001E0
0003C0
0007C0
000F80
001F00
007E00
01FC00
07F800
07E000
078000
000000
ENDCHAR

STARTCHAR jisx0208_253F
ENCODING 9535
SWIDTH 960 0
DWIDTH 22 0
BBX 22 22 0 -2
BITMAP
007000
00F000
00F060
01EFF0
03FFF8
07FFF8
0F8070
1F00F0
3EC0F0
3DF1E0
19F9E0
00FBC0
003FC0
001F80
000F00
003FC0
007BC0
01F980
0FF000
0FE000
0F8000
000000
ENDCHAR

STARTCHAR jisx0208_2540
ENCODING 9536
SWIDTH 960 0
DWIDTH 22 0
BBX 22 22 0 -2
BITMAP
00706C
00F07C
00F034
01EFE0
03FFF8
07FFF8
0F8070
1F00F0
3EC0F0
3DF1E0
19F9E0
00FBC0
003FC0
001F80
000F00
003FC0
007BC0
01F980
0FF000
0FE000
0F8000
000000
ENDCHAR

STARTCHAR jisx0208_2541
ENCODING 9537
SWIDTH 960 0
DWIDTH 22 0
BBX 22 22 0 -2
BITMAP
0001E0
001FE0
1FFFE0
1FFF00
1FFC00
001C00
001C00
001C00
7FFFFC
7FFFFC
7FFFFC
001C00
001C00
003C00
003C00
007800
00F800
03F000
07E000
07C000
030000
000000
ENDCHAR

STARTCHAR jisx0208_2542
ENCODING 9538
SWIDTH 960 0
DWIDTH 22 0
BBX 22 22 0 -2
BITMAP
0001E0
001FF8
1FFFDC
1FFF3C
1FFC2C
001C38
001C18
001C00
7FFFFC
7FFFFC
7FFFFC
001C00
001C00
003C00
003C00
007800
00F800
03F000
07E000
07C000
030000
000000
ENDCHAR

STARTCHAR jisx0208_2543
ENCODING 9539
SWIDTH 960 0
DWIDTH 22 0
BBX 22 22 0 -2
BITMAP
000000
000000
000000
000000
000000
006000
0CF000
1EF0E0
1E78E0
0F78E0
0F39E0
0731E0
0603C0
0007C0
000F80
001F00
003E00
00FC00
07F800
07F000
07C000
000000
ENDCHAR

STARTCHAR jisx0208_2544
ENCODING 9540
SWIDTH 960 0
DWIDTH 22 0
BBX 22 22 0 -2
BITMAP
000000
006000
18E000
38F038
3CF038
3C7838
1E7878
1E3878
0E3070
0C00F0
0001F0
0001E0
0003C0
0007C0
000F80
001F00
007E00
01FC00
07F800
07E000
078000
000000
ENDCHAR

STARTCHAR jisx0208_2545
ENCODING 9541
SWIDTH 960 0
DWIDTH 22 0
BBX 22 22 0 -2
BITMAP
00006C
00607C
18E034
38F008
3CF038
3C7838
1E7878
1E3878
0E3070
0C00F0
0001F0
0001E0
0003C0
0007C0
000F80
001F00
007E00
01FC00
07F800
07E000
078000
000000
ENDCHAR

STARTCHAR jisx0208_2546
ENCODING 9542
SWIDTH 960 0
DWIDTH 22 0
BBX 22 22 0 -2
BITMAP
000000
07FFE0
07FFE0
07FFE0
000000
000000
000000
3FFFFC
3FFFFC
3FFFFC
001C00
001C00
001C00
003C00
003C00
007800
00F800
03F000
07E000
07C000
030000
000000
ENDCHAR

STARTCHAR jisx0208_2547
ENCODING 9543
SWIDTH 960 0
DWIDTH 22 0
BBX 22 22 0 -2
BITMAP
00002C
07FFBC
07FFF4
07FFD8
000000
000000
000000
3FFFFC
3FFFFC
3FFFFC
001C00
001C00
001C00
003C00
003C00
007800
00F800
03F000
07E000
07C000
030000
000000
ENDCHAR

STARTCHAR jisx0208_2548
ENCODING 9544
SWIDTH 960 0
DWIDTH 22 0
BBX 22 22 0 -2
BITMAP
01C000
01C000
01C000
01C000
01C000
01C000
01F000
01BC00
01FF00
01BF80
01CFC0
01C3C0
01C180
01C000
01C000
01C000
01C000
01C000
01C000
01C000
01C000
01C000
ENDCHAR

STARTCHAR jisx0208_2549
ENCODING 9545
SWIDTH 960 0
DWIDTH 22 0
BBX 22 22 0 -2
BITMAP
01C070
01C1F0
01C1B0
01C1C0
01C0C0
01C000
01F000
01BC00
01FF00
01BF80
01CFC0
01C3C0
01C180
01C000
01C000
01C000
01C000
01C000
01C000
01C000
01C000
01C000
ENDCHAR

STARTCHAR jisx0208_254A
ENCODING 9546
SWIDTH 960 0
DWIDTH 22 0
BBX 22 22 0 -2
BITMAP
001C00
001C00
001C00
001C00
001C00
3FFFFC
3FFFFC
3FFFFC
001C00
001C00
001C00
001C00
003C00
003C00
007800
00F800
01F000
07E000
0FC000
0F8000
060000
000000
ENDCHAR

STARTCHAR jisx0208_254B
ENCODING 9547
SWIDTH 960 0
DWIDTH 22 0
BBX 22 22 0 -2
BITMAP
000000
000000
000000
0FFFE0
0FFFE0
0FFFE0
000000
000000
000000
000000
000000
000000
000000
000000
000000
000000
7FFFFC
7FFFFC
7FFFFC
000000
000000
000000
ENDCHAR

STARTCHAR jisx0208_254C
ENCODING 9548
SWIDTH 960 0
DWIDTH 22 0
BBX 22 22 0 -2
BITMAP
000000
0000C0
0FFFE0
0FFFF0
0FFFF0
0000E0
0001E0
0001E0
0383C0
07E3C0
07F780
01FF80
007F00
001E80
007FC0
01FBE0
03F1E0
0FE0C0
3F8000
3F0000
3C0000
000000
ENDCHAR

STARTCHAR jisx0208_254D
ENCODING 9549
SWIDTH 960 0
DWIDTH 22 0
BBX 22 22 0 -2
BITMAP
01FE00
01FE00
001E00
000100
0FFF80
0FFFC0
0FFFC0
000780
001F00
003E00
00FD80
01FBE0
07FBF0
1FB9F8
7FB87C
7E383C
383818
003800
003800
003800
003800
003800
ENDCHAR

STARTCHAR jisx0208_254E
ENCODING 9550
SWIDTH 960 0
DWIDTH 22 0
BBX 22 22 0 -2
BITMAP
000000
000070
000070
000070
0000F0
0000F0
0001E0
0003E0
0003C0
000780
000F80
001F00
003E00
007C00
01F800
03F000
0FE000
3F8000
3F0000
3C0000
000000
000000
ENDCHAR

STARTCHAR jisx0208_254F
ENCODING 9551
SWIDTH 960 0
DWIDTH 22 0
BBX 22 22 0 -2
BITMAP
000000
000000
000000
01C000
01C300
01C780
03C7C0
03C3E0
0381E0
0780F0
0780F8
0F0078
1F003C
1E003C
3C001C
7C001C
F8000C
F0000C
60000C
000000
000000
000000
ENDCHAR

STARTCHAR jisx0208_2550
ENCODING 9552
SWIDTH 960 0
DWIDTH 22 0
BBX 22 22 0 -2
BITMAP
000030
000038
000078
01C058
01C370
01C7B0
03C7C0
03C3E0
0381E0
0780F0
0780F8
0F0078
1F003C
1E003C
3C001C
7C001C
F8000C
F0000C
60000C
000000
000000
000000
ENDCHAR

STARTCHAR jisx0208_2551
ENCODING 9553
SWIDTH 960 0
DWIDTH 22 0
BBX 22 22 0 -2
BITMAP
00003C
00007C
00006C
01C064
01C37C
01C7BC
03C7C0
03C3E0
0381E0
0780F0
0780F8
0F0078
1F003C
1E003C
3C001C
7C001C
F8000C
F0000C
60000C
000000
000000
000000
ENDCHAR

STARTCHAR jisx0208_2552
ENCODING 9554
SWIDTH 960 0
DWIDTH 22 0
BBX 22 22 0 -2
BITMAP
0E0000
0E0000
0E0000
0E0000
0E00E0
0E07F0
0E3FF0
0FFFC0
0FFE00
0FE000
0E0000
0E0000
0E0000
0E0000
0E0000
0E0000
0F0000
0FFFF0
07FFF0
03FFF0
000000
000000
ENDCHAR

STARTCHAR jisx0208_2553
ENCODING 9555
SWIDTH 960 0
DWIDTH 22 0
BBX 22 22 0 -2
BITMAP
0E005C
0E007C
0E006C
0E0030
0E00C0
0E07F0
0E3FF0
0FFFC0
0FFE00
0FE000
0E0000
0E0000
0E0000
0E0000
0E0000
0E0000
0F0000
0FFFF0
07FFF0
03FFF0
000000
000000
ENDCHAR

STARTCHAR jisx0208_2554
ENCODING 9556
SWIDTH 960 0
DWIDTH 22 0
BBX 22 22 0 -2
BITMAP
0E007C
0E006C
0E0064
0E007C
0E00BC
0E07E0
0E3FF0
0FFFC0
0FFE00
0FE000
0E0000
0E0000
0E0000
0E0000
0E0000
0E0000
0F0000
0FFFF0
07FFF0
03FFF0
000000
000000
ENDCHAR

STARTCHAR jisx0208_2555
ENCODING 9557
SWIDTH 960 0
DWIDTH 22 0
BBX 22 22 0 -2
BITMAP
000000
000000
000060
3FFFF0
3FFFF8
3FFFF8
000070
0000F0
0000F0
0000E0
0001E0
0001E0
0003C0
0007C0
000F80
001F00
007E00
01FC00
07F800
07E000
078000
000000
ENDCHAR

STARTCHAR jisx0208_2556
ENCODING 9558
SWIDTH 960 0
DWIDTH 22 0
BBX 22 22 0 -2
BITMAP
00003C
00003C
000054
3FFFE0
3FFFF8
3FFFF8
000070
0000F0
0000F0
0000E0
0001E0
0001E0
0003C0
0007C0
000F80
001F00
007E00
01FC00
07F800
07E000
078000
000000
ENDCHAR

STARTCHAR jisx0208_2557
ENCODING 9559
SWIDTH 960 0
DWIDTH 22 0
BBX 22 22 0 -2
BITMAP
00007C
00006C
000064
3FFFFC
3FFFFC
3FFFF0
000070
0000F0
0000F0
0000E0
0001E0
0001E0
0003C0
0007C0
000F80
001F00
007E00
01FC00
07F800
07E000
078000
000000
ENDCHAR

STARTCHAR jisx0208_2558
ENCODING 9560
SWIDTH 960 0
DWIDTH 22 0
BBX 22 22 0 -2
BITMAP
000000
000000
000000
000000
01C000
03E000
07F000
0FF800
1F7C00
3E3F00
7C1F80
F80FC0
F003E0
6001F8
0000FC
00007C
00001C
00000C
000000
000000
000000
000000
ENDCHAR

STARTCHAR jisx0208_2559
ENCODING 9561
SWIDTH 960 0
DWIDTH 22 0
BBX 22 22 0 -2
BITMAP
000000
000000
0000C0
0000E0
01C3E0
03E360
07F380
0FF980
1F7C00
3E3F00
7C1F80
F80FC0
F003E0
6001F8
0000FC
00007C
00001C
00000C
000000
000000
000000
000000
ENDCHAR

STARTCHAR jisx0208_255A
ENCODING 9562
SWIDTH 960 0
DWIDTH 22 0
BBX 22 22 0 -2
BITMAP
000000
000000
0001E0
0003F0
01C370
03E330
07F3F0
0FF9E0
1F7C00
3E3F00
7C1F80
F80FC0
F003E0
6001F8
0000FC
00007C
00001C
00000C
000000
000000
000000
000000
ENDCHAR

STARTCHAR jisx0208_255B
ENCODING 9563
SWIDTH 960 0
DWIDTH 22 0
BBX 22 22 0 -2
BITMAP
003800
003800
003800
003800
7FFFFC
7FFFFC
7FFFFC
003800
0E38C0
0E39E0
1E39F0
1E38F0
3C3878
3C3878
78383C
F8383C
F0381C
603818
01F800
01F800
01F000
000000
ENDCHAR

STARTCHAR jisx0208_255C
ENCODING 9564
SWIDTH 960 0
DWIDTH 22 0
BBX 22 22 0 -2
BITMAP
00385C
00387C
00386C
003830
7FFFCC
7FFFFC
7FFFFC
003800
0E38C0
0E39E0
1E39F0
1E38F0
3C3878
3C3878
78383C
F8383C
F0381C
603818
01F800
01F800
01F000
000000
ENDCHAR

STARTCHAR jisx0208_255D
ENCODING 9565
SWIDTH 960 0
DWIDTH 22 0
BBX 22 22 0 -2
BITMAP
0038FC
0038DC
0038CC
0038FC
7FFF78
7FFFFC
7FFFFC
003800
0E38C0
0E39E0
1E39F0
1E38F0
3C3878
3C3878
78383C
F8383C
F0381C
603818
01F800
01F800
01F000
000000
ENDCHAR

STARTCHAR jisx0208_255E
ENCODING 9566
SWIDTH 960 0
DWIDTH 22 0
BBX 22 22 0 -2
BITMAP
000000
000000
000030
7FFFF8
7FFFFC
7FFFFC
000078
0000F0
0001F0
0003E0
0307C0
078F80
07DF00
03FE00
01FC00
00F800
007C00
003C00
001E00
001E00
000C00
000000
ENDCHAR

STARTCHAR jisx0208_255F
ENCODING 9567
SWIDTH 960 0
DWIDTH 22 0
BBX 22 22 0 -2
BITMAP
000000
03F000
03FE00
03FF80
003FC0
0007C0
000180
03E000
03FC00
03FF00
007F80
000F80
000300
000000
1F0000
1FE000
1FFC00
03FF00
007FC0
000FE0
0003E0
0000C0
ENDCHAR

STARTCHAR jisx0208_2560
ENCODING 9568
SWIDTH 960 0
DWIDTH 22 0
BBX 22 22 0 -2
BITMAP
000000
003800
003800
007800
007800
007000
00F000
00F000
01E000
01E000
03C180
03C3C0
0783E0
0781F0
0F00F0
0F1F78
7EFFF8
7FFFFC
3FF03C
30001C
000018
000000
ENDCHAR

STARTCHAR jisx0208_2561
ENCODING 9569
SWIDTH 960 0
DWIDTH 22 0
BBX 22 22 0 -2
BITMAP
000000
0000E0
0000E0
0001E0
0001E0
0003C0
01C3C0
03F780
03FF80
00FF00
003E00
001F80
007FC0
00FBE0
03F1E0
07E0C0
1FC000
7F0000
7E0000
780000
000000
000000
ENDCHAR

STARTCHAR jisx0208_2562
ENCODING 9570
SWIDTH 960 0
DWIDTH 22 0
BBX 22 22 0 -2
BITMAP
000000
000000
1FFFE0
1FFFE0
1FFFE0
00E000
00E000
00E000
7FFFFC
7FFFFC
7FFFFC
00E000
00E000
00E000
00E000
00E000
00E000
00FFF0
00FFF0
007FF0
000000
000000
ENDCHAR

STARTCHAR jisx0208_2563
ENCODING 9571
SWIDTH 960 0
DWIDTH 22 0
BBX 22 22 0 -2
BITMAP
000000
000000
000000
000000
01C000
01C000
01C000
01C0C0
01DFE0
03FFF0
3FFFF0
3FF1E0
3EE7C0
00EF80
00EF00
00F600
007000
007000
007000
007000
007000
007000
ENDCHAR

STARTCHAR jisx0208_2564
ENCODING 9572
SWIDTH 960 0
DWIDTH 22 0
BBX 22 22 0 -2
BITMAP
01C000
01C000
01C000
01C018
01E7FC
02FFFC
FFFFFC
FFFC3C
FEE078
00E0F8
00F1F0
0073E0
0073C0
007180
007000
007800
003800
003800
003800
003800
003800
003800
ENDCHAR

STARTCHAR jisx0208_2565
ENCODING 9573
SWIDTH 960 0
DWIDTH 22 0
BBX 22 22 0 -2
BITMAP
000000
000000
000000
000000
000000
000000
000000
0FFF00
0FFF00
0FFF00
000700
000700
000700
000F00
000E00
000E00
000E00
3FFFF0
3FFFF0
3FFFF0
000000
000000
ENDCHAR

STARTCHAR jisx0208_2566
ENCODING 9574
SWIDTH 960 0
DWIDTH 22 0
BBX 22 22 0 -2
BITMAP
000000
000000
000000
1FFF80
1FFF80
1FFF80
000380
000380
000380
000380
000380
000780
000700
000700
000700
000700
FFFFFC
FFFFFC
FFFFFC
000000
000000
000000
ENDCHAR

STARTCHAR jisx0208_2567
ENCODING 9575
SWIDTH 960 0
DWIDTH 22 0
BBX 22 22 0 -2
BITMAP
000000
000000
000000
000000
000000
000000
07FFC0
07FFC0
07FFC0
0001C0
0001C0
03FFC0
03FFC0
03FFC0
0001C0
0001C0
0001C0
07FFC0
07FFC0
07FFC0
0001C0
000000
ENDCHAR

STARTCHAR jisx0208_2568
ENCODING 9576
SWIDTH 960 0
DWIDTH 22 0
BBX 22 22 0 -2
BITMAP
000000
000000
1FFFE0
1FFFE0
1FFFE0
0000E0
0000E0
0000E0
0000E0
0FFFE0
0FFFE0
0FFFE0
0000E0
0000E0
0000E0
0000E0
0000E0
1FFFE0
1FFFE0
1FFFE0
0000E0
000000
ENDCHAR

STARTCHAR jisx0208_2569
ENCODING 9577
SWIDTH 960 0
DWIDTH 22 0
BBX 22 22 0 -2
BITMAP
000000
0FFFC0
0FFFC0
0FFFC0
000000
000060
3FFFF0
3FFFF8
3FFFF8
000070
0000F0
0000E0
0001E0
0003C0
0007C0
000F80
001F00
007E00
03FC00
03F800
03E000
000000
ENDCHAR

STARTCHAR jisx0208_256A
ENCODING 9578
SWIDTH 960 0
DWIDTH 22 0
BBX 22 22 0 -2
BITMAP
0E01C0
0E01C0
0E01C0
0E01C0
0E01C0
0E01C0
0E01C0
0E01C0
0E01C0
0E01C0
0E01C0
0E01C0
0E01C0
0003C0
0003C0
000780
000F80
003F00
01FE00
01FC00
01F000
000000
ENDCHAR

STARTCHAR jisx0208_256B
ENCODING 9579
SWIDTH 960 0
DWIDTH 22 0
BBX 22 22 0 -2
BITMAP
000000
001C00
071C00
071C00
071C00
071C00
071C00
071C00
071C00
071C00
071C0C
0F1C1C
0F1C3C
0E1C7C
1E1CF8
1E1FF0
3C3BE0
7C3FC0
F81F00
F00C00
600000
000000
ENDCHAR

STARTCHAR jisx0208_256C
ENCODING 9580
SWIDTH 960 0
DWIDTH 22 0
BBX 22 22 0 -2
BITMAP
000000
0E0000
0E0000
0E0000
0E0000
0E0000
0E0000
0E0000
0E0000
0E0000
0E0030
0E0078
0E00F8
0E03F0
0E07E0
0E1FC0
0EFF00
1FFE00
1FF800
0FC000
060000
000000
ENDCHAR

STARTCHAR jisx0208_256D
ENCODING 9581
SWIDTH 960 0
DWIDTH 22 0
BBX 22 22 0 -2
BITMAP
000000
000000
000000
1FFFF0
1FFFF0
1FFFF0
1C0070
1C0070
1C0070
1C0070
1C0070
1C0070
1C0070
1C0070
1C0070
1C0070
1FFFF0
1FFFF0
1FFFF0
1C0070
000000
000000
ENDCHAR

STARTCHAR jisx0208_256E
ENCODING 9582
SWIDTH 960 0
DWIDTH 22 0
BBX 22 22 0 -2
BITMAP
000000
000000
000000
000000
000000
000000
0FFFC0
0FFFC0
0FFFC0
0E01C0
0E01C0
0E01C0
0E01C0
0E03C0
0E03C0
000780
000F80
003F00
00FE00
00FC00
00F000
000000
ENDCHAR

STARTCHAR jisx0208_256F
ENCODING 9583
SWIDTH 960 0
DWIDTH 22 0
BBX 22 22 0 -2
BITMAP
000000
000000
3FFFF0
3FFFF0
3FFFF0
380070
380070
380070
380070
380070
380070
3800F0
0000E0
0001E0
0003C0
0007C0
000F80
003F00
01FE00
01FC00
01F000
000000
ENDCHAR

STARTCHAR jisx0208_2570
ENCODING 9584
SWIDTH 960 0
DWIDTH 22 0
BBX 22 22 0 -2
BITMAP
001C00
001C00
001C00
1FFFF0
1FFFF0
1FFFF0
1C1C00
1C1C00
1C1C00
1C1C00
1C1C00
1C1C00
FFFFFC
FFFFFC
FFFFFC
001C00
001C00
001C00
001C00
001C00
001C00
001C00
ENDCHAR

STARTCHAR jisx0208_2571
ENCODING 9585
SWIDTH 960 0
DWIDTH 22 0
BBX 22 22 0 -2
BITMAP
000000
000000
0000C0
0FFFE0
0FFFF0
0FFFF0
0001E0
0007C0
000F80
003F00
003E00
003C00
003800
003800
003800
003800
7FFFFC
7FFFFC
7FFFFC
000000
000000
000000
ENDCHAR

STARTCHAR jisx0208_2572
ENCODING 9586
SWIDTH 960 0
DWIDTH 22 0
BBX 22 22 0 -2
BITMAP
000000
0000C0
3FFFE0
3FFFF0
3FFFF0
0000E0
0000E0
0000E0
1FFFE0
1FFFE0
1FFFC0
0001C0
0003C0
000780
000F80
001F00
003E00
00FC00
07F800
07F000
07C000
000000
ENDCHAR

STARTCHAR jisx0208_2573
ENCODING 9587
SWIDTH 960 0
DWIDTH 22 0
BBX 22 22 0 -2
BITMAP
000000
180000
3E0000
3F0000
1F8000
078038
030038
000078
000078
0000F0
0001F0
0003E0
0007C0
000F80
003F00
007E00
03FC00
1FF000
1FE000
1F0000
000000
000000
ENDCHAR

STARTCHAR jisx0208_2574
ENCODING 9588
SWIDTH 960 0
DWIDTH 22 0
BBX 22 22 0 -2
BITMAP
00702C
00703C
007034
3FFFD8
3FFFF0
3FFFF0
380070
380070
380070
380070
380070
3800F0
0000E0
0001E0
0003C0
0007C0
000F80
003F00
01FE00
01FC00
01F000
000000
ENDCHAR

STARTCHAR jisx0208_2575
ENCODING 9589
SWIDTH 960 0
DWIDTH 22 0
BBX 22 22 0 -2
BITMAP
000000
000000
000000
000000
00E000
00E000
00E000
00E000
1FFFC0
1FFFC0
1FFFC0
00E1C0
01E1C0
01E1C0
01C1C0
03C1C0
03C1C0
0781C0
0F83C0
1F1F80
1E1F80
0C1F00
ENDCHAR

STARTCHAR jisx0208_2576
ENCODING 9590
SWIDTH 960 0
DWIDTH 22 0
BBX 22 22 0 -2
BITMAP
000000
000000
000000
000000
01C000
01C000
01C000
03C000
03BFF0
07FFF0
0FFFF0
1F0E00
3E0E00
3C0E00
181E00
001E00
003C00
007C00
01F800
03F000
03E000
018000
ENDCHAR

STARTCHAR jisx0208_2621
ENCODING 9761
SWIDTH 960 0
DWIDTH 22 0
BBX 22 22 0 -2
BITMAP
000000
003800
003800
007C00
007C00
00FE00
00EE00
00EE00
01EF00
01C700
03C780
038380
0783C0
077DC0
07FFC0
0FFFE0
0E00E0
1E00F0
1C0070
1C0070
000000
000000
ENDCHAR

STARTCHAR jisx0208_2622
ENCODING 9762
SWIDTH 960 0
DWIDTH 22 0
BBX 22 22 0 -2
BITMAP
000000
0FFE00
0FFF80
0FFF80
0E03C0
0E01C0
0E01C0
0E03C0
0FFF80
0FFF00
0FFFC0
0E03C0
0E01E0
0E00E0
0E00E0
0E00E0
0E01E0
0FFFC0
0FFFC0
0FFF00
000000
000000
ENDCHAR

STARTCHAR jisx0208_2623
ENCODING 9763
SWIDTH 960 0
DWIDTH 22 0
BBX 22 22 0 -2
BITMAP
000000
07FFE0
07FFE0
07FFE0
070000
070000
070000
070000
070000
070000
070000
070000
070000
070000
070000
070000
070000
070000
070000
070000
000000
000000
ENDCHAR

STARTCHAR jisx0208_2624
ENCODING 9764
SWIDTH 960 0
DWIDTH 22 0
BBX 22 22 0 -2
BITMAP
000000
003800
003800
007C00
007C00
00FE00
00EE00
01EF00
01C700
01C700
03C780
038380
0783C0
0701C0
0F01E0
0E00E0
1E00F0
1DFF70
1FFFF0
1FFFF0
000000
000000
ENDCHAR

STARTCHAR jisx0208_2625
ENCODING 9765
SWIDTH 960 0
DWIDTH 22 0
BBX 22 22 0 -2
BITMAP
000000
07FFE0
07FFE0
07FFE0
070000
070000
070000
070000
07FF80
07FF80
07FF80
070000
070000
070000
070000
070000
070000
07FFE0
07FFE0
07FFE0
000000
000000
ENDCHAR

STARTCHAR jisx0208_2626
ENCODING 9766
SWIDTH 960 0
DWIDTH 22 0
BBX 22 22 0 -2
BITMAP
000000
07FFC0
07FFC0
07FFC0
000380
000F00
000F00
001E00
003C00
003C00
007800
00F000
00F000
01E000
03C000
03C000
078000
0F7FC0
0FFFC0
0FFFC0
000000
000000
ENDCHAR

STARTCHAR jisx0208_2627
ENCODING 9767
SWIDTH 960 0
DWIDTH 22 0
BBX 22 22 0 -2
BITMAP
000000
0E00E0
0E00E0
0E00E0
0E00E0
0E00E0
0E00E0
0E00E0
0FFFE0
0FFFE0
0FFFE0
0E00E0
0E00E0
0E00E0
0E00E0
0E00E0
0E00E0
0E00E0
0E00E0
0E00E0
000000
000000
ENDCHAR

STARTCHAR jisx0208_2628
ENCODING 9768
SWIDTH 960 0
DWIDTH 22 0
BBX 22 22 0 -2
BITMAP
000000
00FC00
03FF00
07FF80
0F87C0
0E01C0
1E01E0
1C00E0
1C00E0
1FFEE0
1BFEE0
1FFEE0
1C00E0
1C00E0
1E01E0
0E01C0
0F87C0
07FF80
03FF00
00FC00
000000
000000
ENDCHAR

STARTCHAR jisx0208_2629
ENCODING 9769
SWIDTH 960 0
DWIDTH 22 0
BBX 22 22 0 -2
BITMAP
000000
003800
003800
003800
003800
003800
003800
003800
003800
003800
003800
003800
003800
003800
003800
003800
003800
003800
003800
003800
000000
000000
ENDCHAR

STARTCHAR jisx0208_262A
ENCODING 9770
SWIDTH 960 0
DWIDTH 22 0
BBX 22 22 0 -2
BITMAP
000000
0703C0
0707C0
070F80
071F00
073E00
077C00
07F800
06F000
07E000
07F800
077800
073C00
071E00
071F00
070F00
070780
0703C0
0703E0
0701E0
000000
000000
ENDCHAR

STARTCHAR jisx0208_262B
ENCODING 9771
SWIDTH 960 0
DWIDTH 22 0
BBX 22 22 0 -2
BITMAP
000000
003800
003800
007C00
007C00
00FE00
00EE00
00EE00
01EF00
01C700
03C780
038380
0783C0
0701C0
0701C0
0F01E0
0E00E0
1E00F0
1C0070
1C0070
000000
000000
ENDCHAR

STARTCHAR jisx0208_262C
ENCODING 9772
SWIDTH 960 0
DWIDTH 22 0
BBX 22 22 0 -2
BITMAP
000000
1C0070
1C0070
1E00F0
1E00F0
1F01F0
1F01F0
1F01F0
1F83F0
1B8370
1FC770
1DC770
1DEF70
1CEE70
1CEE70
1CFE70
1C7C70
1C7C70
1C3870
1C3870
000000
000000
ENDCHAR

STARTCHAR jisx0208_262D
ENCODING 9773
SWIDTH 960 0
DWIDTH 22 0
BBX 22 22 0 -2
BITMAP
000000
0E00E0
0F00E0
0F80E0
0F80E0
0FC0E0
0DE0E0
0FE0E0
0EF0E0
0E78E0
0E7CE0
0E3CE0
0E1EE0
0E0EE0
0E0EE0
0E07E0
0E03E0
0E03E0
0E01E0
0E00E0
000000
000000
ENDCHAR

STARTCHAR jisx0208_262E
ENCODING 9774
SWIDTH 960 0
DWIDTH 22 0
BBX 22 22 0 -2
BITMAP
000000
0FFFE0
0FFFE0
0FFFE0
000000
000000
000000
000000
07FFC0
07FFC0
07FFC0
000000
000000
000000
000000
000000
000000
0FFFE0
0FFFE0
0FFFE0
000000
000000
ENDCHAR

STARTCHAR jisx0208_262F
ENCODING 9775
SWIDTH 960 0
DWIDTH 22 0
BBX 22 22 0 -2
BITMAP
000000
00FC00
03FF00
07FF80
0F87C0
0E01C0
1E01E0
1C00E0
1C00E0
1C00E0
1C00E0
1C00E0
1C00E0
1C00E0
1E01E0
0E01C0
0F87C0
07FF80
03FF00
00FC00
000000
000000
ENDCHAR

STARTCHAR jisx0208_2630
ENCODING 9776
SWIDTH 960 0
DWIDTH 22 0
BBX 22 22 0 -2
BITMAP
000000
0FFFE0
0FFFE0
0FFFE0
0E00E0
0E00E0
0E00E0
0E00E0
0E00E0
0E00E0
0E00E0
0E00E0
0E00E0
0E00E0
0E00E0
0E00E0
0E00E0
0E00E0
0E00E0
0E00E0
000000
000000
ENDCHAR

STARTCHAR jisx0208_2631
ENCODING 9777
SWIDTH 960 0
DWIDTH 22 0
BBX 22 22 0 -2
BITMAP
000000
07FF00
07FFC0
07FFC0
0701E0
0700E0
0700E0
0700E0
0700E0
0701E0
07FFC0
07FFC0
07FF00
070000
070000
070000
070000
070000
070000
070000
000000
000000
ENDCHAR

STARTCHAR jisx0208_2632
ENCODING 9778
SWIDTH 960 0
DWIDTH 22 0
BBX 22 22 0 -2
BITMAP
000000
0FFFC0
0FFFC0
0FFFC0
078000
03E000
01F000
00F800
007C00
003C00
007C00
00F800
00F000
01E000
03C000
07C000
0F8000
0F7FC0
0FFFC0
0FFFC0
000000
000000
ENDCHAR

STARTCHAR jisx0208_2633
ENCODING 9779
SWIDTH 960 0
DWIDTH 22 0
BBX 22 22 0 -2
BITMAP
000000
1FFFF0
1FFFF0
1FFFF0
003800
003800
003800
003800
003800
003800
003800
003800
003800
003800
003800
003800
003800
003800
003800
003800
000000
000000
ENDCHAR

STARTCHAR jisx0208_2634
ENCODING 9780
SWIDTH 960 0
DWIDTH 22 0
BBX 22 22 0 -2
BITMAP
000000
07C7C0
0FEFE0
1FFFF0
1EFEF0
1C7C70
1C3870
003800
003800
003800
003800
003800
003800
003800
003800
003800
003800
003800
003800
003800
000000
000000
ENDCHAR

STARTCHAR jisx0208_2635
ENCODING 9781
SWIDTH 960 0
DWIDTH 22 0
BBX 22 22 0 -2
BITMAP
000000
003800
003800
00FE00
03FF80
07FFC0
0FBBE0
0E38E0
1E38F0
1C3870
1C3870
1C3870
1E38F0
0E38E0
0FBBE0
07FFC0
03FF80
00FE00
003800
003800
000000
000000
ENDCHAR

STARTCHAR jisx0208_2636
ENCODING 9782
SWIDTH 960 0
DWIDTH 22 0
BBX 22 22 0 -2
BITMAP
000000
0F01E0
0F83E0
0783C0
03C780
01EF00
01EF00
00FE00
007C00
007C00
003800
00FE00
00FE00
01EF00
03C780
03C780
0783C0
0F01E0
1F01F0
1E00F0
000000
000000
ENDCHAR

STARTCHAR jisx0208_2637
ENCODING 9783
SWIDTH 960 0
DWIDTH 22 0
BBX 22 22 0 -2
BITMAP
000000
0E38E0
0E38E0
0E38E0
0E38E0
0E38E0
0E38E0
0E38E0
0E38E0
0E38E0
0E38E0
0E38E0
0E38E0
0F39E0
07FFC0
07FFC0
01FF00
003800
003800
003800
000000
000000
ENDCHAR

STARTCHAR jisx0208_2638
ENCODING 9784
SWIDTH 960 0
DWIDTH 22 0
BBX 22 22 0 -2
BITMAP
000000
00FC00
03FF00
07FF80
0F87C0
0E01C0
1E01E0
1C00E0
1C00E0
1C00E0
1C00E0
1C00E0
1E01E0
0E01C0
0F03C0
078780
03CF00
0DCEC0
0FCFC0
0FCFC0
000000
000000
ENDCHAR

STARTCHAR jisx0208_2641
ENCODING 9793
SWIDTH 960 0
DWIDTH 22 0
BBX 22 22 0 -2
BITMAP
000000
000000
000000
000000
000000
000000
00FCE0
01FEE0
03FEE0
078EE0
0707E0
0F07C0
0E07C0
0E0780
0E0780
0E0F60
0F1FF0
0FFEF0
07F7E0
03F3C0
000000
000000
ENDCHAR

STARTCHAR jisx0208_2642
ENCODING 9794
SWIDTH 960 0
DWIDTH 22 0
BBX 22 22 0 -2
BITMAP
000000
003F00
00FFC0
00FFC0
01E1E0
01C0E0
03C0E0
0381E0
03BFC0
07BF80
073F00
0703C0
0701C0
0F01C0
0E01C0
0F01C0
0F83C0
1FFF80
1DFF80
1CFE00
1C0000
1C0000
ENDCHAR

STARTCHAR jisx0208_2643
ENCODING 9795
SWIDTH 960 0
DWIDTH 22 0
BBX 22 22 0 -2
BITMAP
000000
000000
000000
000000
000000
000000
03E1E0
07F3E0
07F7E0
033F00
001E00
001C00
003C00
003800
003800
007800
007000
007000
00F000
00E000
00E000
00E000
ENDCHAR

STARTCHAR jisx0208_2644
ENCODING 9796
SWIDTH 960 0
DWIDTH 22 0
BBX 22 22 0 -2
BITMAP
000000
007E00
00FF80
00FFE0
00F3E0
007CC0
003E00
01FF80
03FF80
07C3C0
0781C0
0F01C0
0E01C0
0E01C0
0E03C0
0E0780
0F0F80
07FF00
07FE00
01F800
000000
000000
ENDCHAR

STARTCHAR jisx0208_2645
ENCODING 9797
SWIDTH 960 0
DWIDTH 22 0
BBX 22 22 0 -2
BITMAP
000000
000000
000000
000000
000000
000000
007E00
00FF80
01FFC0
01C3C0
01C180
01FC00
00FC00
03FC00
078180
0703C0
0707C0
07FF80
03FF00
01FC00
000000
000000
ENDCHAR

STARTCHAR jisx0208_2646
ENCODING 9798
SWIDTH 960 0
DWIDTH 22 0
BBX 22 22 0 -2
BITMAP
000000
00FFC0
00FFC0
00FFC0
000F00
003C00
007800
00F000
01E000
03C000
038000
078000
070000
070000
078000
07FE00
03FF00
00FF80
000380
01FF80
01FF80
00FF00
ENDCHAR

STARTCHAR jisx0208_2647
ENCODING 9799
SWIDTH 960 0
DWIDTH 22 0
BBX 22 22 0 -2
BITMAP
000000
000000
000000
000000
000000
000000
07DF80
0FFFC0
0FFFE0
06F0E0
01E0E0
01C0E0
01C1E0
03C1C0
0381C0
0383C0
078380
070380
070780
070700
000700
000700
ENDCHAR

STARTCHAR jisx0208_2648
ENCODING 9800
SWIDTH 960 0
DWIDTH 22 0
BBX 22 22 0 -2
BITMAP
000000
003F00
00FFC0
01FFC0
01E1E0
03C0E0
0380E0
0780E0
0700E0
07FFE0
0FFFE0
0FFFC0
0E01C0
0E03C0
0E0380
0E0780
0F0F00
07FF00
07FE00
01F800
000000
000000
ENDCHAR

STARTCHAR jisx0208_2649
ENCODING 9801
SWIDTH 960 0
DWIDTH 22 0
BBX 22 22 0 -2
BITMAP
000000
000000
000000
000000
000000
000000
003800
003800
003800
007800
007000
007000
00F000
00E000
00E000
01EC00
01DE00
01FE00
01FC00
00F800
000000
000000
ENDCHAR

STARTCHAR jisx0208_264A
ENCODING 9802
SWIDTH 960 0
DWIDTH 22 0
BBX 22 22 0 -2
BITMAP
000000
000000
000000
000000
000000
000000
01C3C0
01C7E0
01CFE0
03DEC0
03BC00
03F800
03F000
07F800
073C00
071DC0
0F1DC0
0E1FC0
0E1F80
0E0F00
000000
000000
ENDCHAR

STARTCHAR jisx0208_264B
ENCODING 9803
SWIDTH 960 0
DWIDTH 22 0
BBX 22 22 0 -2
BITMAP
000000
00F800
00FC00
00FC00
001C00
001C00
001C00
001C00
003C00
007E00
00FE00
00EE00
01EE00
03CE00
03CE00
078E00
070E00
0F0FC0
0E0FC0
0E07C0
000000
000000
ENDCHAR

STARTCHAR jisx0208_264C
ENCODING 9804
SWIDTH 960 0
DWIDTH 22 0
BBX 22 22 0 -2
BITMAP
000000
000000
000000
000000
000000
000000
01C1C0
01C1C0
01C1C0
03C3C0
038380
038380
078780
070700
070700
0F0F00
0E1EC0
0FFFE0
1FFFE0
1DF7C0
1C0000
1C0000
ENDCHAR

STARTCHAR jisx0208_264D
ENCODING 9805
SWIDTH 960 0
DWIDTH 22 0
BBX 22 22 0 -2
BITMAP
000000
000000
000000
000000
000000
000000
0301C0
0781C0
0781C0
03C1C0
01C3C0
01C380
01E780
00EF00
00FF00
00DE00
00FC00
00F800
00F000
00E000
000000
000000
ENDCHAR

STARTCHAR jisx0208_264E
ENCODING 9806
SWIDTH 960 0
DWIDTH 22 0
BBX 22 22 0 -2
BITMAP
000000
01FFC0
01FFC0
01FFC0
007000
00E000
00E000
00FF00
007F00
01FF00
03C000
078000
070000
070000
070000
07FE00
03FF00
01FF80
000380
00FF80
00FF80
007F00
ENDCHAR

STARTCHAR jisx0208_264F
ENCODING 9807
SWIDTH 960 0
DWIDTH 22 0
BBX 22 22 0 -2
BITMAP
000000
000000
000000
000000
000000
000000
007E00
01FF80
03FF80
07C3C0
0781C0
0F01C0
0E01C0
0E01C0
0E03C0
0E0780
0F0F80
07FF00
07FE00
01F800
000000
000000
ENDCHAR

STARTCHAR jisx0208_2650
ENCODING 9808
SWIDTH 960 0
DWIDTH 22 0
BBX 22 22 0 -2
BITMAP
000000
000000
000000
000000
000000
000060
07FFF0
0FFFF0
0FFFE0
06E700
01E700
01CF00
01CE00
03CE00
039E00
079CC0
0F1DE0
1F1FE0
1E1FC0
0C0F80
000000
000000
ENDCHAR

STARTCHAR jisx0208_2651
ENCODING 9809
SWIDTH 960 0
DWIDTH 22 0
BBX 22 22 0 -2
BITMAP
000000
000000
000000
000000
000000
000000
003F00
00FFC0
01FFC0
03E1E0
03C0E0
0780E0
0700E0
0700E0
0F01E0
0F03C0
0F87C0
1FFF80
1BFF00
1CFC00
1C0000
1C0000
ENDCHAR

STARTCHAR jisx0208_2652
ENCODING 9810
SWIDTH 960 0
DWIDTH 22 0
BBX 22 22 0 -2
BITMAP
000000
000000
000000
000000
000000
000060
007FF0
01FFF0
03FFE0
07C380
0781C0
0F01C0
0E01C0
0E01C0
0E03C0
0E0780
0F0F80
07FF00
07FE00
01F800
000000
000000
ENDCHAR

STARTCHAR jisx0208_2653
ENCODING 9811
SWIDTH 960 0
DWIDTH 22 0
BBX 22 22 0 -2
BITMAP
000000
000000
000000
000000
000000
000180
03FFC0
07FFC0
07FF80
033800
007000
007000
00F000
00E000
00E000
01EC00
01DE00
01FE00
01FC00
00F800
000000
000000
ENDCHAR

STARTCHAR jisx0208_2654
ENCODING 9812
SWIDTH 960 0
DWIDTH 22 0
BBX 22 22 0 -2
BITMAP
000000
000000
000000
000000
000000
000000
038300
038780
0387C0
0383C0
0381C0
0381C0
0781C0
0701C0
0703C0
070380
070F80
07FF00
03FE00
01F800
000000
000000
ENDCHAR

STARTCHAR jisx0208_2655
ENCODING 9813
SWIDTH 960 0
DWIDTH 22 0
BBX 22 22 0 -2
BITMAP
000000
000000
000000
000E00
000E00
000E00
007C00
01FF80
03FF80
07DBC0
0739C0
0F39C0
0E79C0
0E73C0
0E7380
0EFF80
07EF00
07FE00
01F800
00C000
01C000
01C000
ENDCHAR

STARTCHAR jisx0208_2656
ENCODING 9814
SWIDTH 960 0
DWIDTH 22 0
BBX 22 22 0 -2
BITMAP
000000
000000
000000
000000
000000
000000
03C0F0
07E1F0
0FE3E0
0EF7C0
067F80
006F00
007E00
003C00
007800
00FC00
01FC00
03DCC0
07DDE0
0F8FE0
1F0FC0
1E0780
ENDCHAR

STARTCHAR jisx0208_2657
ENCODING 9815
SWIDTH 960 0
DWIDTH 22 0
BBX 22 22 0 -2
BITMAP
000000
000000
000000
000E00
000E00
000E00
0F1EC0
1F9DE0
1F9DE0
0BBCE0
07B8E0
0738E0
0F79E0
0E71C0
0E73C0
0EFF80
0FEF00
07FE00
03F800
00C000
01C000
01C000
ENDCHAR

STARTCHAR jisx0208_2658
ENCODING 9816
SWIDTH 960 0
DWIDTH 22 0
BBX 22 22 0 -2
BITMAP
000000
000000
000000
000000
000000
000000
00C180
01E3C0
03E3E0
07DDE0
0F9CF0
0F1C70
1E3C70
1C3870
1C3870
1C78F0
1EF1E0
1FFFE0
0FFFC0
07DF00
000000
000000
ENDCHAR

STARTCHAR jisx0208_2721
ENCODING 10017
SWIDTH 960 0
DWIDTH 22 0
BBX 22 22 0 -2
BITMAP
000000
003800
003800
007C00
007C00
00FE00
00EE00
00EE00
01EF00
01C700
03C780
038380
0783C0
077DC0
07FFC0
0FFFE0
0E00E0
1E00F0
1C0070
1C0070
000000
000000
ENDCHAR

STARTCHAR jisx0208_2722
ENCODING 10018
SWIDTH 960 0
DWIDTH 22 0
BBX 22 22 0 -2
BITMAP
000000
07FFC0
07FFC0
07FFC0
070000
070000
070000
070000
07FE00
07FF80
07FFC0
0703C0
0701E0
0700E0
0700E0
0701E0
0703C0
07FFC0
07FF80
07FE00
000000
000000
ENDCHAR

STARTCHAR jisx0208_2723
ENCODING 10019
SWIDTH 960 0
DWIDTH 22 0
BBX 22 22 0 -2
BITMAP
000000
07FE00
07FF80
07FF80
0703C0
0701C0
0701C0
0703C0
07FF80
07FF00
07FFC0
0703C0
0701E0
0700E0
0700E0
0701E0
0703C0
07FFC0
07FF80
07FE00
000000
000000
ENDCHAR

STARTCHAR jisx0208_2724
ENCODING 10020
SWIDTH 960 0
DWIDTH 22 0
BBX 22 22 0 -2
BITMAP
000000
07FFC0
07FFC0
07FFC0
070000
070000
070000
070000
070000
070000
070000
070000
070000
070000
070000
070000
070000
070000
070000
070000
000000
000000
ENDCHAR

STARTCHAR jisx0208_2725
ENCODING 10021
SWIDTH 960 0
DWIDTH 22 0
BBX 22 22 0 -2
BITMAP
000000
03FF80
03FF80
03FF80
038380
038380
038380
038380
038380
038380
038380
038380
038380
078380
070380
070380
0F0380
3EFFE0
3FFFE0
3FFFE0
3800E0
3800E0
ENDCHAR

STARTCHAR jisx0208_2726
ENCODING 10022
SWIDTH 960 0
DWIDTH 22 0
BBX 22 22 0 -2
BITMAP
000000
07FFC0
07FFC0
07FFC0
070000
070000
070000
070000
07FF80
07FF80
07FF80
070000
070000
070000
070000
070000
070000
07FFC0
07FFC0
07FFC0
000000
000000
ENDCHAR

STARTCHAR jisx0208_2727
ENCODING 10023
SWIDTH 960 0
DWIDTH 22 0
BBX 22 22 0 -2
BITMAP
01CE00
01CE00
0631C0
07FFC0
07FFC0
070000
070000
070000
070000
07FF80
07FF80
07FF80
070000
070000
070000
070000
070000
07FFC0
07FFC0
07FFC0
000000
000000
ENDCHAR

STARTCHAR jisx0208_2728
ENCODING 10024
SWIDTH 960 0
DWIDTH 22 0
BBX 22 22 0 -2
BITMAP
000000
1C3870
1E38F0
1F39F0
0739C0
07BBC0
03BB80
03BF80
01F700
03FF80
07FFC0
07BBC0
0F39E0
0E38E0
1E38F0
1C3870
3C3878
383838
383838
383838
000000
000000
ENDCHAR

STARTCHAR jisx0208_2729
ENCODING 10025
SWIDTH 960 0
DWIDTH 22 0
BBX 22 22 0 -2
BITMAP
000000
01FE00
07FF80
07FF80
0F03C0
0E01C0
0E01C0
0003C0
01FF80
01FF80
01FFC0
0003C0
0001E0
1C00E0
1C00E0
1E01E0
0F03C0
0FFFC0
07FF80
01FE00
000000
000000
ENDCHAR

STARTCHAR jisx0208_272A
ENCODING 10026
SWIDTH 960 0
DWIDTH 22 0
BBX 22 22 0 -2
BITMAP
000000
0E00E0
0E01E0
0E03E0
0E03E0
0E07E0
0E0EE0
0E0EE0
0E1EE0
0E3CE0
0E7CE0
0E78E0
0EF0E0
0FE0E0
0DE0E0
0FC0E0
0F80E0
0F80E0
0F00E0
0E00E0
000000
000000
ENDCHAR

STARTCHAR jisx0208_272B
ENCODING 10027
SWIDTH 960 0
DWIDTH 22 0
BBX 22 22 0 -2
BITMAP
01FE00
0FFEE0
0EFDE0
0E03E0
0E03E0
0E07E0
0E0EE0
0E0EE0
0E1EE0
0E3CE0
0E7CE0
0E78E0
0EF0E0
0FE0E0
0DE0E0
0FC0E0
0F80E0
0F80E0
0F00E0
0E00E0
000000
000000
ENDCHAR

STARTCHAR jisx0208_272C
ENCODING 10028
SWIDTH 960 0
DWIDTH 22 0
BBX 22 22 0 -2
BITMAP
000000
0701E0
0703E0
0707C0
070780
070F00
071E00
073E00
07FC00
07F800
07FC00
073C00
071E00
070F00
070F80
070780
0703C0
0701E0
0701F0
0700F0
000000
000000
ENDCHAR

STARTCHAR jisx0208_272D
ENCODING 10029
SWIDTH 960 0
DWIDTH 22 0
BBX 22 22 0 -2
BITMAP
000000
03FFC0
03FFC0
03FFC0
0381C0
0381C0
0381C0
0381C0
0381C0
0381C0
0381C0
0381C0
0381C0
0381C0
0381C0
0381C0
0381C0
1F81C0
1F81C0
1F01C0
000000
000000
ENDCHAR

STARTCHAR jisx0208_272E
ENCODING 10030
SWIDTH 960 0
DWIDTH 22 0
BBX 22 22 0 -2
BITMAP
000000
1C0070
1C0070
1E00F0
1E00F0
1F01F0
1F01F0
1F01F0
1F83F0
1B8370
1FC770
1DC770
1DEF70
1CEE70
1CEE70
1CFE70
1C7C70
1C7C70
1C3870
1C3870
000000
000000
ENDCHAR

STARTCHAR jisx0208_272F
ENCODING 10031
SWIDTH 960 0
DWIDTH 22 0
BBX 22 22 0 -2
BITMAP
000000
0E00E0
0E00E0
0E00E0
0E00E0
0E00E0
0E00E0
0E00E0
0FFFE0
0FFFE0
0FFFE0
0E00E0
0E00E0
0E00E0
0E00E0
0E00E0
0E00E0
0E00E0
0E00E0
0E00E0
000000
000000
ENDCHAR

STARTCHAR jisx0208_2730
ENCODING 10032
SWIDTH 960 0
DWIDTH 22 0
BBX 22 22 0 -2
BITMAP
000000
00FC00
03FF00
07FF80
0F87C0
0E01C0
1E01E0
1C00E0
1C00E0
1C00E0
1C00E0
1C00E0
1C00E0
1C00E0
1E01E0
0E01C0
0F87C0
07FF80
03FF00
00FC00
000000
000000
ENDCHAR

STARTCHAR jisx0208_2731
ENCODING 10033
SWIDTH 960 0
DWIDTH 22 0
BBX 22 22 0 -2
BITMAP
000000
0FFFE0
0FFFE0
0FFFE0
0E00E0
0E00E0
0E00E0
0E00E0
0E00E0
0E00E0
0E00E0
0E00E0
0E00E0
0E00E0
0E00E0
0E00E0
0E00E0
0E00E0
0E00E0
0E00E0
000000
000000
ENDCHAR

STARTCHAR jisx0208_2732
ENCODING 10034
SWIDTH 960 0
DWIDTH 22 0
BBX 22 22 0 -2
BITMAP
000000
07FE00
07FF80
07FFC0
0703C0
0701E0
0700E0
0700E0
0700E0
0701E0
0703C0
07FFC0
07FF80
07FE00
070000
070000
070000
070000
070000
070000
000000
000000
ENDCHAR

STARTCHAR jisx0208_2733
ENCODING 10035
SWIDTH 960 0
DWIDTH 22 0
BBX 22 22 0 -2
BITMAP
000000
00FC00
03FF00
07FF80
0F87C0
0E03C0
1E01C0
1C0000
1C0000
1C0000
1C0000
1C0000
1C00E0
1C00E0
1E01E0
0E01C0
0F87C0
07FF80
03FF00
00FC00
000000
000000
ENDCHAR

STARTCHAR jisx0208_2734
ENCODING 10036
SWIDTH 960 0
DWIDTH 22 0
BBX 22 22 0 -2
BITMAP
000000
0FFFE0
0FFFE0
0FFFE0
003800
003800
003800
003800
003800
003800
003800
003800
003800
003800
003800
003800
003800
003800
003800
003800
000000
000000
ENDCHAR

STARTCHAR jisx0208_2735
ENCODING 10037
SWIDTH 960 0
DWIDTH 22 0
BBX 22 22 0 -2
BITMAP
000000
0E00E0
0E00E0
0F01E0
0701C0
0783C0
038380
03C780
01C700
01EF00
00EE00
00FE00
007C00
007C00
003800
007800
00F000
07F000
07E000
07C000
000000
000000
ENDCHAR

STARTCHAR jisx0208_2736
ENCODING 10038
SWIDTH 960 0
DWIDTH 22 0
BBX 22 22 0 -2
BITMAP
000000
003800
003800
00FE00
03FF80
07FFC0
0FBBE0
0E38E0
1E38F0
1C3870
1C3870
1C3870
1E38F0
0E38E0
0FBBE0
07FFC0
03FF80
00FE00
003800
003800
000000
000000
ENDCHAR

STARTCHAR jisx0208_2737
ENCODING 10039
SWIDTH 960 0
DWIDTH 22 0
BBX 22 22 0 -2
BITMAP
000000
0F01E0
0F83E0
0783C0
03C780
01EF00
01EF00
00FE00
007C00
007C00
003800
00FE00
00FE00
01EF00
03C780
03C780
0783C0
0F01E0
1F01F0
1E00F0
000000
000000
ENDCHAR

STARTCHAR jisx0208_2738
ENCODING 10040
SWIDTH 960 0
DWIDTH 22 0
BBX 22 22 0 -2
BITMAP
000000
0E01C0
0E01C0
0E01C0
0E01C0
0E01C0
0E01C0
0E01C0
0E01C0
0E01C0
0E01C0
0E01C0
0E01C0
0E01C0
0E01C0
0E01C0
0E01C0
0FFFE0
0FFFF0
0FFFF0
000070
000070
ENDCHAR

STARTCHAR jisx0208_2739
ENCODING 10041
SWIDTH 960 0
DWIDTH 22 0
BBX 22 22 0 -2
BITMAP
000000
070380
070380
070380
070380
070380
070380
070380
070380
07FF80
07FF80
03FF80
000380
000380
000380
000380
000380
000380
000380
000380
000000
000000
ENDCHAR

STARTCHAR jisx0208_273A
ENCODING 10042
SWIDTH 960 0
DWIDTH 22 0
BBX 22 22 0 -2
BITMAP
000000
1C3870
1C3870
1C3870
1C3870
1C3870
1C3870
1C3870
1C3870
1C3870
1C3870
1C3870
1C3870
1C3870
1C3870
1C3870
1C3870
1FFFF0
1FFFF0
1FFFF0
000000
000000
ENDCHAR

STARTCHAR jisx0208_273B
ENCODING 10043
SWIDTH 960 0
DWIDTH 22 0
BBX 22 22 0 -2
BITMAP
000000
1C3870
1C3870
1C3870
1C3870
1C3870
1C3870
1C3870
1C3870
1C3870
1C3870
1C3870
1C3870
1C3870
1C3870
1C3870
1C3870
1FFFF8
1FFFFC
1FFFFC
00001C
00001C
ENDCHAR

STARTCHAR jisx0208_273C
ENCODING 10044
SWIDTH 960 0
DWIDTH 22 0
BBX 22 22 0 -2
BITMAP
000000
1F8000
1F8000
1F8000
038000
038000
038000
03FE00
03FF80
03FFC0
0383C0
0381E0
0380E0
0380E0
0380E0
0381E0
0383C0
03FFC0
03FF80
03FE00
000000
000000
ENDCHAR

STARTCHAR jisx0208_273D
ENCODING 10045
SWIDTH 960 0
DWIDTH 22 0
BBX 22 22 0 -2
BITMAP
000000
1C00E0
1C00E0
1C00E0
1C00E0
1C00E0
1C00E0
1FF0E0
1FFCE0
1FFEE0
1C1EE0
1C0EE0
1C06E0
1C06E0
1C06E0
1C0EE0
1C1EE0
1FFEE0
1FFCE0
1FF0E0
000000
000000
ENDCHAR

STARTCHAR jisx0208_273E
ENCODING 10046
SWIDTH 960 0
DWIDTH 22 0
BBX 22 22 0 -2
BITMAP
000000
070000
070000
070000
070000
070000
070000
07FE00
07FF80
07FFC0
0703C0
0701E0
0700E0
0700E0
0700E0
0701E0
0703C0
07FFC0
07FF80
07FE00
000000
000000
ENDCHAR

STARTCHAR jisx0208_273F
ENCODING 10047
SWIDTH 960 0
DWIDTH 22 0
BBX 22 22 0 -2
BITMAP
000000
00FC00
03FF00
07FF80
0F87C0
0F01C0
0E01E0
0000E0
01FFE0
01FFE0
01FFE0
0000E0
1C00E0
1C00E0
1E01E0
0E01C0
0F87C0
07FF80
03FF00
00FC00
000000
000000
ENDCHAR

STARTCHAR jisx0208_2740
ENCODING 10048
SWIDTH 960 0
DWIDTH 22 0
BBX 22 22 0 -2
BITMAP
000000
381F80
387FE0
38FFF0
38F0F0
39E078
39C038
39C038
3FC038
3FC038
3FC038
39C038
39C038
39C038
39C038
39E078
38F0F0
38FFF0
387FE0
381F80
000000
000000
ENDCHAR

STARTCHAR jisx0208_2741
ENCODING 10049
SWIDTH 960 0
DWIDTH 22 0
BBX 22 22 0 -2
BITMAP
000000
01FFC0
03FFC0
07FFC0
0781C0
0701C0
0701C0
0781C0
07FFC0
03FFC0
01FFC0
03C1C0
0381C0
0781C0
0701C0
0701C0
0F01C0
0E01C0
0E01C0
0E01C0
000000
000000
ENDCHAR

STARTCHAR jisx0208_2751
ENCODING 10065
SWIDTH 960 0
DWIDTH 22 0
BBX 22 22 0 -2
BITMAP
000000
000000
000000
000000
000000
000000
00FC00
03FF00
07FF00
078780
070380
00FF80
03FF80
03FF80
078380
070380
078F80
07FF80
03FF80
01FB80
000000
000000
ENDCHAR

STARTCHAR jisx0208_2752
ENCODING 10066
SWIDTH 960 0
DWIDTH 22 0
BBX 22 22 0 -2
BITMAP
000000
000380
007F80
01FF80
03FE00
03C000
07BC00
06FF00
07FF00
078780
070380
070380
070380
070380
070380
070380
078780
03FF00
03FF00
00FC00
000000
000000
ENDCHAR

STARTCHAR jisx0208_2753
ENCODING 10067
SWIDTH 960 0
DWIDTH 22 0
BBX 22 22 0 -2
BITMAP
000000
000000
000000
000000
000000
000000
03FE00
03FF00
03FF80
038380
038380
03FF80
03FF00
03FFC0
0383C0
0381C0
0383C0
03FFC0
03FF80
03FF00
000000
000000
ENDCHAR

STARTCHAR jisx0208_2754
ENCODING 10068
SWIDTH 960 0
DWIDTH 22 0
BBX 22 22 0 -2
BITMAP
000000
000000
000000
000000
000000
000000
01FF80
01FF80
01FF80
01C000
01C000
01C000
01C000
01C000
01C000
01C000
01C000
01C000
01C000
01C000
000000
000000
ENDCHAR

STARTCHAR jisx0208_2755
ENCODING 10069
SWIDTH 960 0
DWIDTH 22 0
BBX 22 22 0 -2
BITMAP
000000
000000
000000
000000
000000
000000
01FF00
01FF00
01FF00
01C700
01C700
01C700
01C700
01C700
01C700
03C700
038700
07FF80
0FFFC0
0FFFC0
0E01C0
0E01C0
ENDCHAR

STARTCHAR jisx0208_2756
ENCODING 10070
SWIDTH 960 0
DWIDTH 22 0
BBX 22 22 0 -2
BITMAP
000000
000000
000000
000000
000000
000000
007C00
01FF00
03FF80
03C780
0783C0
077DC0
07FFC0
07FFC0
070000
0781C0
03C3C0
03FFC0
01FF80
007E00
000000
000000
ENDCHAR

STARTCHAR jisx0208_2757
ENCODING 10071
SWIDTH 960 0
DWIDTH 22 0
BBX 22 22 0 -2
BITMAP
000000
000000
00EE00
00EE00
00EE00
000000
007C00
01FF00
03FF80
03C780
0783C0
077DC0
07FFC0
07FFC0
070000
0781C0
03C3C0
03FFC0
01FF80
007E00
000000
000000
ENDCHAR

STARTCHAR jisx0208_2758
ENCODING 10072
SWIDTH 960 0
DWIDTH 22 0
BBX 22 22 0 -2
BITMAP
000000
000000
000000
000000
000000
000000
0F39E0
0FBBE0
0FBBE0
03BF80
01B700
01FF00
00FE00
03FF80
03BB80
07BBC0
0739C0
0F39E0
0E38E0
0E38E0
000000
000000
ENDCHAR

STARTCHAR jisx0208_2759
ENCODING 10073
SWIDTH 960 0
DWIDTH 22 0
BBX 22 22 0 -2
BITMAP
000000
000000
000000
000000
000000
000000
00FE00
01FF00
03FF80
038380
038380
007F80
007F00
007FC0
0703C0
0701C0
0783C0
03FFC0
03FF80
00FF00
000000
000000
ENDCHAR

STARTCHAR jisx0208_275A
ENCODING 10074
SWIDTH 960 0
DWIDTH 22 0
BBX 22 22 0 -2
BITMAP
000000
000000
000000
000000
000000
000000
070380
070780
070F80
070F80
071F80
073B80
077B80
077B80
07F380
06E380
07E380
07C380
078380
070380
000000
000000
ENDCHAR

STARTCHAR jisx0208_275B
ENCODING 10075
SWIDTH 960 0
DWIDTH 22 0
BBX 22 22 0 -2
BITMAP
000000
000000
000000
01CE00
01FE00
01FE00
06FD80
070380
070F80
070F80
071F80
073B80
077B80
077B80
07F380
06E380
07E380
07C380
078380
070380
000000
000000
ENDCHAR

STARTCHAR jisx0208_275C
ENCODING 10076
SWIDTH 960 0
DWIDTH 22 0
BBX 22 22 0 -2
BITMAP
000000
000000
000000
000000
000000
000000
038380
038780
038F80
038E00
039E00
03FC00
03FE00
03FF00
038F00
038780
038380
0383C0
0381C0
0381C0
000000
000000
ENDCHAR

STARTCHAR jisx0208_275D
ENCODING 10077
SWIDTH 960 0
DWIDTH 22 0
BBX 22 22 0 -2
BITMAP
000000
000000
000000
000000
000000
000000
01FF80
01FF80
01FF80
01C380
01C380
01C380
01C380
01C380
01C380
01C380
01C380
07C380
07C380
078380
000000
000000
ENDCHAR

STARTCHAR jisx0208_275E
ENCODING 10078
SWIDTH 960 0
DWIDTH 22 0
BBX 22 22 0 -2
BITMAP
000000
000000
000000
000000
000000
000000
0701C0
0701C0
0783C0
0783C0
0783C0
07C7C0
07C7C0
07EFC0
06EDC0
07FDC0
077DC0
077DC0
0739C0
0739C0
000000
000000
ENDCHAR

STARTCHAR jisx0208_275F
ENCODING 10079
SWIDTH 960 0
DWIDTH 22 0
BBX 22 22 0 -2
BITMAP
000000
000000
000000
000000
000000
000000
070380
070380
070380
070380
070380
07FF80
07FF80
07FF80
070380
070380
070380
070380
070380
070380
000000
000000
ENDCHAR

STARTCHAR jisx0208_2760
ENCODING 10080
SWIDTH 960 0
DWIDTH 22 0
BBX 22 22 0 -2
BITMAP
000000
000000
000000
000000
000000
000000
00FC00
03FF00
07FF80
078780
0F03C0
0E01C0
0E01C0
0E01C0
0E01C0
0F03C0
078780
07FF80
03FF00
00FC00
000000
000000
ENDCHAR

STARTCHAR jisx0208_2761
ENCODING 10081
SWIDTH 960 0
DWIDTH 22 0
BBX 22 22 0 -2
BITMAP
000000
000000
000000
000000
000000
000000
07FF80
07FF80
07FF80
070380
070380
070380
070380
070380
070380
070380
070380
070380
070380
070380
000000
000000
ENDCHAR

STARTCHAR jisx0208_2762
ENCODING 10082
SWIDTH 960 0
DWIDTH 22 0
BBX 22 22 0 -2
BITMAP
000000
000000
000000
000000
000000
000000
037E00
03FF80
03FF80
03C3C0
0381C0
0381C0
0381C0
0381C0
0381C0
03C3C0
03FF80
03FF80
037E00
038000
038000
038000
ENDCHAR

STARTCHAR jisx0208_2763
ENCODING 10083
SWIDTH 960 0
DWIDTH 22 0
BBX 22 22 0 -2
BITMAP
000000
000000
000000
000000
000000
000000
007C00
01FF00
03FF80
03C7C0
0783C0
0701C0
070000
070000
0701C0
0783C0
03C7C0
03FF80
01FF00
007C00
000000
000000
ENDCHAR

STARTCHAR jisx0208_2764
ENCODING 10084
SWIDTH 960 0
DWIDTH 22 0
BBX 22 22 0 -2
BITMAP
000000
000000
000000
000000
000000
000000
07FFC0
07FFC0
07FFC0
003800
003800
003800
003800
003800
003800
003800
003800
003800
003800
003800
000000
000000
ENDCHAR

STARTCHAR jisx0208_2765
ENCODING 10085
SWIDTH 960 0
DWIDTH 22 0
BBX 22 22 0 -2
BITMAP
000000
000000
000000
000000
000000
000000
0381C0
0381C0
03C3C0
01C380
01E780
00E700
00EF00
006E00
007E00
003C00
003C00
003800
007800
01F000
01F000
01E000
ENDCHAR

STARTCHAR jisx0208_2766
ENCODING 10086
SWIDTH 960 0
DWIDTH 22 0
BBX 22 22 0 -2
BITMAP
000000
003800
003800
003800
003800
003800
03BF80
0FF7E0
0FFFE0
1E7CF0
1C3870
1C3870
1C3870
1C3870
1C3870
1E7CF0
0FFFE0
0FFFE0
03B780
003800
003800
003800
ENDCHAR

STARTCHAR jisx0208_2767
ENCODING 10087
SWIDTH 960 0
DWIDTH 22 0
BBX 22 22 0 -2
BITMAP
000000
000000
000000
000000
000000
000000
070380
078780
07CF80
03CF00
01DE00
00FC00
00FC00
007800
01FE00
01DE00
03CF00
078780
078780
070380
000000
000000
ENDCHAR

STARTCHAR jisx0208_2768
ENCODING 10088
SWIDTH 960 0
DWIDTH 22 0
BBX 22 22 0 -2
BITMAP
000000
000000
000000
000000
000000
000000
038380
038380
038380
038380
038380
038380
038380
038380
038380
038380
038380
03FFC0
03FFE0
03FFE0
0000E0
0000E0
ENDCHAR

STARTCHAR jisx0208_2769
ENCODING 10089
SWIDTH 960 0
DWIDTH 22 0
BBX 22 22 0 -2
BITMAP
000000
000000
000000
000000
000000
000000
038380
038380
038380
038380
038380
038380
03FF80
03FF80
01FF80
000380
000380
000380
000380
000380
000000
000000
ENDCHAR

STARTCHAR jisx0208_276A
ENCODING 10090
SWIDTH 960 0
DWIDTH 22 0
BBX 22 22 0 -2
BITMAP
000000
000000
000000
000000
000000
000000
0E38E0
0E38E0
0E38E0
0E38E0
0E38E0
0E38E0
0E38E0
0E38E0
0E38E0
0E38E0
0E38E0
0FFFE0
0FFFE0
0FFFE0
000000
000000
ENDCHAR

STARTCHAR jisx0208_276B
ENCODING 10091
SWIDTH 960 0
DWIDTH 22 0
BBX 22 22 0 -2
BITMAP
000000
000000
000000
000000
000000
000000
0E38E0
0E38E0
0E38E0
0E38E0
0E38E0
0E38E0
0E38E0
0E38E0
0E38E0
0E38E0
0E38E0
0FFFE0
0FFFF0
0FFFF0
000070
000070
ENDCHAR

STARTCHAR jisx0208_276C
ENCODING 10092
SWIDTH 960 0
DWIDTH 22 0
BBX 22 22 0 -2
BITMAP
000000
000000
000000
000000
000000
000000
07C000
07C000
07C000
01C000
01FE00
01FF80
01FF80
01C3C0
01C1C0
01C1C0
01C3C0
01FF80
01FF80
01FE00
000000
000000
ENDCHAR

STARTCHAR jisx0208_276D
ENCODING 10093
SWIDTH 960 0
DWIDTH 22 0
BBX 22 22 0 -2
BITMAP
000000
000000
000000
000000
000000
000000
0E00E0
0E00E0
0E00E0
0E00E0
0FF0E0
0FFCE0
0FFCE0
0E1EE0
0E0EE0
0E0EE0
0E1EE0
0FFCE0
0FFCE0
0FF0E0
000000
000000
ENDCHAR

STARTCHAR jisx0208_276E
ENCODING 10094
SWIDTH 960 0
DWIDTH 22 0
BBX 22 22 0 -2
BITMAP
000000
000000
000000
000000
000000
000000
038000
038000
038000
038000
03FC00
03FF00
03FF00
038780
038380
038380
038780
03FF00
03FF00
03FC00
000000
000000
ENDCHAR

STARTCHAR jisx0208_276F
ENCODING 10095
SWIDTH 960 0
DWIDTH 22 0
BBX 22 22 0 -2
BITMAP
000000
000000
000000
000000
000000
000000
007C00
01FF00
03FF80
07C780
0783C0
077DC0
007FC0
007FC0
0701C0
0783C0
07C780
03FF80
01FF00
007C00
000000
000000
ENDCHAR

STARTCHAR jisx0208_2770
ENCODING 10096
SWIDTH 960 0
DWIDTH 22 0
BBX 22 22 0 -2
BITMAP
000000
000000
000000
000000
000000
000000
0E0F80
0E3FE0
0E3FE0
0E78F0
0E7070
0FF070
0FF070
0FF070
0E7070
0E7070
0E78F0
0E3FE0
0E3FE0
0E0F80
000000
000000
ENDCHAR

STARTCHAR jisx0208_2771
ENCODING 10097
SWIDTH 960 0
DWIDTH 22 0
BBX 22 22 0 -2
BITMAP
000000
000000
000000
000000
000000
000000
00FF80
01FF80
03FF80
038380
038380
038380
03FF80
01FF80
01FF80
03C380
038380
078380
070380
070380
000000
000000
ENDCHAR

STARTCHAR jisx0208_2821
ENCODING 10273
SWIDTH 960 0
DWIDTH 22 0
BBX 22 22 0 -2
BITMAP
000000
000000
000000
000000
000000
000000
000000
000000
000000
FFFFFC
FFFFFC
000000
000000
000000
000000
000000
000000
000000
000000
000000
000000
000000
ENDCHAR

STARTCHAR jisx0208_2822
ENCODING 10274
SWIDTH 960 0
DWIDTH 22 0
BBX 22 22 0 -2
BITMAP
003000
003000
003000
003000
003000
003000
003000
003000
003000
003000
003000
003000
003000
003000
003000
003000
003000
003000
003000
003000
003000
003000
ENDCHAR

STARTCHAR jisx0208_2823
ENCODING 10275
SWIDTH 960 0
DWIDTH 22 0
BBX 22 22 0 -2
BITMAP
000000
000000
000000
000000
000000
000000
000000
000000
000000
003FFC
003FFC
003000
003000
003000
003000
003000
003000
003000
003000
003000
003000
003000
ENDCHAR

STARTCHAR jisx0208_2824
ENCODING 10276
SWIDTH 960 0
DWIDTH 22 0
BBX 22 22 0 -2
BITMAP
000000
000000
000000
000000
000000
000000
000000
000000
000000
FFF000
FFF000
003000
003000
003000
003000
003000
003000
003000
003000
003000
003000
003000
ENDCHAR

STARTCHAR jisx0208_2825
ENCODING 10277
SWIDTH 960 0
DWIDTH 22 0
BBX 22 22 0 -2
BITMAP
003000
003000
003000
003000
003000
003000
003000
003000
003000
FFF000
FFF000
000000
000000
000000
000000
000000
000000
000000
000000
000000
000000
000000
ENDCHAR

STARTCHAR jisx0208_2826
ENCODING 10278
SWIDTH 960 0
DWIDTH 22 0
BBX 22 22 0 -2
BITMAP
003000
003000
003000
003000
003000
003000
003000
003000
003000
003FFC
003FFC
000000
000000
000000
000000
000000
000000
000000
000000
000000
000000
000000
ENDCHAR

STARTCHAR jisx0208_2827
ENCODING 10279
SWIDTH 960 0
DWIDTH 22 0
BBX 22 22 0 -2
BITMAP
003000
003000
003000
003000
003000
003000
003000
003000
003000
003FFC
003FFC
003000
003000
003000
003000
003000
003000
003000
003000
003000
003000
003000
ENDCHAR

STARTCHAR jisx0208_2828
ENCODING 10280
SWIDTH 960 0
DWIDTH 22 0
BBX 22 22 0 -2
BITMAP
000000
000000
000000
000000
000000
000000
000000
000000
000000
FFFFFC
FFFFFC
003000
003000
003000
003000
003000
003000
003000
003000
003000
003000
003000
ENDCHAR

STARTCHAR jisx0208_2829
ENCODING 10281
SWIDTH 960 0
DWIDTH 22 0
BBX 22 22 0 -2
BITMAP
003000
003000
003000
003000
003000
003000
003000
003000
003000
FFF000
FFF000
003000
003000
003000
003000
003000
003000
003000
003000
003000
003000
003000
ENDCHAR

STARTCHAR jisx0208_282A
ENCODING 10282
SWIDTH 960 0
DWIDTH 22 0
BBX 22 22 0 -2
BITMAP
003000
003000
003000
003000
003000
003000
003000
003000
003000
FFFFFC
FFFFFC
000000
000000
000000
000000
000000
000000
000000
000000
000000
000000
000000
ENDCHAR

STARTCHAR jisx0208_282B
ENCODING 10283
SWIDTH 960 0
DWIDTH 22 0
BBX 22 22 0 -2
BITMAP
003000
003000
003000
003000
003000
003000
003000
003000
003000
FFFFFC
FFFFFC
003000
003000
003000
003000
003000
003000
003000
003000
003000
003000
003000
ENDCHAR

STARTCHAR jisx0208_282C
ENCODING 10284
SWIDTH 960 0
DWIDTH 22 0
BBX 22 22 0 -2
BITMAP
000000
000000
000000
000000
000000
000000
000000
000000
000000
FFFFFC
FFFFFC
FFFFFC
000000
000000
000000
000000
000000
000000
000000
000000
000000
000000
ENDCHAR

STARTCHAR jisx0208_282D
ENCODING 10285
SWIDTH 960 0
DWIDTH 22 0
BBX 22 22 0 -2
BITMAP
003800
003800
003800
003800
003800
003800
003800
003800
003800
003800
003800
003800
003800
003800
003800
003800
003800
003800
003800
003800
003800
003800
ENDCHAR

STARTCHAR jisx0208_282E
ENCODING 10286
SWIDTH 960 0
DWIDTH 22 0
BBX 22 22 0 -2
BITMAP
000000
000000
000000
000000
000000
000000
000000
000000
000000
003FFC
003FFC
003FFC
003800
003800
003800
003800
003800
003800
003800
003800
003800
003800
ENDCHAR

STARTCHAR jisx0208_282F
ENCODING 10287
SWIDTH 960 0
DWIDTH 22 0
BBX 22 22 0 -2
BITMAP
000000
000000
000000
000000
000000
000000
000000
000000
000000
FFF800
FFF800
FFF800
003800
003800
003800
003800
003800
003800
003800
003800
003800
003800
ENDCHAR

STARTCHAR jisx0208_2830
ENCODING 10288
SWIDTH 960 0
DWIDTH 22 0
BBX 22 22 0 -2
BITMAP
003800
003800
003800
003800
003800
003800
003800
003800
003800
FFF800
FFF800
FFF800
000000
000000
000000
000000
000000
000000
000000
000000
000000
000000
ENDCHAR

STARTCHAR jisx0208_2831
ENCODING 10289
SWIDTH 960 0
DWIDTH 22 0
BBX 22 22 0 -2
BITMAP
003800
003800
003800
003800
003800
003800
003800
003800
003800
003FFC
003FFC
003FFC
000000
000000
000000
000000
000000
000000
000000
000000
000000
000000
ENDCHAR

STARTCHAR jisx0208_2832
ENCODING 10290
SWIDTH 960 0
DWIDTH 22 0
BBX 22 22 0 -2
BITMAP
003800
003800
003800
003800
003800
003800
003800
003800
003800
003FFC
003FFC
003FFC
003800
003800
003800
003800
003800
003800
003800
003800
003800
003800
ENDCHAR

STARTCHAR jisx0208_2833
ENCODING 10291
SWIDTH 960 0
DWIDTH 22 0
BBX 22 22 0 -2
BITMAP
000000
000000
000000
000000
000000
000000
000000
000000
000000
FFFFFC
FFFFFC
FFFFFC
003800
003800
003800
003800
003800
003800
003800
003800
003800
003800
ENDCHAR

STARTCHAR jisx0208_2834
ENCODING 10292
SWIDTH 960 0
DWIDTH 22 0
BBX 22 22 0 -2
BITMAP
003800
003800
003800
003800
003800
003800
003800
003800
003800
FFF800
FFF800
FFF800
003800
003800
003800
003800
003800
003800
003800
003800
003800
003800
ENDCHAR

STARTCHAR jisx0208_2835
ENCODING 10293
SWIDTH 960 0
DWIDTH 22 0
BBX 22 22 0 -2
BITMAP
003800
003800
003800
003800
003800
003800
003800
003800
003800
FFFFFC
FFFFFC
FFFFFC
000000
000000
000000
000000
000000
000000
000000
000000
000000
000000
ENDCHAR

STARTCHAR jisx0208_2836
ENCODING 10294
SWIDTH 960 0
DWIDTH 22 0
BBX 22 22 0 -2
BITMAP
003800
003800
003800
003800
003800
003800
003800
003800
003800
FFFFFC
FFFFFC
FFFFFC
003800
003800
003800
003800
003800
003800
003800
003800
003800
003800
ENDCHAR

STARTCHAR jisx0208_2837
ENCODING 10295
SWIDTH 960 0
DWIDTH 22 0
BBX 22 22 0 -2
BITMAP
003800
003800
003800
003800
003800
003800
003800
003800
003800
003FFC
003FFC
003800
003800
003800
003800
003800
003800
003800
003800
003800
003800
003800
ENDCHAR

STARTCHAR jisx0208_2838
ENCODING 10296
SWIDTH 960 0
DWIDTH 22 0
BBX 22 22 0 -2
BITMAP
000000
000000
000000
000000
000000
000000
000000
000000
000000
FFFFFC
FFFFFC
FFFFFC
003000
003000
003000
003000
003000
003000
003000
003000
003000
003000
ENDCHAR

STARTCHAR jisx0208_2839
ENCODING 10297
SWIDTH 960 0
DWIDTH 22 0
BBX 22 22 0 -2
BITMAP
003800
003800
003800
003800
003800
003800
003800
003800
003800
FFF800
FFF800
003800
003800
003800
003800
003800
003800
003800
003800
003800
003800
003800
ENDCHAR

STARTCHAR jisx0208_283A
ENCODING 10298
SWIDTH 960 0
DWIDTH 22 0
BBX 22 22 0 -2
BITMAP
003000
003000
003000
003000
003000
003000
003000
003000
003000
FFFFFC
FFFFFC
FFFFFC
000000
000000
000000
000000
000000
000000
000000
000000
000000
000000
ENDCHAR

STARTCHAR jisx0208_283B
ENCODING 10299
SWIDTH 960 0
DWIDTH 22 0
BBX 22 22 0 -2
BITMAP
003000
003000
003000
003000
003000
003000
003000
003000
003000
FFFFFC
FFFFFC
FFFFFC
003000
003000
003000
003000
003000
003000
003000
003000
003000
003000
ENDCHAR

STARTCHAR jisx0208_283C
ENCODING 10300
SWIDTH 960 0
DWIDTH 22 0
BBX 22 22 0 -2
BITMAP
003000
003000
003000
003000
003000
003000
003000
003000
003000
003FFC
003FFC
003FFC
003000
003000
003000
003000
003000
003000
003000
003000
003000
003000
ENDCHAR

STARTCHAR jisx0208_283D
ENCODING 10301
SWIDTH 960 0
DWIDTH 22 0
BBX 22 22 0 -2
BITMAP
000000
000000
000000
000000
000000
000000
000000
000000
000000
FFFFFC
FFFFFC
003800
003800
003800
003800
003800
003800
003800
003800
003800
003800
003800
ENDCHAR

STARTCHAR jisx0208_283E
ENCODING 10302
SWIDTH 960 0
DWIDTH 22 0
BBX 22 22 0 -2
BITMAP
003000
003000
003000
003000
003000
003000
003000
003000
003000
FFF000
FFF000
FFF000
003000
003000
003000
003000
003000
003000
003000
003000
003000
003000
ENDCHAR

STARTCHAR jisx0208_283F
ENCODING 10303
SWIDTH 960 0
DWIDTH 22 0
BBX 22 22 0 -2
BITMAP
003800
003800
003800
003800
003800
003800
003800
003800
003800
FFFFFC
FFFFFC
000000
000000
000000
000000
000000
000000
000000
000000
000000
000000
000000
ENDCHAR

STARTCHAR jisx0208_2840
ENCODING 10304
SWIDTH 960 0
DWIDTH 22 0
BBX 22 22 0 -2
BITMAP
003800
003800
003800
003800
003800
003800
003800
003800
003800
FFFFFC
FFFFFC
003800
003800
003800
003800
003800
003800
003800
003800
003800
003800
003800
ENDCHAR

STARTCHAR jisx0208_2D21
ENCODING 11553
SWIDTH 960 0
DWIDTH 22 0
BBX 22 22 0 -2
BITMAP
01FF00
0783C0
0E00E0
1C0070
383838
70781C
61F80C
E1B80C
C03804
C03804
C03804
C03804
C03804
C03804
E0380C
60380C
70381C
383838
1C0070
0E00E0
0783C0
01FF00
ENDCHAR

STARTCHAR jisx0208_2D22
ENCODING 11554
SWIDTH 960 0
DWIDTH 22 0
BBX 22 22 0 -2
BITMAP
01FF00
0783C0
0E00E0
1C0070
38FE38
71FF1C
63C78C
E3838C
C38384
C00784
C01F04
C07E04
C0F804
C1E004
E3C00C
63800C
73FF9C
3BFFB8
1C0070
0E00E0
0783C0
01FF00
ENDCHAR

STARTCHAR jisx0208_2D23
ENCODING 11555
SWIDTH 960 0
DWIDTH 22 0
BBX 22 22 0 -2
BITMAP
01FF00
0783C0
0E00E0
1C0070
38FE38
71FF1C
63C78C
E3838C
C00784
C07F04
C07E04
C00704
C00384
C38384
E3838C
63C78C
71FF1C
38FE38
1C0070
0E00E0
0783C0
01FF00
ENDCHAR

STARTCHAR jisx0208_2D24
ENCODING 11556
SWIDTH 960 0
DWIDTH 22 0
BBX 22 22 0 -2
BITMAP
01FF00
0783C0
0E00E0
1C0070
380E38
701E1C
603E0C
E07E0C
C0EE04
C0EE04
C1CE04
C3CE04
C78E04
CFFFC4
EFFFCC
600E0C
700E1C
380E38
1C0070
0E00E0
0783C0
01FF00
ENDCHAR

STARTCHAR jisx0208_2D25
ENCODING 11557
SWIDTH 960 0
DWIDTH 22 0
BBX 22 22 0 -2
BITMAP
01FF00
0783C0
0E00E0
1C0070
39FF38
71FF1C
61C00C
E1C00C
C37E04
C3FF04
C3C784
C38384
C00384
C00384
E3838C
63C78C
71FF1C
38FE38
1C0070
0E00E0
0783C0
01FF00
ENDCHAR

STARTCHAR jisx0208_2D26
ENCODING 11558
SWIDTH 960 0
DWIDTH 22 0
BBX 22 22 0 -2
BITMAP
01FF00
0783C0
0E00E0
1C0070
38FE38
71FF1C
63C78C
E3838C
C37E04
C3FF04
C3C784
C38384
C38384
C38384
E3838C
63C78C
71FF1C
38FE38
1C0070
0E00E0
0783C0
01FF00
ENDCHAR

STARTCHAR jisx0208_2D27
ENCODING 11559
SWIDTH 960 0
DWIDTH 22 0
BBX 22 22 0 -2
BITMAP
01FF00
0783C0
0E00E0
1C0070
3BFFB8
73FF9C
60070C
E00F0C
C00E04
C01E04
C01C04
C03C04
C03804
C03804
E0780C
60700C
70701C
387038
1C0070
0E00E0
0783C0
01FF00
ENDCHAR

STARTCHAR jisx0208_2D28
ENCODING 11560
SWIDTH 960 0
DWIDTH 22 0
BBX 22 22 0 -2
BITMAP
01FF00
0783C0
0E00E0
1C0070
38FE38
71FF1C
63C78C
E3838C
C3C784
C1FF04
C1FF04
C3C784
C38384
C38384
E3838C
63C78C
71FF1C
38FE38
1C0070
0E00E0
0783C0
01FF00
ENDCHAR

STARTCHAR jisx0208_2D29
ENCODING 11561
SWIDTH 960 0
DWIDTH 22 0
BBX 22 22 0 -2
BITMAP
01FF00
0783C0
0E00E0
1C0070
38FE38
71FF1C
63C78C
E3838C
C38384
C38384
C38384
C3C784
C1FF84
C0FB84
E3838C
63C78C
71FF1C
38FE38
1C0070
0E00E0
0783C0
01FF00
ENDCHAR

STARTCHAR jisx0208_2D2A
ENCODING 11562
SWIDTH 960 0
DWIDTH 22 0
BBX 22 22 0 -2
BITMAP
01FF00
0783C0
0E00E0
1C0070
371FB8
6F3FDC
6F79EC
E770EC
C770E4
C770E4
C770E4
C770E4
C770E4
C770E4
E770EC
6779EC
773FDC
371FB8
1C0070
0E00E0
0783C0
01FF00
ENDCHAR

STARTCHAR jisx0208_2D2B
ENCODING 11563
SWIDTH 960 0
DWIDTH 22 0
BBX 22 22 0 -2
BITMAP
01FF00
0783C0
0E00E0
1C0070
3701B8
6F03DC
6F03CC
E701CC
C701C4
C701C4
C701C4
C701C4
C701C4
C701C4
E701CC
6701CC
7701DC
3701B8
1C0070
0E00E0
0783C0
01FF00
ENDCHAR

STARTCHAR jisx0208_2D2C
ENCODING 11564
SWIDTH 960 0
DWIDTH 22 0
BBX 22 22 0 -2
BITMAP
01FF00
0783C0
0E00E0
1C0070
371FB8
6F3FDC
6F79EC
E770EC
C770E4
C701E4
C707C4
C70F84
C71E04
C73C04
E7380C
67780C
777FDC
377FF8
1C0070
0E00E0
0783C0
01FF00
ENDCHAR

STARTCHAR jisx0208_2D2D
ENCODING 11565
SWIDTH 960 0
DWIDTH 22 0
BBX 22 22 0 -2
BITMAP
01FF00
0783C0
0E00E0
1C0070
371FB8
6F3FDC
6F79EC
E770EC
C701E4
C71FC4
C71FC4
C701E4
C700E4
C770E4
E770EC
6779EC
773FDC
371FB8
1C0070
0E00E0
0783C0
01FF00
ENDCHAR

STARTCHAR jisx0208_2D2E
ENCODING 11566
SWIDTH 960 0
DWIDTH 22 0
BBX 22 22 0 -2
BITMAP
01FF00
0783C0
0E00E0
1C0070
3701B8
6F03DC
6F07CC
E707CC
C70DC4
C71DC4
C73DC4
C739C4
C771C4
C6FFF4
E6FFEC
6701CC
7701DC
3701B8
1C0070
0E00E0
0783C0
01FF00
ENDCHAR

STARTCHAR jisx0208_2D2F
ENCODING 11567
SWIDTH 960 0
DWIDTH 22 0
BBX 22 22 0 -2
BITMAP
01FF00
0783C0
0E00E0
1C0070
377FB8
6F7FDC
6F700C
E7700C
C76F84
C77FC4
C779E4
C770E4
C700E4
C700E4
E770EC
6779EC
773FDC
371FB8
1C0070
0E00E0
0783C0
01FF00
ENDCHAR

STARTCHAR jisx0208_2D30
ENCODING 11568
SWIDTH 960 0
DWIDTH 22 0
BBX 22 22 0 -2
BITMAP
01FF00
0783C0
0E00E0
1C0070
371FB8
6F3FDC
6F79EC
E770EC
C77004
C76F84
C77FC4
C779E4
C770E4
C770E4
E770EC
6779EC
773FDC
371FB8
1C0070
0E00E0
0783C0
01FF00
ENDCHAR

STARTCHAR jisx0208_2D31
ENCODING 11569
SWIDTH 960 0
DWIDTH 22 0
BBX 22 22 0 -2
BITMAP
01FF00
0783C0
0E00E0
1C0070
377FF8
6F7FDC
6F01CC
E7038C
C70384
C70704
C70704
C70704
C70E04
C70E04
E70E0C
670E0C
770E1C
370E38
1C0070
0E00E0
0783C0
01FF00
ENDCHAR

STARTCHAR jisx0208_2D32
ENCODING 11570
SWIDTH 960 0
DWIDTH 22 0
BBX 22 22 0 -2
BITMAP
01FF00
0783C0
0E00E0
1C0070
371FB8
6F3FDC
6F79EC
E770EC
C779E4
C73FC4
C73FC4
C779E4
C770E4
C770E4
E770EC
6779EC
773FDC
371FB8
1C0070
0E00E0
0783C0
01FF00
ENDCHAR

STARTCHAR jisx0208_2D33
ENCODING 11571
SWIDTH 960 0
DWIDTH 22 0
BBX 22 22 0 -2
BITMAP
01FF00
0783C0
0E00E0
1C0070
371FB8
6F3FDC
6F79EC
E770EC
C770E4
C770E4
C779E4
C73FE4
C71EE4
C700E4
E770EC
6779EC
773FDC
371FB8
1C0070
0E00E0
0783C0
01FF00
ENDCHAR

STARTCHAR jisx0208_2D34
ENCODING 11572
SWIDTH 960 0
DWIDTH 22 0
BBX 22 22 0 -2
BITMAP
01FF00
0783C0
0E00E0
1C0070
3BC3B8
77E7DC
6E6E6C
EE6E6C
CE6E74
C06E74
C0EE74
C1EE74
C3CE74
C78E74
E70E6C
6E0E6C
6FF7DC
3FF3B8
1C0070
0E00E0
0783C0
01FF00
ENDCHAR

STARTCHAR jisx0208_2D35
ENCODING 11573
SWIDTH 960 0
DWIDTH 22 0
BBX 22 22 0 -2
BITMAP
000000
000000
003800
003800
003800
003800
003800
003800
003800
003800
003800
003800
003800
003800
003800
003800
003800
003800
003800
003800
000000
000000
ENDCHAR

STARTCHAR jisx0208_2D36
ENCODING 11574
SWIDTH 960 0
DWIDTH 22 0
BBX 22 22 0 -2
BITMAP
000000
000000
038380
038380
038380
038380
038380
038380
038380
038380
038380
038380
038380
038380
038380
038380
038380
038380
038380
038380
000000
000000
ENDCHAR

STARTCHAR jisx0208_2D37
ENCODING 11575
SWIDTH 960 0
DWIDTH 22 0
BBX 22 22 0 -2
BITMAP
000000
000000
1C3870
1C3870
1C3870
1C3870
1C3870
1C3870
1C3870
1C3870
1C3870
1C3870
1C3870
1C3870
1C3870
1C3870
1C3870
1C3870
1C3870
1C3870
000000
000000
ENDCHAR

STARTCHAR jisx0208_2D38
ENCODING 11576
SWIDTH 960 0
DWIDTH 22 0
BBX 22 22 0 -2
BITMAP
000000
000000
39C01C
39C01C
39C01C
38E038
38E038
38E038
387070
387070
3838E0
3838E0
3838E0
381DC0
381DC0
381DC0
380F80
380F80
380700
380700
000000
000000
ENDCHAR

STARTCHAR jisx0208_2D39
ENCODING 11577
SWIDTH 960 0
DWIDTH 22 0
BBX 22 22 0 -2
BITMAP
000000
000000
1C0070
1C0070
0E00E0
0E00E0
0701C0
0701C0
0701C0
038380
038380
01C700
01C700
00EE00
00EE00
00EE00
007C00
007C00
003800
003800
000000
000000
ENDCHAR

STARTCHAR jisx0208_2D3A
ENCODING 11578
SWIDTH 960 0
DWIDTH 22 0
BBX 22 22 0 -2
BITMAP
000000
000000
700738
700738
700738
380E38
380E38
380E38
1C1C38
1C1C38
0E3838
0E3838
0E3838
077038
077038
077038
03E038
03E038
01C038
01C038
000000
000000
ENDCHAR

STARTCHAR jisx0208_2D3B
ENCODING 11579
SWIDTH 960 0
DWIDTH 22 0
BBX 22 22 0 -2
BITMAP
000000
000000
E03B9C
E03B9C
E03B9C
70739C
70739C
70739C
38E39C
38E39C
38E39C
1DC39C
1DC39C
1DC39C
0F839C
0F839C
0F839C
07039C
07039C
07039C
000000
000000
ENDCHAR

STARTCHAR jisx0208_2D3C
ENCODING 11580
SWIDTH 960 0
DWIDTH 22 0
BBX 22 22 0 -2
BITMAP
000000
000000
E0DDDC
E0DDDC
E0DDDC
E0DDDC
71DDDC
71DDDC
71DDDC
71DDDC
3B9DDC
3B9DDC
3B9DDC
3B9DDC
1F1DDC
1F1DDC
1F1DDC
0E1DDC
0E1DDC
0E1DDC
000000
000000
ENDCHAR

STARTCHAR jisx0208_2D3D
ENCODING 11581
SWIDTH 960 0
DWIDTH 22 0
BBX 22 22 0 -2
BITMAP
000000
000000
39E078
38E070
3870E0
3879E0
3839C0
381B80
381F80
380F00
380F00
380F00
381B80
383BC0
3839C0
3870E0
38F0F0
38E070
39C038
3BC03C
000000
000000
ENDCHAR

STARTCHAR jisx0208_2D3E
ENCODING 11582
SWIDTH 960 0
DWIDTH 22 0
BBX 22 22 0 -2
BITMAP
000000
000000
0F01E0
0783C0
038380
01C700
01EF00
00EE00
007C00
007C00
003800
007C00
00FE00
00EE00
01C700
03C780
038380
0701C0
0F01E0
1E00F0
000000
000000
ENDCHAR

STARTCHAR jisx0208_2D40
ENCODING 11584
SWIDTH 960 0
DWIDTH 22 0
BBX 22 22 0 -2
BITMAP
3E0000
3FC000
03C000
3C0000
3F8000
078000
000000
7C0000
7F8000
07E000
00E000
00071C
00071C
00071C
00071C
00071C
00071C
00071C
00003C
000078
0001F0
0001E0
ENDCHAR

STARTCHAR jisx0208_2D41
ENCODING 11585
SWIDTH 960 0
DWIDTH 22 0
BBX 22 22 0 -2
BITMAP
0E0000
0E0000
7FE000
7FE000
070000
070000
7FF000
7FF000
070000
070000
070000
000000
000FFC
000FFC
000E1C
000E1C
000E1C
000E1C
000FFC
000FFC
000E1C
000000
ENDCHAR

STARTCHAR jisx0208_2D42
ENCODING 11586
SWIDTH 960 0
DWIDTH 22 0
BBX 22 22 0 -2
BITMAP
380600
380F00
3FE780
FFF30C
F8E01C
39C03C
3B8078
3800F0
3FEFE0
1FEF80
000000
03C000
7FE000
3F0000
070000
FFF000
FFF000
070000
070000
0F0000
3E0000
3C0000
ENDCHAR

STARTCHAR jisx0208_2D43
ENCODING 11587
SWIDTH 960 0
DWIDTH 22 0
BBX 22 22 0 -2
BITMAP
00E000
00E000
0CE000
1DC000
0FCFFC
078FFC
0FC000
3DE000
FCC000
700000
000000
1C00E0
1C06E0
1C06E0
1C06E0
1F06E0
1FC6EC
1DC6DC
1C06FC
1C0EF8
1C1EF0
1C0C60
ENDCHAR

STARTCHAR jisx0208_2D44
ENCODING 11588
SWIDTH 960 0
DWIDTH 22 0
BBX 22 22 0 -2
BITMAP
0EB000
0EB7F8
1FE7F8
3FE000
78EFFC
F1CFFC
63C01C
078038
0F0078
7E03F0
7803C0
000000
0E0000
0E0000
0E0000
1C0000
1DC000
39E000
38E000
77F000
FF7000
FC7000
ENDCHAR

STARTCHAR jisx0208_2D45
ENCODING 11589
SWIDTH 960 0
DWIDTH 22 0
BBX 22 22 0 -2
BITMAP
1C0000
1C0000
1C0000
1C0000
1F0000
1FC000
1DC000
1C0000
1C0000
1C0000
1C0000
000600
000F00
000780
00030C
00001C
00003C
000078
0000F0
000FE0
000F80
000000
ENDCHAR

STARTCHAR jisx0208_2D46
ENCODING 11590
SWIDTH 960 0
DWIDTH 22 0
BBX 22 22 0 -2
BITMAP
000000
FFE000
FFF000
00E000
0DCFFC
0D8FFC
0E0000
1E0000
3C0000
780000
300000
070000
370000
370000
370000
370000
376000
36F000
37E000
77C000
F78000
630000
ENDCHAR

STARTCHAR jisx0208_2D47
ENCODING 11591
SWIDTH 960 0
DWIDTH 22 0
BBX 22 22 0 -2
BITMAP
0000E0
0C00E0
1E01FC
3F03FC
77878C
F3CF1C
61E63C
00F078
0060F0
0007E0
000780
1C0000
1C0070
3FC370
7FC370
F1C370
5B7B70
0F7B74
07036C
1F877C
7D8F78
700630
ENDCHAR

STARTCHAR jisx0208_2D48
ENCODING 11592
SWIDTH 960 0
DWIDTH 22 0
BBX 22 22 0 -2
BITMAP
71C000
71C000
71C000
71C0E0
71C6DC
71C6DC
03C73C
078078
1F03F0
1E03E0
000000
1C00E0
1C06E0
1C06E0
1C06E0
1F06E0
1FC6EC
1DC6DC
1C06FC
1C0EF8
1C1EF0
1C0C60
ENDCHAR

STARTCHAR jisx0208_2D49
ENCODING 11593
SWIDTH 960 0
DWIDTH 22 0
BBX 22 22 0 -2
BITMAP
000000
7FE000
7FE000
70E0E0
70E6DC
70E6DC
01C73C
03C078
1F83F0
1E03E0
000000
1C0000
1C0000
1C0000
1C0000
1F0000
1FC000
1DC000
1C0000
1C0000
1C0000
1C0000
ENDCHAR

STARTCHAR jisx0208_2D4A
ENCODING 11594
SWIDTH 960 0
DWIDTH 22 0
BBX 22 22 0 -2
BITMAP
1C0000
1C0000
FFEFFC
FFEFFC
1CEE1C
1CEE1C
3CEE1C
38EE1C
78EFFC
F7EFFC
63CE1C
000000
71C000
71C000
71C000
71C000
71CFFC
71CFFC
03C000
078000
1F0000
1E0000
ENDCHAR

STARTCHAR jisx0208_2D4B
ENCODING 11595
SWIDTH 960 0
DWIDTH 22 0
BBX 22 22 0 -2
BITMAP
1CB000
1CB000
1CB000
1C0000
1F0000
1FC000
1DC000
1C0000
1C0000
1C0000
1C0000
0000E0
0006E0
0006E0
0006E0
0006E0
0006EC
0006DC
0006FC
000EF8
001EF0
000C60
ENDCHAR

STARTCHAR jisx0208_2D4C
ENCODING 11596
SWIDTH 960 0
DWIDTH 22 0
BBX 22 22 0 -2
BITMAP
380600
380F00
3FE780
FFF30C
F8E01C
39C03C
3B8078
3800F0
3FEFE0
1FEF80
000000
1C0000
1C0000
1C0000
1C0000
1F0000
1FC000
1DC000
1C0000
1C0000
1C0000
1C0000
ENDCHAR

STARTCHAR jisx0208_2D4D
ENCODING 11597
SWIDTH 960 0
DWIDTH 22 0
BBX 22 22 0 -2
BITMAP
00E000
3BB000
3BB000
39E000
39CFFC
70EFFC
70E000
E0E000
E0E000
000000
000000
000000
706070
70F070
7F7B70
FFB378
F7037C
6E076C
6C0F70
701E70
7F7C70
3F7870
ENDCHAR

STARTCHAR jisx0208_2D4E
ENCODING 11598
SWIDTH 960 0
DWIDTH 22 0
BBX 22 22 0 -2
BITMAP
3E071C
3F871C
03871C
3E071C
3F871C
03871C
7C003C
7F0078
07C1F0
01C1E0
000000
000000
016070
376370
370370
3B8370
3B7B70
71FB74
71C36C
E1C77C
E1CF78
000630
ENDCHAR

STARTCHAR jisx0208_2D4F
ENCODING 11599
SWIDTH 960 0
DWIDTH 22 0
BBX 22 22 0 -2
BITMAP
00E000
0DB000
1DB000
3EE000
778FFC
F3CFFC
61E000
00F000
006000
000000
000000
00B000
30B000
7CB000
180000
606000
F8F000
31E000
03C000
078000
7F0000
7C0000
ENDCHAR

STARTCHAR jisx0208_2D50
ENCODING 11600
SWIDTH 960 0
DWIDTH 22 0
BBX 22 22 0 -2
BITMAP
000000
000000
000000
000000
000000
000000
000000
DDCDDC
FFEFFC
EEEEEC
EEEEEC
EEEEEC
EEEEEC
EEEEEC
EEEEEC
EEEEEC
EEEEEC
EEEEEC
EEEEEC
EEEEEC
000000
000000
ENDCHAR

STARTCHAR jisx0208_2D51
ENCODING 11601
SWIDTH 960 0
DWIDTH 22 0
BBX 22 22 0 -2
BITMAP
000000
000000
000000
000000
000000
000000
000000
0F1BB8
3FDFFC
39DDDC
70DDDC
70DDDC
701DDC
701DDC
701DDC
70DDDC
70DDDC
39DDDC
3FDDDC
0F1DDC
000000
000000
ENDCHAR

STARTCHAR jisx0208_2D52
ENCODING 11602
SWIDTH 960 0
DWIDTH 22 0
BBX 22 22 0 -2
BITMAP
000000
000000
700000
700000
700000
700000
700000
71DBB8
73DFFC
779DDC
6F1DDC
7E1DDC
7E1DDC
771DDC
771DDC
739DDC
739DDC
71DDDC
71DDDC
71DDDC
000000
000000
ENDCHAR

STARTCHAR jisx0208_2D53
ENCODING 11603
SWIDTH 960 0
DWIDTH 22 0
BBX 22 22 0 -2
BITMAP
000000
000000
000000
000000
000000
000000
000000
6EE1DC
7FF3FC
77773C
77771C
77771C
77771C
77771C
77773C
7773FC
7771DC
77701C
77771C
77771C
0003F8
0001F0
ENDCHAR

STARTCHAR jisx0208_2D54
ENCODING 11604
SWIDTH 960 0
DWIDTH 22 0
BBX 22 22 0 -2
BITMAP
000000
000000
380000
380000
380000
380000
380000
38E3B8
39E7F8
3BCE78
378E38
3F0E38
3F0E38
3B8E38
3B8E78
39C7F8
39C3B8
38E038
38EE38
38EE38
0007F0
0003E0
ENDCHAR

STARTCHAR jisx0208_2D55
ENCODING 11605
SWIDTH 960 0
DWIDTH 22 0
BBX 22 22 0 -2
BITMAP
000000
000000
000000
000000
000000
000000
000000
0F01E0
3FC7F8
39C738
70EE1C
70EE1C
700E00
700E00
700E00
70EE1C
70EE1C
39C738
3FC7F8
0F01E0
000000
000000
ENDCHAR

STARTCHAR jisx0208_2D56
ENCODING 11606
SWIDTH 960 0
DWIDTH 22 0
BBX 22 22 0 -2
BITMAP
000078
0000DC
0000DC
000038
000070
0000FC
000000
1BE7C0
1FEFE0
1E7CF0
1C3870
1C3870
1C3870
1C3870
1C3870
1C3870
1C3870
1C3870
1C3870
1C3870
000000
000000
ENDCHAR

STARTCHAR jisx0208_2D5F
ENCODING 11615
SWIDTH 960 0
DWIDTH 22 0
BBX 22 22 0 -2
BITMAP
0000D8
FFF0BC
FFF0DC
0600CC
36DFFC
76DFFC
76D8C0
36D8C0
35D8D8
35DEDC
36DEDC
061AD8
FFFAB8
FFFAB8
061AF0
061B70
061B74
061EF4
0635B4
063BBC
06779C
06330C
ENDCHAR

STARTCHAR jisx0208_2D60
ENCODING 11616
SWIDTH 960 0
DWIDTH 22 0
BBX 22 22 0 -2
BITMAP
00006C
00006C
0000DC
0000DC
0001B8
0001B8
000000
000000
000000
000000
000000
000000
000000
000000
000000
000000
000000
000000
000000
000000
000000
000000
ENDCHAR

STARTCHAR jisx0208_2D61
ENCODING 11617
SWIDTH 960 0
DWIDTH 22 0
BBX 22 22 0 -2
BITMAP
000000
000000
000000
000000
000000
000000
000000
000000
000000
000000
000000
000000
000000
000000
000000
000000
370000
370000
6E0000
6E0000
DC0000
DC0000
ENDCHAR

STARTCHAR jisx0208_2D62
ENCODING 11618
SWIDTH 960 0
DWIDTH 22 0
BBX 22 22 0 -2
BITMAP
000000
000000
70E000
70E000
78E000
78E000
7CE000
7CE3C0
7CEFF0
6EEE70
6EDC38
76DC38
76DC38
73DC38
73DC38
73DC38
71DC38
71EE70
70EFEC
70E3CC
000000
000000
ENDCHAR

STARTCHAR jisx0208_2D63
ENCODING 11619
SWIDTH 960 0
DWIDTH 22 0
BBX 22 22 0 -2
BITMAP
000000
000000
738E70
738E70
770EE0
770EE0
6E0DC0
6E0DC0
7C0F80
7C0F80
7E0FC0
6E0DC0
6E0DC0
770EE0
770EE0
738E70
738E70
738E70
71AE34
71AE34
000000
000000
ENDCHAR

STARTCHAR jisx0208_2D64
ENCODING 11620
SWIDTH 960 0
DWIDTH 22 0
BBX 22 22 0 -2
BITMAP
000000
000000
FF7EE0
FF7EE0
1C70E0
1C70E0
1C70E0
1C70E0
1C70E0
1C7EE0
1C7EE0
1C70E0
1C70E0
1C70E0
1C70E0
1C70E0
1C70E0
1C70E0
1C7EFC
1C7EFC
000000
000000
ENDCHAR

STARTCHAR jisx0208_2D65
ENCODING 11621
SWIDTH 960 0
DWIDTH 22 0
BBX 22 22 0 -2
BITMAP
01FF00
0783C0
0E00E0
1C7070
387038
70701C
60700C
E07FCC
C07FC4
C07004
C07004
C07004
C07004
C07004
E0700C
6FFFEC
6FFFDC
380038
1C0070
0E00E0
0783C0
01FF00
ENDCHAR

STARTCHAR jisx0208_2D66
ENCODING 11622
SWIDTH 960 0
DWIDTH 22 0
BBX 22 22 0 -2
BITMAP
01FF00
0783C0
0E00E0
1C3870
383838
70381C
6FFFEC
EFFFEC
CE38E4
CE38E4
CE38E4
CFFFE4
CFFFE4
CE38E4
E0380C
60380C
70381C
383838
1C3870
0E00E0
0783C0
01FF00
ENDCHAR

STARTCHAR jisx0208_2D67
ENCODING 11623
SWIDTH 960 0
DWIDTH 22 0
BBX 22 22 0 -2
BITMAP
01FF00
0783C0
0E00E0
1C0070
380038
6FFFDC
6FFFEC
E0700C
C07004
C06C04
C07F04
C06F84
C073C4
C07184
E0700C
60700C
70701C
387038
1C7070
0E00E0
0783C0
01FF00
ENDCHAR

STARTCHAR jisx0208_2D68
ENCODING 11624
SWIDTH 960 0
DWIDTH 22 0
BBX 22 22 0 -2
BITMAP
01FF00
0783C0
0E00E0
1CE070
38E038
6FFFDC
6FFFEC
E1C00C
C1C004
C38004
C3FFC4
C7FFC4
CF1C04
DE1C04
EC1C0C
601C0C
73FFDC
3BFFF8
1C0070
0E00E0
0783C0
01FF00
ENDCHAR

STARTCHAR jisx0208_2D69
ENCODING 11625
SWIDTH 960 0
DWIDTH 22 0
BBX 22 22 0 -2
BITMAP
01FF00
0783C0
0E00E0
1C7070
387038
6FFFDC
6FFFEC
E0E00C
C0E004
C1C004
C3FFC4
C7FFC4
CFC1C4
DDC1C4
EDC1CC
61FFCC
71FFDC
39C1B8
1C0070
0E00E0
0783C0
01FF00
ENDCHAR

STARTCHAR jisx0208_2D6A
ENCODING 11626
SWIDTH 960 0
DWIDTH 22 0
BBX 22 22 0 -2
BITMAP
180030
3C0078
370738
77371C
77371C
773FDC
DF7FEC
DF770C
E7070C
EF7FEC
EFFFEC
DECF8C
DF1FCC
F71FCC
D736EC
E776EC
76F77C
77673C
77071C
370738
3C0078
180030
ENDCHAR

STARTCHAR jisx0208_2D6B
ENCODING 11627
SWIDTH 960 0
DWIDTH 22 0
BBX 22 22 0 -2
BITMAP
180030
3C0078
387038
70701C
6FFFDC
6FFFDC
E0E00C
E1C00C
E1FF8C
E3FF8C
E7C38C
EFFF8C
DDFF8C
EDC38C
E1FF8C
E1FF8C
71C39C
71C39C
71DF9C
39CF38
3C0078
180030
ENDCHAR

STARTCHAR jisx0208_2D6C
ENCODING 11628
SWIDTH 960 0
DWIDTH 22 0
BBX 22 22 0 -2
BITMAP
180030
3C0078
398E38
71CF9C
73CDDC
738EDC
E78E0C
E70FEC
EEFFEC
EEFE0C
DF0E0C
F70E0C
D70E0C
E7070C
E7070C
E7076C
77035C
7703DC
7701DC
3700B8
3C0078
180030
ENDCHAR

STARTCHAR jisx0208_2D6D
ENCODING 11629
SWIDTH 960 0
DWIDTH 22 0
BBX 22 22 0 -2
BITMAP
0000C0
07ECF0
F7DCE0
F66EE0
D66CD8
D661BC
D661DC
D7D98C
F7F7FC
F65BEC
D65B0C
D66000
D7E5FC
D7E7FC
F6658C
F66D8C
C66D8C
0E6D8C
0E5D8C
1C5DFC
3BF9FC
19D98C
ENDCHAR

STARTCHAR jisx0208_2D6E
ENCODING 11630
SWIDTH 960 0
DWIDTH 22 0
BBX 22 22 0 -2
BITMAP
060000
060000
060FFC
060FFC
0600C0
7FE0C0
7FE0C0
0600C0
0600C0
0606C0
0F06FC
0F06FC
0F06C0
0B06C0
1B86C0
1B86C0
1986C0
39C6C0
39C6C0
70DFFC
F0FFFC
606000
ENDCHAR

STARTCHAR jisx0208_2D6F
ENCODING 11631
SWIDTH 960 0
DWIDTH 22 0
BBX 22 22 0 -2
BITMAP
000180
0FE7C0
FFDF7C
FB6B7C
DB6364
DB6364
D76364
D65FE4
DEDFE4
FBE364
FDC764
D80764
D7EFE4
D7EAE4
D65B64
D67B64
D65B64
F66364
F66364
C7E37C
07E37C
066364
ENDCHAR

STARTCHAR jisx0208_2D70
ENCODING 11632
SWIDTH 960 0
DWIDTH 22 0
BBX 22 22 0 -2
BITMAP
000000
000000
000000
03C000
03C000
03C000
000000
000000
1FFFF0
1FFFF0
000000
000000
1FFFF0
1FFFF0
000000
000000
000780
000780
000780
000000
000000
000000
ENDCHAR

STARTCHAR jisx0208_2D71
ENCODING 11633
SWIDTH 960 0
DWIDTH 22 0
BBX 22 22 0 -2
BITMAP
000000
000000
000000
000000
000000
000000
1FFFF0
1FFFF0
000000
000000
1FFFF0
1FFFF0
000000
000000
1FFFF0
1FFFF0
000000
000000
000000
000000
000000
000000
ENDCHAR

STARTCHAR jisx0208_2D72
ENCODING 11634
SWIDTH 960 0
DWIDTH 22 0
BBX 22 22 0 -2
BITMAP
003E00
007F00
00F780
00E300
00E000
00E000
007000
007000
007000
007000
007000
003800
003800
003800
003800
003800
001C00
001C00
031C00
07BC00
03F800
01F000
ENDCHAR

STARTCHAR jisx0208_2D73
ENCODING 11635
SWIDTH 960 0
DWIDTH 22 0
BBX 22 22 0 -2
BITMAP
003E00
007F00
00F780
00E300
00E000
00E000
00FC00
01EE00
037700
037300
037300
033B00
03B700
01BE00
00FC00
003800
001C00
001C00
031C00
07BC00
03F800
01F000
ENDCHAR

STARTCHAR jisx0208_2D74
ENCODING 11636
SWIDTH 960 0
DWIDTH 22 0
BBX 22 22 0 -2
BITMAP
000000
000000
0FFFC0
0FFFC0
078000
03C000
01E000
00F000
007800
003C00
003C00
007800
00F000
00E000
01C000
03C000
078000
0F0000
0FFFC0
0FFFC0
000000
000000
ENDCHAR

STARTCHAR jisx0208_2D75
ENCODING 11637
SWIDTH 960 0
DWIDTH 22 0
BBX 22 22 0 -2
BITMAP
001FFC
001FFC
001C00
003800
003800
003800
003800
007000
007000
007000
00E000
00E000
1CE000
3CE000
7DC000
EDC000
67C000
078000
038000
038000
000000
000000
ENDCHAR

STARTCHAR jisx0208_2D76
ENCODING 11638
SWIDTH 960 0
DWIDTH 22 0
BBX 22 22 0 -2
BITMAP
000000
000000
000000
003800
003800
003800
003800
003800
003800
003800
003800
003800
003800
003800
003800
003800
003800
1FFFF0
1FFFF0
000000
000000
000000
ENDCHAR

STARTCHAR jisx0208_2D77
ENCODING 11639
SWIDTH 960 0
DWIDTH 22 0
BBX 22 22 0 -2
BITMAP
000000
000000
000060
0000E0
0001E0
0003C0
000780
000F00
001E00
003C00
003800
007800
00F000
01E000
03C000
078000
0F0000
1FFFF0
1FFFF0
000000
000000
000000
ENDCHAR

STARTCHAR jisx0208_2D78
ENCODING 11640
SWIDTH 960 0
DWIDTH 22 0
BBX 22 22 0 -2
BITMAP
000000
000000
000000
1C0000
1C0000
1C0000
1C0000
1C0000
1C0000
1C0000
1C0000
1C0000
1C0000
1C0000
1C0000
1C0000
1C0000
1FFFF0
1FFFF0
000000
000000
000000
ENDCHAR

STARTCHAR jisx0208_2D79
ENCODING 11641
SWIDTH 960 0
DWIDTH 22 0
BBX 22 22 0 -2
BITMAP
000000
000000
000030
000070
0000F0
0001F0
0003F0
000770
000F70
001E70
003C70
007870
00F070
01E070
03C070
078070
0F0070
1FFFF0
3FFFF0
000000
000000
000000
ENDCHAR

STARTCHAR jisx0208_2D7A
ENCODING 11642
SWIDTH 960 0
DWIDTH 22 0
BBX 22 22 0 -2
BITMAP
000000
000000
000000
1C0070
3E00F8
3E00F8
1C0070
000000
000000
000000
000000
000000
000000
000000
000000
003800
007C00
007C00
003800
000000
000000
000000
ENDCHAR

STARTCHAR jisx0208_2D7B
ENCODING 11643
SWIDTH 960 0
DWIDTH 22 0
BBX 22 22 0 -2
BITMAP
000000
000000
000000
00FE00
03FF80
0783C0
0701C0
0E00E0
0E00E0
0E00E0
0E00E0
0E00E0
0E00E0
0E00E0
0E00E0
0E00E0
0E00E0
0E00E0
0E00E0
000000
000000
000000
ENDCHAR

STARTCHAR jisx0208_2D7C
ENCODING 11644
SWIDTH 960 0
DWIDTH 22 0
BBX 22 22 0 -2
BITMAP
000000
000000
000000
0E00E0
0E00E0
0E00E0
0E00E0
0E00E0
0E00E0
0E00E0
0E00E0
0E00E0
0E00E0
0E00E0
0E00E0
0701C0
0783C0
03FF80
00FE00
000000
000000
000000
ENDCHAR

STARTCHAR jisx0208_3021
ENCODING 12321
SWIDTH 960 0
DWIDTH 22 0
BBX 22 22 0 -2
BITMAP
7FFFFC
7FFFFC
7FFFFC
01C700
01C700
01C700
3FFFF8
3FFFF8
3FFFF8
39C738
39C738
39C738
3FFFF8
3FFFF8
3FFFF8
39C738
39C738
01C700
01C700
FFFFFC
FFFFFC
FFFFFC
ENDCHAR

STARTCHAR jisx0208_3022
ENCODING 12322
SWIDTH 960 0
DWIDTH 22 0
BBX 22 22 0 -2
BITMAP
01FFFC
FDFFFC
FFFFFC
FE1DC0
EE1DC0
EE1DC0
EFFFFC
EDFFFC
EDFFFC
EDDDDC
EDDDDC
EDDDDC
FDFFFC
FDFFFC
FDFFFC
E1DDDC
E01DC0
001DC0
001DC0
03FFFC
03FFFC
03FFFC
ENDCHAR

STARTCHAR jisx0208_3023
ENCODING 12323
SWIDTH 960 0
DWIDTH 22 0
BBX 22 22 0 -2
BITMAP
1C0380
1C0380
1C3FFC
FFBFFC
FFBFFC
FF8380
3B8380
3BFFFC
3B7FFC
7BFFFC
738000
778380
F70380
FF7FFC
DE7FFC
0FFFFC
1F8380
3BC380
7D8380
F87FFC
F0FFFC
60FFFC
ENDCHAR

STARTCHAR jisx0208_3024
ENCODING 12324
SWIDTH 960 0
DWIDTH 22 0
BBX 22 22 0 -2
BITMAP
FF7FFC
FF7FFC
FF7FFC
E70038
EF0038
EE3FB8
FE3FB8
DC3FB8
FE3BB8
EF3BB8
E73BB8
E7BBB8
E3BBB8
E3BFB8
E3BFB8
FFBFB8
DFBBB8
EF3838
E00038
E001F8
E001F8
E000F0
ENDCHAR

STARTCHAR jisx0208_3025
ENCODING 12325
SWIDTH 960 0
DWIDTH 22 0
BBX 22 22 0 -2
BITMAP
003800
FFFFFC
FFFFFC
FFFFFC
000000
1FFFF0
1FFFF0
1FFFF0
1C0070
1FFFF0
1FFFF0
1FFFF0
00DC08
07CE3C
1F8EFC
FF87F8
FB87E0
73BBC0
03FDF8
3FFCFC
3FE07C
1E001C
ENDCHAR

STARTCHAR jisx0208_3026
ENCODING 12326
SWIDTH 960 0
DWIDTH 22 0
BBX 22 22 0 -2
BITMAP
7FFFF8
7FFFF8
3FFE60
0E71F0
F7BFCC
FFFFFC
FFFFFC
E0300C
DBFB3C
3BBB70
7BDFFC
79FFBC
30E018
03DFC0
0FFFE0
3FFFE0
FDC1C0
F8FF80
637E40
9FEFFC
FFC3FC
7E007C
ENDCHAR

STARTCHAR jisx0208_3027
ENCODING 12327
SWIDTH 960 0
DWIDTH 22 0
BBX 22 22 0 -2
BITMAP
1C0700
1C0F30
1C0E78
FF1E7C
FFFDBC
FEFFFC
1CFFDC
1C180C
1F3FF0
1B7FFC
3FFFFC
FEF380
FC6380
DC9FFC
1CFFFC
1CFFFC
1C07C0
1C1EF0
1C3EF8
FDFC7C
FDF83C
78E01C
ENDCHAR

STARTCHAR jisx0208_3028
ENCODING 12328
SWIDTH 960 0
DWIDTH 22 0
BBX 22 22 0 -2
BITMAP
1C0780
1C07C0
1C0FC0
FF8DE0
FF9EF0
FF9CF0
3BBC78
3BFBBC
3B7FFC
7BEFDC
73600C
738000
77BFF8
FF3FF8
FF3FF8
6FB838
1FB838
3BB838
7DBFF8
F83FF8
F03FF8
603838
ENDCHAR

STARTCHAR jisx0208_3029
ENCODING 12329
SWIDTH 960 0
DWIDTH 22 0
BBX 22 22 0 -2
BITMAP
F03800
F87FE0
7CFFE0
3FF8E0
1BDFC0
018F80
007FF8
07FDFC
07E77C
FB9F8C
FCFFF8
FC0700
1C7FF0
1C7FF0
1C0700
1DFFFC
1DFFFC
3C0700
7F0700
FFF8FC
F7FFFC
61FFFC
ENDCHAR

STARTCHAR jisx0208_302A
ENCODING 12330
SWIDTH 960 0
DWIDTH 22 0
BBX 22 22 0 -2
BITMAP
038380
FFFFFC
FFFFFC
FFFFFC
038380
3C5CE0
3FFFF8
00EFDC
3FC7BC
1FBBF8
EFFFF4
FBFF7C
70381C
0FFFE0
3FFFF8
3FFFF8
007C00
01EF80
07E7E0
7FC3FC
7F00FC
3C0038
ENDCHAR

STARTCHAR jisx0208_302B
ENCODING 12331
SWIDTH 960 0
DWIDTH 22 0
BBX 22 22 0 -2
BITMAP
038700
FFFFFC
FFFFFC
FFFFFC
038700
FC78FC
FFFFFC
FFFFFC
01CE00
3FFFF8
3FFFF8
3FFFF8
39CE38
3BCEF8
3F8FF8
378FF8
3F07B8
360038
39FFF8
3FFFF8
3FFFF8
380038
ENDCHAR

STARTCHAR jisx0208_302C
ENCODING 12332
SWIDTH 960 0
DWIDTH 22 0
BBX 22 22 0 -2
BITMAP
FFBC00
FFFBC0
7C7FC0
1DF1C0
1CEFB8
FF7FF8
FF7738
FF7FF8
1C7738
3F7FF8
3FFFF8
7F8700
7AFFF8
FCE738
DCFFF8
5CE738
1CFFF8
1CFFFC
1CE70C
1CE7FC
1C07FC
1C03FC
ENDCHAR

STARTCHAR jisx0208_302D
ENCODING 12333
SWIDTH 960 0
DWIDTH 22 0
BBX 22 22 0 -2
BITMAP
7FFFF8
7FFFF8
7FFFF8
01CE00
3FFFF0
3FFFF0
3FFFF0
39CE70
3FFFF0
3FFFF0
3FFFF0
01CE00
FFFFFC
FFFFFC
FFFFFC
001800
3BBE78
3B9FFC
7B8DBC
F3F3DC
F3FFCC
61FF80
ENDCHAR

STARTCHAR jisx0208_302E
ENCODING 12334
SWIDTH 960 0
DWIDTH 22 0
BBX 22 22 0 -2
BITMAP
1CFFFC
1CFFFC
1CFFFC
FEE01C
FEFFFC
FEFFFC
1CE000
1CFFFC
1EFFFC
1AE3B0
3EE77C
FEFFBC
FCDFFC
DCFFEC
1CE1C0
1CFFFC
1CDFFC
1DDFFC
1DC1C0
FFFFFC
FBBFFC
79BFFC
ENDCHAR

STARTCHAR jisx0208_302F
ENCODING 12335
SWIDTH 960 0
DWIDTH 22 0
BBX 22 22 0 -2
BITMAP
7DFFFC
7DFFFC
1DFFFC
0DC01C
01FFFC
61FFFC
F9C000
FDFFFC
3DFFFC
19C730
01CF7C
19FEBC
1DBFFC
1DFFDC
3FC38C
3BBFF0
3BBFF8
7BBFF8
778380
FF7FFC
EEFFFC
66FFFC
ENDCHAR

STARTCHAR jisx0208_3030
ENCODING 12336
SWIDTH 960 0
DWIDTH 22 0
BBX 22 22 0 -2
BITMAP
380000
380FF8
380FF8
380FF8
FFCE38
FFCE38
FFCE38
39CFF8
39CFF8
39CFF8
39CE38
39CE38
39CE38
39CE38
39CFF8
79CFF8
79CFFC
71CE0C
71CE0C
F1F1FC
E1FFFC
60FFFC
ENDCHAR

STARTCHAR jisx0208_3031
ENCODING 12337
SWIDTH 960 0
DWIDTH 22 0
BBX 22 22 0 -2
BITMAP
038380
FFFFFC
FFFFFC
038380
0C7C60
0FFFE0
00E0E0
FFDFFC
FFFFFC
000000
0FFFE0
0E00E0
0FFFE0
0FFFE0
001C00
1FFFF8
1FFFF8
1C1C00
FFFFFC
FFFFFC
001C00
001C00
ENDCHAR

STARTCHAR jisx0208_3032
ENCODING 12338
SWIDTH 960 0
DWIDTH 22 0
BBX 22 22 0 -2
BITMAP
01C700
FFFFFC
FFFFFC
FFFFFC
01C700
7E38FC
7FFFFC
7FFFFC
000000
1FFFF0
1FFFF0
1FFFF0
1C0070
1FFFF0
1FFFF0
1FFFF0
3C0070
3C0070
780000
F80000
F00000
600000
ENDCHAR

STARTCHAR jisx0208_3033
ENCODING 12339
SWIDTH 960 0
DWIDTH 22 0
BBX 22 22 0 -2
BITMAP
1C0760
3F0FF0
3F0EF8
7B7F3C
F77FFC
EEFFD8
7F8380
6DFF7C
6D7FFC
7F8E70
7FFDBC
6D7BDC
6DB7AC
7F8F70
7FBEF0
0019E8
55A79C
55FE7C
57D9F0
DEC7E0
D81F80
C00E00
ENDCHAR

STARTCHAR jisx0208_3034
ENCODING 12340
SWIDTH 960 0
DWIDTH 22 0
BBX 22 22 0 -2
BITMAP
1C0380
1C0380
1C7FFC
FF7FFC
FFFFFC
FF9860
1C3C70
3E1CF0
3F1CE0
3FFBFC
7FFFFC
7AFFFC
FC0380
DC0380
5C7FFC
1C7FFC
1C7FFC
1C0380
1C0380
1C0380
1C0380
1C0380
ENDCHAR

STARTCHAR jisx0208_3035
ENCODING 12341
SWIDTH 960 0
DWIDTH 22 0
BBX 22 22 0 -2
BITMAP
3FFFFC
3FFFFC
3FFFFC
380000
380E00
380E00
380E00
380E00
3BFFFC
3BFFFC
3BFFFC
380E00
380E00
380E00
380E00
780E00
700E00
700E00
FFFFFC
EFFFFC
EFFFFC
600000
ENDCHAR

STARTCHAR jisx0208_3036
ENCODING 12342
SWIDTH 960 0
DWIDTH 22 0
BBX 22 22 0 -2
BITMAP
0E03C0
FFE7E0
FFE6F0
FFEF78
0E1E7C
7FBE3C
7FFC1C
7FDA6C
71C770
7FCF70
7FD770
71FB70
7FBC70
7FDE7C
7FCC6C
0E03FC
FFDFF8
FFDFF0
FFDE70
0E0070
0E0070
0E0070
ENDCHAR

STARTCHAR jisx0208_3037
ENCODING 12343
SWIDTH 960 0
DWIDTH 22 0
BBX 22 22 0 -2
BITMAP
1CFFF0
1CFFF8
1CFFF8
FF3870
FFB870
FFB8F0
1C38E0
1C3CFC
1FBDFC
1BBDFC
3FBFDC
FE3E3C
FC3738
DC7F78
1C7BF0
1C73F0
1CF1E0
1CF7F8
1DEF7C
FFDF3C
FBBE1C
79980C
ENDCHAR

STARTCHAR jisx0208_3038
ENCODING 12344
SWIDTH 960 0
DWIDTH 22 0
BBX 22 22 0 -2
BITMAP
003800
FFFFFC
FFFFFC
FFFFFC
E0000C
EE000C
EE0FFC
0FEFF8
1FEFF8
1FEE38
3CEE38
79EE38
FDEE38
FDCE38
5FCFF8
0F8DF8
078EF4
1F0E0C
7E0E0C
FC0FFC
F80FFC
6007FC
ENDCHAR

STARTCHAR jisx0208_3039
ENCODING 12345
SWIDTH 960 0
DWIDTH 22 0
BBX 22 22 0 -2
BITMAP
1C1FF8
1C1FF8
1C1FF8
FFDC38
FFDC38
FFDC38
39DFF8
39DFF8
39DFF8
79DC38
71DC38
73DC38
739FF8
FB9FF8
FF9FF8
DF1C38
0FDC38
3BDC38
7D9C38
F87FFC
F0FFFC
60FFFC
ENDCHAR

STARTCHAR jisx0208_303A
ENCODING 12346
SWIDTH 960 0
DWIDTH 22 0
BBX 22 22 0 -2
BITMAP
1C01C0
1C01C0
1C01C0
FFC1C0
FFDFFC
FFDFFC
EDDFFC
EDDC00
EDDC00
EDDC00
FFDC00
FFDC00
FFDC00
DC1C00
DD9C00
1F9C00
1BDC00
1DDC00
1BDC00
FFDFFC
FEDFFC
F0CFFC
ENDCHAR

STARTCHAR jisx0208_303B
ENCODING 12347
SWIDTH 960 0
DWIDTH 22 0
BBX 22 22 0 -2
BITMAP
0F8380
1FC3B0
3BC7F0
7DE778
FAEF3C
F6CEDC
6F3FFC
3FBFFC
39FF8C
3FC00C
3FDFF0
39DFFC
3FDFFC
3FDC1C
381C1C
3B9C1C
3BDC1C
3DDC1C
37DFFC
FEDFFC
FCDFFC
70DC1C
ENDCHAR

STARTCHAR jisx0208_303C
ENCODING 12348
SWIDTH 960 0
DWIDTH 22 0
BBX 22 22 0 -2
BITMAP
0F0E00
0F0E00
5E9E00
FDDDFC
FBFFFC
77BFFC
3F780C
1EB7EC
3DDFEC
FBDFEC
FFDCEC
FEDFEC
0EDFEC
6E1FEC
6FDCEC
6DDFEC
6FDFEC
EEDFEC
EEDC1C
EEC0FC
6E00FC
0E0078
ENDCHAR

STARTCHAR jisx0208_303D
ENCODING 12349
SWIDTH 960 0
DWIDTH 22 0
BBX 22 22 0 -2
BITMAP
0F0380
0F3FFC
5EBFFC
FDFFFC
FBC380
77BFFC
3F7FFC
1E8EE0
3D9EEC
FBBEFC
FFFDFC
FDF77C
0FBF80
6E4FFC
6FFE3C
6DBF78
6ED7F8
EEE3F0
EECFE8
EE3EFC
6E7E3C
0E381C
ENDCHAR

STARTCHAR jisx0208_303E
ENCODING 12350
SWIDTH 960 0
DWIDTH 22 0
BBX 22 22 0 -2
BITMAP
1C0380
3F8380
3F8380
7983FC
F383FC
EF43FC
7FC380
76C380
76C380
7FC380
7FDFFC
76DFFC
76DFFC
7FDC1C
7FDC1C
001C1C
6ADC1C
6ADC1C
6BDFFC
EB5FFC
EB1FFC
601C1C
ENDCHAR

STARTCHAR jisx0208_303F
ENCODING 12351
SWIDTH 960 0
DWIDTH 22 0
BBX 22 22 0 -2
BITMAP
000778
000778
FFFFB4
FFFFFC
FFFFFC
000700
3FE718
3FE71C
3FE71C
38E7BC
38E3B8
3FE3F8
3FE370
3FE3F0
3811E0
03F3CC
1FF7EC
FFCFEC
FE3EFC
70FE7C
00F83C
00701C
ENDCHAR

STARTCHAR jisx0208_3040
ENCODING 12352
SWIDTH 960 0
DWIDTH 22 0
BBX 22 22 0 -2
BITMAP
FFFFFC
FFFFFC
01C700
7FFFFC
7FFFFC
7FFFFC
71C71C
7FFFFC
7FFFFC
0C3860
1F39F0
0F39E0
F6FEDC
FFFFFC
FFFFFC
00FE00
07B7C0
1FBBF0
FF39FC
FC387C
70381C
003800
ENDCHAR

STARTCHAR jisx0208_3041
ENCODING 12353
SWIDTH 960 0
DWIDTH 22 0
BBX 22 22 0 -2
BITMAP
1C0780
1C0FC0
FF8DE0
FFDEF0
FFFCF8
03BC7C
07783C
0EF7DC
1F5FEC
1D9FF0
3B8000
7E0000
FFBFF8
DBBFF8
5F3FF8
1C3838
1C3838
1C3838
1C3FF8
1C3FF8
1C3FF8
1C3838
ENDCHAR

STARTCHAR jisx0208_3042
ENCODING 12354
SWIDTH 960 0
DWIDTH 22 0
BBX 22 22 0 -2
BITMAP
003800
7FFFFC
7FFFFC
7FFFFC
70001C
70701C
70F01C
00F000
FFEFFC
FFFFFC
FFFFFC
0381C0
0781C0
0743C0
0FFB80
1FFF80
1E7F00
0C1FE0
01FBF8
7FF8FC
7FE03C
3F0018
ENDCHAR

STARTCHAR jisx0208_3043
ENCODING 12355
SWIDTH 960 0
DWIDTH 22 0
BBX 22 22 0 -2
BITMAP
001C00
3FFFFC
3FFFFC
3FFFFC
381C00
3FFBFC
37FFFC
3FFFFC
3871C0
39EEF0
3BDF7C
3FFFFC
3FCE7C
35FFEC
39FFF0
39CE70
39FFFC
79FFEC
71CE0C
F00FFC
F00FFC
6007FC
ENDCHAR

STARTCHAR jisx0208_3044
ENCODING 12356
SWIDTH 960 0
DWIDTH 22 0
BBX 22 22 0 -2
BITMAP
1C0380
1CFFFC
1CFFFC
FEFFFC
FEE00C
FEE70C
1CE70C
1C0F00
1EFEFC
1AFFFC
3EFFFC
FE1C70
FC3C70
DC3870
1C7EF0
1CFFE0
1CEFF0
1C61F8
1C0FFC
FCFFBC
FCFE1C
78780C
ENDCHAR

STARTCHAR jisx0208_3045
ENCODING 12357
SWIDTH 960 0
DWIDTH 22 0
BBX 22 22 0 -2
BITMAP
FF0380
FF7FFC
FF7FFC
E77FFC
E71860
E73E70
E71EF0
FFEDEC
FEFFFC
FFFFFC
E70000
E73FF8
E73FF8
E73FF8
FF3838
FF3FF8
FF3FF8
E73838
E03FF8
003FF8
003FF8
003838
ENDCHAR

STARTCHAR jisx0208_3046
ENCODING 12358
SWIDTH 960 0
DWIDTH 22 0
BBX 22 22 0 -2
BITMAP
003800
FFFFFC
FFFFFC
FFFFFC
E0700C
FFEFEC
DFFFEC
038380
07FF00
073FE0
38F7F8
3FE9F8
1F3830
E0FFCC
FFFFFC
FFFFFC
00FE00
1FB7F0
FFBBFC
FE38FC
70381C
003800
ENDCHAR

STARTCHAR jisx0208_3047
ENCODING 12359
SWIDTH 960 0
DWIDTH 22 0
BBX 22 22 0 -2
BITMAP
FFCFFC
FFCFFC
E1CE1C
FFCFFC
FFCFFC
E1CE1C
FFCFFC
FFFFFC
E0701C
E7FF9C
E7FF9C
E3871C
EDFEDC
EFFFDC
E0001C
E3FF1C
E3871C
E3FF1C
E3871C
E3FFFC
E386FC
E00078
ENDCHAR

STARTCHAR jisx0208_3048
ENCODING 12360
SWIDTH 960 0
DWIDTH 22 0
BBX 22 22 0 -2
BITMAP
3B81C0
FFE1C0
FFFFFC
FFFFFC
3BBFFC
3FB80C
3FB9CC
0E03C0
7FC380
7FFFFC
7FBFFC
76FFFC
7FC738
7FCF38
7FCE78
0E1FF0
FFFFF0
FFEDF8
FFE3FC
0E1FBC
0E3F1C
0E1C0C
ENDCHAR

STARTCHAR jisx0208_3049
ENCODING 12361
SWIDTH 960 0
DWIDTH 22 0
BBX 22 22 0 -2
BITMAP
003800
003800
FFFFFC
FFFFFC
FFFFFC
00FE00
03B780
07BFC0
0FBBE0
3F39F8
FE38FC
F8383C
70381C
0FC7E0
1FFFF0
1FFFF0
1C0070
1C0070
1FFFF0
1FFFF0
1FFFF0
1C0070
ENDCHAR

STARTCHAR jisx0208_304A
ENCODING 12362
SWIDTH 960 0
DWIDTH 22 0
BBX 22 22 0 -2
BITMAP
1C0038
1C0038
1C3038
1C7838
1C7C38
1C3E38
1C1E38
1C0E38
1C0C38
1C0038
1C0038
1C0078
1C0070
1C0070
1C60F0
1DF1E0
1FF3F0
3FC7F8
FF1F7C
FC7F3C
607C1C
00300C
ENDCHAR

STARTCHAR jisx0208_304B
ENCODING 12363
SWIDTH 960 0
DWIDTH 22 0
BBX 22 22 0 -2
BITMAP
070000
0FFFF8
0EFFF8
0EFFF8
1E0E38
1E0E38
3DFFFC
3DFFFC
7DFFFC
FC0E38
FC0E38
5CFFF8
1CFFF8
1CFFF8
1C0E38
1C1E38
1C1E00
1C3C00
1C7C00
1CF800
1CF000
1C6000
ENDCHAR

STARTCHAR jisx0208_304C
ENCODING 12364
SWIDTH 960 0
DWIDTH 22 0
BBX 22 22 0 -2
BITMAP
070700
0F0700
0F0700
0EFFFC
1DFFFC
1DFFFC
3C0000
3C6070
7CE070
FCF070
FC70F0
5C70E0
1C78E0
1C38E0
1C38E0
1C39E0
1C31C0
1C01C0
1FFFFC
1BFFFC
1FFFFC
1C0000
ENDCHAR

STARTCHAR jisx0208_304D
ENCODING 12365
SWIDTH 960 0
DWIDTH 22 0
BBX 22 22 0 -2
BITMAP
070700
0F0700
0F0700
0EFFFC
1DFFFC
1DFFFC
3C0F00
3C1F00
7C1B98
FC3BBC
FC7BFC
5CFB78
1DF9F0
1FF9E0
1FB9C0
1B38E0
1C38F0
1C3B78
1C3FFC
1DFFBC
1DFE1C
1CF00C
ENDCHAR

STARTCHAR jisx0208_304E
ENCODING 12366
SWIDTH 960 0
DWIDTH 22 0
BBX 22 22 0 -2
BITMAP
070E00
0F7FF0
0F7FF0
0E7FF0
1E1C70
1FFFFC
3DFFFC
3C0000
7C7FF8
FC7FF8
FC7038
5C7FF8
1C7FF8
1C01C0
1CFFFC
1CFFFC
1CE1C0
1FFFFC
1BFFFC
1C01C0
1C01C0
1C01C0
ENDCHAR

STARTCHAR jisx0208_304F
ENCODING 12367
SWIDTH 960 0
DWIDTH 22 0
BBX 22 22 0 -2
BITMAP
7FFFFC
7FFFFC
70001C
71C71C
71C71C
77FFDC
77FFDC
77FFDC
71C71C
71C71C
7FFFDC
6FFFDC
7FFFDC
71C71C
73C71C
77871C
77871C
73071C
7CF8FC
7FFFFC
7FFFFC
70001C
ENDCHAR

STARTCHAR jisx0208_3050
ENCODING 12368
SWIDTH 960 0
DWIDTH 22 0
BBX 22 22 0 -2
BITMAP
003800
FFFFFC
FFFFFC
FFFFFC
003800
3FFFF0
3FFFF0
003870
3FFFF0
3FFFF0
383800
7FFFFC
7FFFFC
707C1C
70FEFC
01EFFC
03EF78
0FC780
3F83F0
FF01FC
FC00FC
70003C
ENDCHAR

STARTCHAR jisx0208_3051
ENCODING 12369
SWIDTH 960 0
DWIDTH 22 0
BBX 22 22 0 -2
BITMAP
3FFFF0
3FFFF0
1FF800
E03FFC
FFFFFC
FFFFFC
00FE00
1FB7F0
FFBBFC
FE38FC
70F81C
01E000
FFDFFC
FFFFFC
FFFFFC
0381C0
0FF7C0
0FFF80
061F60
79FFFC
7FF1FC
3F8038
ENDCHAR

STARTCHAR jisx0208_3052
ENCODING 12370
SWIDTH 960 0
DWIDTH 22 0
BBX 22 22 0 -2
BITMAP
0003F8
000378
3FFFB4
3FFFFC
3FFFFC
380380
3FFB98
37FB9C
3FFB9C
39C39C
3FFFBC
3FFDB8
3FFDF8
3BB9F0
3FB9F0
7778EC
7FF3EC
76F7EC
F1FF7C
FFAF3C
EF9E3C
660C1C
ENDCHAR

STARTCHAR jisx0208_3053
ENCODING 12371
SWIDTH 960 0
DWIDTH 22 0
BBX 22 22 0 -2
BITMAP
7FF838
7FF838
7FF838
703838
7FF838
7FFFFC
7FF7FC
7007FC
77F038
77F338
7007B8
7FFFB8
6FFBB8
7FFDB8
71C1B8
6DF838
EDBC38
FDDC38
DDDC38
EFD9F8
67C1F8
0380F0
ENDCHAR

STARTCHAR jisx0208_3054
ENCODING 12372
SWIDTH 960 0
DWIDTH 22 0
BBX 22 22 0 -2
BITMAP
1C0EF0
1C1EF0
1F1DE0
5B3FDC
7F7FFC
7B7FFC
7FF9C0
FCF9C0
DDBFFC
DCBFFC
DC3FFC
5C39C0
1C39C0
1C3FFC
1C3FFC
1C3FFC
1C39C0
1C39C0
1C3FFC
1C3FFC
1C3FFC
1C3800
ENDCHAR

STARTCHAR jisx0208_3055
ENCODING 12373
SWIDTH 960 0
DWIDTH 22 0
BBX 22 22 0 -2
BITMAP
003800
3FFFF8
3FFFF8
0701C0
FBFFBC
FFFFFC
000000
0FFFE0
0FFFE0
0E00E0
0FFFE0
0FFFE0
0E00E0
0FFFE0
0FFFE0
301818
3BBDBC
3B9DFC
7B8DDC
F3F3DC
F3FFCC
61FF8C
ENDCHAR

STARTCHAR jisx0208_3056
ENCODING 12374
SWIDTH 960 0
DWIDTH 22 0
BBX 22 22 0 -2
BITMAP
3FF838
3FF838
3FF838
383FFC
3FF7FC
3FF7FC
380038
37F7B8
780FB8
7FFBB8
71C1B8
EDFC38
FFBDF8
5BD9F8
0B80F0
303C08
3BBDBC
3B9DFC
7B8DDC
F3F3DC
F3FFCC
61FF8C
ENDCHAR

STARTCHAR jisx0208_3057
ENCODING 12375
SWIDTH 960 0
DWIDTH 22 0
BBX 22 22 0 -2
BITMAP
1FFFF0
1FFFF0
1FFFF0
1C0070
1FFFF0
1FFFF0
1C0070
1FFFF0
1FFFF0
1FFFF0
038000
0F7FFC
3FFFFC
FFFFFC
F8E39C
67CF1C
1F9F1C
7F3E3C
7CFC3C
33FBF8
07E3F8
0381F0
ENDCHAR

STARTCHAR jisx0208_3058
ENCODING 12376
SWIDTH 960 0
DWIDTH 22 0
BBX 22 22 0 -2
BITMAP
1C0380
1C7FFC
1C7FFC
FFFFFC
FF87C0
FF9EF0
1C7EFC
3E7C7C
3E3838
3EC7C4
7FFFFC
7BFFFC
FF0038
DC7F38
5C7F38
1C7738
1C7738
1C7F38
1C7F38
1C70F8
1C01F8
1C00F0
ENDCHAR

STARTCHAR jisx0208_3059
ENCODING 12377
SWIDTH 960 0
DWIDTH 22 0
BBX 22 22 0 -2
BITMAP
0F1C00
0FBC00
07BC00
3B7BC0
3FFFC0
3FFFC0
00E1C0
01FFB8
01FFF8
03FFF8
038038
07FFF4
0FFFFC
1FFFFC
3E00CC
7CEFEC
F6EEEC
EEFF7C
7E771C
1E76FC
3C61FC
1800F8
ENDCHAR

STARTCHAR jisx0208_305A
ENCODING 12378
SWIDTH 960 0
DWIDTH 22 0
BBX 22 22 0 -2
BITMAP
1FFFF0
1FFFF0
1FFFF0
1C3870
1FFFF0
1FFFF0
1C3870
1FFFF0
1FFFF0
000000
FFFFFC
FFFFFC
FFFFFC
0E1C18
0E0EFC
0E0FF8
0E07E0
0E7BC0
0FF9F8
FFF8FC
FFC03C
7C001C
ENDCHAR

STARTCHAR jisx0208_305B
ENCODING 12379
SWIDTH 960 0
DWIDTH 22 0
BBX 22 22 0 -2
BITMAP
1FFFF0
1FFFF0
1FFFF0
1C3870
1FFFF0
1FFFF0
1C3870
1FFFF0
1FFFF0
1FFFF0
038380
3FFFF8
3FFFF8
3FFFF8
038380
FFFFFC
FFFFFC
FFFFFC
0301C0
7F83FC
7E007C
380018
ENDCHAR

STARTCHAR jisx0208_305C
ENCODING 12380
SWIDTH 960 0
DWIDTH 22 0
BBX 22 22 0 -2
BITMAP
FF8E00
FF9FF8
7C3FFC
1C7FFC
1DF878
FFFDF0
FEDFE0
FF0FC0
1C3F80
3EFEE0
3FFDE0
7F73DC
7B0FFC
FC3FFC
DCFE3C
5CFEF8
1C6FF0
1C07E0
1C1BC0
1DFF80
1DFE00
1CF000
ENDCHAR

STARTCHAR jisx0208_305D
ENCODING 12381
SWIDTH 960 0
DWIDTH 22 0
BBX 22 22 0 -2
BITMAP
0F0E70
0F0E70
5E9EF0
FDDCE0
FBDFFC
77BFFC
3F7FFC
1EFCE0
3DBCE0
FBDFFC
FFDFFC
FEDFFC
0EDCE0
6E1FFC
6FDFFC
6DDFFC
6FDCE0
EEDCE0
EEDFFC
EEDFFC
6E1FFC
0E1C00
ENDCHAR

STARTCHAR jisx0208_305E
ENCODING 12382
SWIDTH 960 0
DWIDTH 22 0
BBX 22 22 0 -2
BITMAP
0E0700
1E3FF8
5D3FF8
FB8E38
FFFFFC
777FFC
3E0000
1FBFF8
3DBFF8
FBB838
FFBFF8
FDBFF8
0F81C0
6E3FFC
6DBFFC
6FB9C0
6DB9C0
EDFFFC
EF7FFC
EE01C0
6E01C0
0E01C0
ENDCHAR

STARTCHAR jisx0208_305F
ENCODING 12383
SWIDTH 960 0
DWIDTH 22 0
BBX 22 22 0 -2
BITMAP
3FFFF8
3FFFF8
383838
3FFFF8
3FFFF8
383838
3FFFF8
3FFFF8
000000
1FFFF0
1FFFF0
1C0070
1FFFF0
1FFFF0
1C0070
1FFFF0
1FFFF0
1C0070
1C0070
1C03F0
1C03F0
1C01E0
ENDCHAR

STARTCHAR jisx0208_3060
ENCODING 12384
SWIDTH 960 0
DWIDTH 22 0
BBX 22 22 0 -2
BITMAP
038380
FFFFFC
FFFFFC
038380
001C70
3FFFF0
3FF800
C03FFC
FFFFFC
00FE00
FFB7FC
FF39FC
78F83C
87E7C0
FFFFFC
01C1C0
07BBC0
0FFF80
0F1FF0
70FFFC
7FF8FC
3F8038
ENDCHAR

STARTCHAR jisx0208_3061
ENCODING 12385
SWIDTH 960 0
DWIDTH 22 0
BBX 22 22 0 -2
BITMAP
003800
003800
003800
FFFFFC
FFFFFC
FFFFFC
007C00
00DC3C
01DE7C
03CEF8
07CFF0
0F8DE0
1F07C0
7F0780
FF03C0
F701E0
671DF0
07FCF8
06FC7C
7FF03C
7F801C
3C000C
ENDCHAR

STARTCHAR jisx0208_3062
ENCODING 12386
SWIDTH 960 0
DWIDTH 22 0
BBX 22 22 0 -2
BITMAP
7FBFFC
7FBFFC
0039CC
FFBFFC
FFBFFC
0039CC
7FBFFC
7FBFFC
000000
7F9FFC
7F9FFC
001C1C
7F9FFC
7F9FFC
7F9C1C
739FFC
739FFC
739C1C
7F9C1C
7F9CFC
7F9CFC
701C78
ENDCHAR

STARTCHAR jisx0208_3063
ENCODING 12387
SWIDTH 960 0
DWIDTH 22 0
BBX 22 22 0 -2
BITMAP
300E00
78FFF0
7CFFF0
3E1C70
1FFFFC
0DFFFC
000000
007FF8
007038
FC7FF8
FC7FF8
FC0380
1C7FF8
1C7FF8
1C7380
1DFFFC
1DFFFC
3C0380
7E0380
FFFC7C
F7FFFC
61FFFC
ENDCHAR

STARTCHAR jisx0208_3064
ENCODING 12388
SWIDTH 960 0
DWIDTH 22 0
BBX 22 22 0 -2
BITMAP
300700
78FFF8
7CFFF8
3EE738
1EFFF8
0CFFF8
030704
03FFFC
000000
FCFFF8
FCE038
FCFFF8
1CE038
1CFFF8
1CE038
1CFFF8
1C3060
3DF8FC
7FF03C
FECFD8
F7FFFC
61FFFC
ENDCHAR

STARTCHAR jisx0208_3065
ENCODING 12389
SWIDTH 960 0
DWIDTH 22 0
BBX 22 22 0 -2
BITMAP
7FFFFC
7FFFFC
7FFFFC
70E000
71FFF8
73FFF8
77FFF8
778E00
730E00
74FFFC
77FFFC
77FFFC
701F00
707BC0
71FBF0
77F1FC
77E0FC
738038
7C7FC4
7FFFFC
7FFFFC
700000
ENDCHAR

STARTCHAR jisx0208_3066
ENCODING 12390
SWIDTH 960 0
DWIDTH 22 0
BBX 22 22 0 -2
BITMAP
038380
038380
038380
7FFFFC
7FFFFC
7FFFFC
038380
038380
038380
038380
038380
FFFFFC
FFFFFC
FFFFFC
038380
078380
0F0380
1F0380
3E0380
FC0380
F80380
600380
ENDCHAR

STARTCHAR jisx0208_3067
ENCODING 12391
SWIDTH 960 0
DWIDTH 22 0
BBX 22 22 0 -2
BITMAP
003800
003800
FFFFFC
FFFFFC
FFFFFC
006000
19F3C0
3FE7C0
3FCF80
0F9F30
03FE78
01FCF8
00F9F0
07F3E0
7FCFC0
7F1F80
3C7F40
00FFF0
07F9F8
7FE07C
7F803C
3C0018
ENDCHAR

STARTCHAR jisx0208_3068
ENCODING 12392
SWIDTH 960 0
DWIDTH 22 0
BBX 22 22 0 -2
BITMAP
3803F8
38037C
3803BC
39FFD8
39FFFC
FFFFFC
FE0380
FFFB9C
39FB9C
39FFDC
39DDFC
39FDB8
39FDB8
3DFDF8
3FC2F4
FE3FEC
F9FDEC
E7FBFC
03C77C
001F3C
001E1C
000C0C
ENDCHAR

STARTCHAR jisx0208_3069
ENCODING 12393
SWIDTH 960 0
DWIDTH 22 0
BBX 22 22 0 -2
BITMAP
003800
FFFFFC
FFFFFC
FFFFFC
00E1C0
03DEF0
7FBFF8
7FFFFC
3FF03C
000FD8
0FFFE0
0E00E0
0FFFE0
0FFFE0
0E00E0
0FFFE0
0FFFE0
0E00E0
0E00E0
0E07E0
0E07E0
0E03C0
ENDCHAR

STARTCHAR jisx0208_306A
ENCODING 12394
SWIDTH 960 0
DWIDTH 22 0
BBX 22 22 0 -2
BITMAP
0703FC
0703FC
7FFBFC
7FFB9C
7FFBBC
0E03B8
1FF3F8
1FF370
3FF3F8
7C73BC
FFF39C
FFF39C
5FF38C
1C738C
1FF38C
1FF38C
1FF3FC
1C73FC
1C7378
1DF380
1DF380
1CE380
ENDCHAR

STARTCHAR jisx0208_306B
ENCODING 12395
SWIDTH 960 0
DWIDTH 22 0
BBX 22 22 0 -2
BITMAP
FF33B0
FF73F0
FFFB7C
38EBEC
385B5C
383BB8
3873F4
7FEF6C
7FFFFC
7EE784
F703B8
F7FFDC
F6FFFC
7771C0
777DFC
7FEDBC
7EDFF8
7FEEF4
71CDEC
77D77C
779F3C
030C1C
ENDCHAR

STARTCHAR jisx0208_306C
ENCODING 12396
SWIDTH 960 0
DWIDTH 22 0
BBX 22 22 0 -2
BITMAP
000000
000000
000000
000000
000000
000000
000000
000000
000000
000000
FFFFFC
FFFFFC
FFFFFC
000000
000000
000000
000000
000000
000000
000000
000000
000000
ENDCHAR

STARTCHAR jisx0208_306D
ENCODING 12397
SWIDTH 960 0
DWIDTH 22 0
BBX 22 22 0 -2
BITMAP
003800
7FFFFC
7FFFFC
7FFFFC
003800
1FFFF0
1FFFF0
000000
FFFFFC
FFFFFC
FFFFFC
E0000C
E701CC
E71FEC
07FFE0
07FF00
07F018
07001C
07001C
07FFFC
07FFFC
03FFF8
ENDCHAR

STARTCHAR jisx0208_306E
ENCODING 12398
SWIDTH 960 0
DWIDTH 22 0
BBX 22 22 0 -2
BITMAP
7C7838
7E7878
1E3CF0
0C1CF0
03FB6C
63FFFC
FBFFFC
FC38E0
3C78F0
18F078
01F07C
1BE03C
1FDFDC
1DFFFC
3CFFF8
38EDB8
38EDB8
78EDB8
70EDB8
F3FFFC
F3FFFC
63FFFC
ENDCHAR

STARTCHAR jisx0208_306F
ENCODING 12399
SWIDTH 960 0
DWIDTH 22 0
BBX 22 22 0 -2
BITMAP
F03800
F87FC0
7CFFE0
3DFFE0
1BE1C0
079FB8
03FFF8
01FFF8
01CE38
FDFFF8
FDFFF8
FDFFF8
1C3B80
1C7B98
1CF39C
1FF3FC
1BE3FC
3D81F8
7E0000
FFFFFC
F7FFFC
61FFFC
ENDCHAR

STARTCHAR jisx0208_3070
ENCODING 12400
SWIDTH 960 0
DWIDTH 22 0
BBX 22 22 0 -2
BITMAP
FF7FFC
FF7FFC
7C3FC0
1C000C
1C379C
FF7FDC
FFFBFC
FFBDBC
1C1818
3E67E4
3F77FC
7F77FC
7F771C
FB77FC
DC77FC
5C77FC
1C771C
1C771C
1C77FC
1C77FC
1C77FC
1C771C
ENDCHAR

STARTCHAR jisx0208_3071
ENCODING 12401
SWIDTH 960 0
DWIDTH 22 0
BBX 22 22 0 -2
BITMAP
038380
FFFFFC
FFFFFC
FFFFFC
038380
33BB80
783800
7C77F8
3E7FFC
1EFFFC
0DF71C
01E778
00C778
030FB0
078F80
0F9FC0
1F3DE0
7E7DF0
FDF8FC
FBF07C
67E03C
03800C
ENDCHAR

STARTCHAR jisx0208_3072
ENCODING 12402
SWIDTH 960 0
DWIDTH 22 0
BBX 22 22 0 -2
BITMAP
038380
FFFFFC
FFFFFC
FFFFFC
038380
038380
000000
3FFFF8
3FFFF8
3FFFF8
003800
003800
FFFFFC
FFFFFC
FFFFFC
003800
003800
003800
003800
03F800
03F800
01F000
ENDCHAR

STARTCHAR jisx0208_3073
ENCODING 12403
SWIDTH 960 0
DWIDTH 22 0
BBX 22 22 0 -2
BITMAP
387EFC
3F7EFC
7F7FFC
73070C
F73F7C
EEBF7C
7FBF7C
6DB870
6DF8F0
7F76EC
7F7EFC
6DFFFC
6D870C
7F76EC
7FB76C
001F3C
55FFFC
55F7EC
556EDC
D79F3C
D67EFC
C03C78
ENDCHAR

STARTCHAR jisx0208_3074
ENCODING 12404
SWIDTH 960 0
DWIDTH 22 0
BBX 22 22 0 -2
BITMAP
007000
00F0C0
00E1E0
01E1F0
01C0F8
03C778
FFBFFC
FFFFFC
7FFF1C
01C70C
01C700
01C700
01C700
01C700
03C700
03C70C
07870C
0F870C
3F070C
FE07FC
FC07FC
7003FC
ENDCHAR

STARTCHAR jisx0208_3075
ENCODING 12405
SWIDTH 960 0
DWIDTH 22 0
BBX 22 22 0 -2
BITMAP
07F000
7FFFFC
7FCFFC
7E0FFC
700E1C
700E1C
700E1C
7FEE1C
7FEE1C
7FEE1C
700E1C
700E1C
700E1C
700E1C
700E1C
7FEE1C
7FEEFC
7FEEFC
700E78
700E00
700E00
000E00
ENDCHAR

STARTCHAR jisx0208_3076
ENCODING 12406
SWIDTH 960 0
DWIDTH 22 0
BBX 22 22 0 -2
BITMAP
00FFFC
FEFFFC
FEFFFC
FEE01C
EEE71C
EEE71C
EEFFDC
EEDFDC
EEFFDC
EEE71C
EEE79C
EEEFDC
FEEDDC
FEFDDC
FEDCDC
E0FCDC
E0D8DC
00E01C
00FFFC
00FFFC
00FFFC
00E01C
ENDCHAR

STARTCHAR jisx0208_3077
ENCODING 12407
SWIDTH 960 0
DWIDTH 22 0
BBX 22 22 0 -2
BITMAP
1FFFE0
1FFFE0
1C00E0
1FFFE0
1FFFE0
1FFFE0
000000
3FFFF0
3FFFF0
380070
3FFFF0
3FFFF0
380070
3FFFF0
3FFFF0
380070
3FFFF0
3FFFF0
0301C8
FF83FC
FE007C
70000C
ENDCHAR

STARTCHAR jisx0208_3078
ENCODING 12408
SWIDTH 960 0
DWIDTH 22 0
BBX 22 22 0 -2
BITMAP
7FFFFC
7FFFFC
70001C
70381C
70381C
70381C
7FFFDC
6FFFDC
7FFFDC
70381C
707C1C
70EE1C
71EF1C
73E79C
77C7DC
7F83DC
6F01DC
7600DC
79FF3C
7FFFFC
7FFFFC
70001C
ENDCHAR

STARTCHAR jisx0208_3079
ENCODING 12409
SWIDTH 960 0
DWIDTH 22 0
BBX 22 22 0 -2
BITMAP
1C7FFC
1C7FFC
1C7FFC
FF701C
FF739C
FF739C
3B7FDC
3B6FDC
3B7FDC
7B739C
73739C
7377DC
7777DC
FF7EDC
FF6EFC
6F7E7C
1FEC5C
3BF01C
7D7FFC
F87FFC
F07FFC
60701C
ENDCHAR

STARTCHAR jisx0208_307A
ENCODING 12410
SWIDTH 960 0
DWIDTH 22 0
BBX 22 22 0 -2
BITMAP
FFF038
FFF038
FFF038
007038
007038
7FF038
7FF038
7FF038
700038
700038
700038
FFF038
FFF038
FFF038
E07038
007038
00F038
00F038
01E038
3FE038
3FC038
1F8038
ENDCHAR

STARTCHAR jisx0208_307B
ENCODING 12411
SWIDTH 960 0
DWIDTH 22 0
BBX 22 22 0 -2
BITMAP
0F8700
1FC700
3DE700
7DEFFC
FAEFFC
F77FFC
6F9DDC
3FFDFC
38F9B8
3FD9D8
3FE1C0
38E3E0
3FE3E0
3FE3F0
380370
3BC770
3BC778
3DEF38
37FE3C
FEDE1C
FCBC1C
70180C
ENDCHAR

STARTCHAR jisx0208_307C
ENCODING 12412
SWIDTH 960 0
DWIDTH 22 0
BBX 22 22 0 -2
BITMAP
7C0FF8
7DFFF8
1DFFC0
0CF83C
010E3C
63DF78
FBEF78
FDE630
3CC1C8
193FFC
01FFFC
18FF00
1C0700
1FFFFC
3BFFFC
3BFFFC
380700
780700
700700
F1FFFC
F1FFFC
61FFFC
ENDCHAR

STARTCHAR jisx0208_307D
ENCODING 12413
SWIDTH 960 0
DWIDTH 22 0
BBX 22 22 0 -2
BITMAP
1D78E0
1FFCE0
1BEEE0
1DDEE0
1CF8E0
1C76E0
1FEEE0
1BFEE0
1FF6E0
1C06E0
1DF8E0
1DFEE0
1DCEE0
1DFEE0
1DFEE0
3DCEEC
39FEEC
39FEEC
79CEEC
F1FEFC
F1BEFC
61DC7C
ENDCHAR

STARTCHAR jisx0208_307E
ENCODING 12414
SWIDTH 960 0
DWIDTH 22 0
BBX 22 22 0 -2
BITMAP
01C380
FFFFFC
FFFFFC
01C380
7E07C0
7F8FE0
7FBEF8
73FC7C
76F39C
7F6FEC
6E1010
7F1FF0
770070
77BFE8
73BFF8
738000
7FFFFC
7F7FFC
6F0E70
70FDBC
70FFFC
707F1C
ENDCHAR

STARTCHAR jisx0208_3121
ENCODING 12577
SWIDTH 960 0
DWIDTH 22 0
BBX 22 22 0 -2
BITMAP
7F0380
7F8380
7FFFFC
737FFC
777FFC
77700C
7F7FEC
6E6FFC
7F0FF0
770000
777FFC
737FFC
73FFFC
738EE0
7F8EE0
7F9EE0
6F1EEC
703CEC
707CEC
71F8FC
71F0FC
70E07C
ENDCHAR

STARTCHAR jisx0208_3122
ENCODING 12578
SWIDTH 960 0
DWIDTH 22 0
BBX 22 22 0 -2
BITMAP
FF8780
FF8FC0
E39DE0
E73DF0
EF7CFC
EEFB7C
FDEFBC
DCC00C
FE3FE0
EF3FF0
E70070
E77FEC
E3FFFC
E38000
E3FFFC
FFFFFC
DF9C60
EF3CF8
E03B7C
E1F7FC
E1FF9C
E0F80C
ENDCHAR

STARTCHAR jisx0208_3123
ENCODING 12579
SWIDTH 960 0
DWIDTH 22 0
BBX 22 22 0 -2
BITMAP
FEFFFC
FFFFFC
E77F18
EF663C
EE7778
EE3378
FECCB0
DCFFF8
FE0038
EE7FF8
EF7FF8
E70038
E7FFF8
E6FFF8
E70000
FFBFBC
FFB7BC
DDBBDC
E3BB6C
E7BCEC
E7BFEC
E31FE0
ENDCHAR

STARTCHAR jisx0208_3124
ENCODING 12580
SWIDTH 960 0
DWIDTH 22 0
BBX 22 22 0 -2
BITMAP
0E0FFC
FFEFFC
FFEFFC
FFEE1C
71CFFC
3BCFFC
FFA000
FFEFFC
FFEFFC
000E1C
7FCFFC
7FCFFC
7FCE1C
71CFFC
7FCFFC
7FCE1C
7FCFFC
71CFFC
7FC630
7FFF7C
7FBE1C
70180C
ENDCHAR

STARTCHAR jisx0208_3125
ENCODING 12581
SWIDTH 960 0
DWIDTH 22 0
BBX 22 22 0 -2
BITMAP
000070
FF0070
FF0070
FF0070
E7FFFC
E6FFFC
E7FFFC
E70070
E70070
E73070
E77870
FF7C70
FF3C70
FF1E70
E01E70
E00C70
E00070
000070
000070
0007F0
0007F0
0003E0
ENDCHAR

STARTCHAR jisx0208_3126
ENCODING 12582
SWIDTH 960 0
DWIDTH 22 0
BBX 22 22 0 -2
BITMAP
007000
007000
00F000
FFEFFC
FFFFFC
FFFFFC
01C000
03C000
078000
078000
0F7FF8
1FFFF8
3FFFF8
7F0038
F70038
F70038
670038
070038
07FFF8
07FFF8
07FFF8
070038
ENDCHAR

STARTCHAR jisx0208_3127
ENCODING 12583
SWIDTH 960 0
DWIDTH 22 0
BBX 22 22 0 -2
BITMAP
003800
FFFFFC
FFFFFC
FFFFFC
E0000C
E0000C
EFFFEC
0FFFE0
0FFFE0
003800
003800
003800
FFFFFC
FFFFFC
FFFFFC
003800
003800
003800
003800
01F800
01F800
00F000
ENDCHAR

STARTCHAR jisx0208_3128
ENCODING 12584
SWIDTH 960 0
DWIDTH 22 0
BBX 22 22 0 -2
BITMAP
01E000
1FDFE0
1FFFE0
1FFFE0
1C00E0
1FFFE0
1FFFE0
1FFFE0
1C0000
1FFFFC
1FFFFC
1C0000
1FFFFC
1FFFFC
1FFFFC
20031C
377FDC
7FFBFC
7BBDBC
F1DE78
F19BF8
6001F0
ENDCHAR

STARTCHAR jisx0208_3129
ENCODING 12585
SWIDTH 960 0
DWIDTH 22 0
BBX 22 22 0 -2
BITMAP
7FEFFC
7FEFFC
7FEFFC
00E01C
30E61C
78EF1C
7CEF9C
3EE7DC
1EE3DC
0CE19C
02E05C
07E0FC
0FE1FC
1EE3DC
7EEFDC
FCFF9C
F8DF1C
60EC1C
00E01C
0FE1FC
0FE1FC
07C0F8
ENDCHAR

STARTCHAR jisx0208_312A
ENCODING 12586
SWIDTH 960 0
DWIDTH 22 0
BBX 22 22 0 -2
BITMAP
F0FFFC
F8FFFC
7CFFFC
3C0380
180380
000380
000380
01FFFC
FDFFFC
FDFFFC
FC0380
1C0380
1C0380
1C0380
1C0380
1C1F80
1C1F80
3C0F00
7F0000
FFFFFC
F7FFFC
61FFFC
ENDCHAR

STARTCHAR jisx0208_312B
ENCODING 12587
SWIDTH 960 0
DWIDTH 22 0
BBX 22 22 0 -2
BITMAP
FFFFFC
FFFFFC
FFFFFC
003800
003800
7FFFFC
7FFFFC
7FFFFC
70381C
7FBFDC
6FB7DC
73B9DC
71B8DC
763B1C
7FBFDC
6FB7DC
73B9DC
71B8DC
70381C
7038FC
7038FC
703878
ENDCHAR

STARTCHAR jisx0208_312C
ENCODING 12588
SWIDTH 960 0
DWIDTH 22 0
BBX 22 22 0 -2
BITMAP
03E000
7FEFFC
7FCFFC
7E0FFC
71CE1C
71CE1C
71CE1C
71CE1C
71CE1C
71CE1C
71CE1C
73CE1C
7FCE1C
6FCE1C
FDCE1C
FBCFFC
638DFC
078EF8
1F0E00
7E0E00
7C0E00
300E00
ENDCHAR

STARTCHAR jisx0208_312D
ENCODING 12589
SWIDTH 960 0
DWIDTH 22 0
BBX 22 22 0 -2
BITMAP
F1C1C0
FBC3C0
7BCFBC
B7AFFC
FFEE1C
FFEFFC
0EEFFC
7FEE1C
7FEFFC
6E0FFC
FFEE00
FFEFFC
FFEFFC
DEEE00
3EEFFC
3EEFFC
7FE00C
EFEAAC
EDDBBC
6E1B5C
0E18FC
0E0078
ENDCHAR

STARTCHAR jisx0208_312E
ENCODING 12590
SWIDTH 960 0
DWIDTH 22 0
BBX 22 22 0 -2
BITMAP
003800
7FFFFC
7FFFFC
7FFFFC
71CEDC
77CFFC
0F8FE0
3F07C0
1C1838
071FF8
3FDC38
3FDFF8
071C38
7FDFF8
7FDC38
071FF8
0FFFF8
1DE6E4
3EDEEC
FC3EFC
F8FCFC
60707C
ENDCHAR

STARTCHAR jisx0208_312F
ENCODING 12591
SWIDTH 960 0
DWIDTH 22 0
BBX 22 22 0 -2
BITMAP
3FFFE0
3FFFE0
3FFFE0
00E0E0
00E0E0
01E0E0
01E0E0
01C0E0
01C0E0
7FFFFC
7FFFFC
7FFFFC
01C1C0
03C1C0
03C1C0
0381C0
0381C0
0381C0
FFFFFC
FFFFFC
FFFFFC
000000
ENDCHAR

STARTCHAR jisx0208_3130
ENCODING 12592
SWIDTH 960 0
DWIDTH 22 0
BBX 22 22 0 -2
BITMAP
FFCE70
FFCEF0
FFDEE0
1C1DFC
1C3FFC
3C7FFC
38FCE0
38FCE0
7F5FFC
7F9FFC
FF9FFC
FB9CE0
7B9CE0
3B9FFC
3B9FFC
3B9FFC
3F9CE0
3F9CE0
3F9FFC
381FFC
381FFC
001C00
ENDCHAR

STARTCHAR jisx0208_3131
ENCODING 12593
SWIDTH 960 0
DWIDTH 22 0
BBX 22 22 0 -2
BITMAP
07E000
7FFFFC
7F9FFC
7C1FFC
70001C
70001C
70001C
70001C
70001C
7FEFFC
7FEFFC
7FEFFC
70001C
70001C
70001C
70001C
70001C
7FFFFC
7FFFFC
7FFFFC
70001C
70001C
ENDCHAR

STARTCHAR jisx0208_3132
ENCODING 12594
SWIDTH 960 0
DWIDTH 22 0
BBX 22 22 0 -2
BITMAP
7CFFF8
7EFFF8
1EFFF8
0CE038
00E7F8
60E7F8
F8E7F8
FCE738
3FFFFC
1BFFFC
03FFFC
1B800C
1BBFEC
1BBFEC
3BBFEC
3BB8EC
3BBFEC
7BBFEC
73BFEC
F3B81C
F3807C
63803C
ENDCHAR

STARTCHAR jisx0208_3133
ENCODING 12595
SWIDTH 960 0
DWIDTH 22 0
BBX 22 22 0 -2
BITMAP
000FF8
FC0FF8
FC0E00
FDFFFC
EDFFFC
EDFFFC
EDCE1C
EDCFF8
EDFFE0
EDFE1C
EDCFFC
FDCFFC
FDC7F8
FDC800
E3EEF8
E3AEDC
E37EFC
07BEF8
07AED8
0F5FE4
0EFFFC
06FFFC
ENDCHAR

STARTCHAR jisx0208_3134
ENCODING 12596
SWIDTH 960 0
DWIDTH 22 0
BBX 22 22 0 -2
BITMAP
007FF8
FF7FF8
FF7FF8
FF7038
E77038
E77FF8
E77FF8
E77FF8
E77038
E77FF8
E77FF8
FF7FF8
FF7038
FF7038
E07FF8
E07FF8
E07FF8
001860
00FCFC
03F87C
03F01C
01C00C
ENDCHAR

STARTCHAR jisx0208_3135
ENCODING 12597
SWIDTH 960 0
DWIDTH 22 0
BBX 22 22 0 -2
BITMAP
1C7C70
FF3BFC
FF6BFC
3E04F8
FFFFFC
DBBB6C
DD6B74
229488
3FFFF8
39C738
3FFFF8
000000
3FF038
387FFC
3FEFFC
387FFC
3FF038
38CFB8
3FFFB8
F7F378
FF79F8
7830F0
ENDCHAR

STARTCHAR jisx0208_3136
ENCODING 12598
SWIDTH 960 0
DWIDTH 22 0
BBX 22 22 0 -2
BITMAP
038380
FFFFFC
FFFFFC
FFFFFC
038380
3C7838
3FF838
383838
3FF838
3FFFFC
380FFC
3FFFFC
37F838
380738
3FFFB8
7FFBB8
71C3B8
6DFF38
FDBC38
DFDFF8
6BCDF8
0380F0
ENDCHAR

STARTCHAR jisx0208_3137
ENCODING 12599
SWIDTH 960 0
DWIDTH 22 0
BBX 22 22 0 -2
BITMAP
1C1FF8
3F9FF8
3F9C38
799FF8
F39C38
EF5FF8
7FC000
76FFFC
76BFFC
7FB6DC
7FBFFC
76FFFC
76C000
7FFFF0
7FBFF8
000E38
6AC7F0
6AC3E0
6BCFD0
EB3EFC
EB7C3C
60300C
ENDCHAR

STARTCHAR jisx0208_3138
ENCODING 12600
SWIDTH 960 0
DWIDTH 22 0
BBX 22 22 0 -2
BITMAP
1C070C
1C070C
1C3FDC
FFBFDC
FFBFFC
FF8738
3B8778
3BFFF4
3B7FFC
7BFFFC
7383C0
778F80
F73F1C
FFFE7C
DEFFFC
0F6FF8
1F8FC4
3BCE0C
7D8E0C
F80FFC
F00FFC
6007FC
ENDCHAR

STARTCHAR jisx0208_3139
ENCODING 12601
SWIDTH 960 0
DWIDTH 22 0
BBX 22 22 0 -2
BITMAP
3FFFFC
3FFFFC
3FFFFC
380000
3FF7FC
37F7FC
37FFFC
373B70
37FB70
37FBF0
373EEC
37FFFC
37FFFC
37F8E0
7731D0
777BF0
77BB70
F6FF7C
EFD76C
DF8F7C
6E1E7C
000C3C
ENDCHAR

STARTCHAR jisx0208_313A
ENCODING 12602
SWIDTH 960 0
DWIDTH 22 0
BBX 22 22 0 -2
BITMAP
7C077C
7E077C
1FFF98
0BFFFC
03FFFC
600700
F9FFFC
FDFFFC
3DFFFC
19C71C
01FFFC
19FFFC
1DFFFC
1DC71C
3DFFFC
39FFFC
39FFFC
79C71C
71C71C
F1C7FC
F1C6FC
61C778
ENDCHAR

STARTCHAR jisx0208_313B
ENCODING 12603
SWIDTH 960 0
DWIDTH 22 0
BBX 22 22 0 -2
BITMAP
000FF8
1FFFF8
1FFFE0
1FF8E0
1C70E0
1C70E0
1C70E0
1C70E0
1C70E0
1C70E0
1C70F0
1C7070
1C7070
1C7370
1C7778
3C77B8
387BB8
386FFC
7FFFDC
F7F9DC
F3C1CC
60018C
ENDCHAR

STARTCHAR jisx0208_313C
ENCODING 12604
SWIDTH 960 0
DWIDTH 22 0
BBX 22 22 0 -2
BITMAP
FFCFFC
FFCFFC
E1CE1C
FFCFFC
FFCFFC
E1CE1C
FFCFFC
FFCFFC
E0001C
E7FF9C
E7FF9C
E7FF9C
E0701C
E3FF1C
E3FF1C
E3FF1C
E0701C
EFFFDC
EFFFDC
EFFFFC
E0007C
E00038
ENDCHAR

STARTCHAR jisx0208_313D
ENCODING 12605
SWIDTH 960 0
DWIDTH 22 0
BBX 22 22 0 -2
BITMAP
007CF0
FE7DF0
FF9BCC
FDFFFC
EE0D80
EEFFFC
EEFFFC
EEED9C
EEFDFC
EED9FC
EEE61C
FEFFFC
FEE01C
FEFFFC
E00070
E3FFFC
03FFFC
006070
00F870
007BF0
0033F0
0001E0
ENDCHAR

STARTCHAR jisx0208_313E
ENCODING 12606
SWIDTH 960 0
DWIDTH 22 0
BBX 22 22 0 -2
BITMAP
1FFFF0
1FFFF0
1FFFF0
000000
000000
000000
000000
000000
FFFFFC
FFFFFC
FFFFFC
00E000
01E180
01C3C0
03C3E0
0781F0
0702F8
0FFFFC
FEFFFC
FFFE1C
7F800C
00000C
ENDCHAR

STARTCHAR jisx0208_313F
ENCODING 12607
SWIDTH 960 0
DWIDTH 22 0
BBX 22 22 0 -2
BITMAP
F1FFFC
F9FFFC
7DFFFC
3DC01C
19FFFC
007FF0
008708
00FFF8
00E738
FCFFF8
FCFFF8
FCE738
1CFFF8
1CFFF8
1C0700
1DFFFC
1DFFFC
3C0700
7F0700
FFF8FC
F7FFFC
61FFFC
ENDCHAR

STARTCHAR jisx0208_3140
ENCODING 12608
SWIDTH 960 0
DWIDTH 22 0
BBX 22 22 0 -2
BITMAP
3FFFF8
3FFFF8
3FFFF8
003800
FFFFFC
FFFFFC
E0380C
EFBBEC
EFBBEC
003800
0FBBE0
000000
1FFFF0
1FFFF0
000000
FFFFFC
FFFFFC
00E060
03DFF8
7FBFFC
7FFFBC
3FE018
ENDCHAR

STARTCHAR jisx0208_3141
ENCODING 12609
SWIDTH 960 0
DWIDTH 22 0
BBX 22 22 0 -2
BITMAP
01C380
FFFFFC
FFFFFC
FFFFFC
01C380
07C380
0E0070
0FFFF8
1EFFF8
1C7F00
3C0700
7C0700
FFFFFC
FBFFFC
5FFFFC
1C0700
1C0700
1C0700
1DFFFC
1DFFFC
1DFFFC
1C0000
ENDCHAR

STARTCHAR jisx0208_3142
ENCODING 12610
SWIDTH 960 0
DWIDTH 22 0
BBX 22 22 0 -2
BITMAP
0FDFFC
1FDFFC
3DFFFC
7CEE38
FB6E38
F76FF8
6F8FF8
3FEFF8
38EE38
3FEFF8
3FEFF8
38EFF8
3FEE38
3FEE3C
380EFC
3B8FFC
3BBFF8
3DFFB8
37DC38
FEE038
FCE038
70C038
ENDCHAR

STARTCHAR jisx0208_3143
ENCODING 12611
SWIDTH 960 0
DWIDTH 22 0
BBX 22 22 0 -2
BITMAP
070000
07EFF8
07EFFC
FF1FFC
FFF71C
E0371C
FFF71C
1FC71C
7077BC
FFFBB8
F77BB8
6FB3B8
1DE3F8
FA79F0
FFF9F0
78F0E0
3FE3F0
38E7F8
3FEFBC
38FF3C
3FDE1C
38EC0C
ENDCHAR

STARTCHAR jisx0208_3144
ENCODING 12612
SWIDTH 960 0
DWIDTH 22 0
BBX 22 22 0 -2
BITMAP
1E7878
1F7CF8
0F3DF0
F6DBEC
FFFFFC
FFFFFC
E0000C
E7FFCC
E7FFCC
07FFC0
0701C0
07FFC0
07FFC0
003800
3FF7F8
3FFFF8
3FFFF8
380038
3FFFF8
3FFFF8
3FFFF8
380038
ENDCHAR

STARTCHAR jisx0208_3145
ENCODING 12613
SWIDTH 960 0
DWIDTH 22 0
BBX 22 22 0 -2
BITMAP
7FEFFC
7FEFFC
70EE1C
7FEFFC
70EE1C
7FEFFC
70EE1C
7FEFFC
318318
FBEFBC
F0DF1C
60760C
9FE9F0
FFFFFC
FFFFFC
038380
1F7780
1FFF00
0C1FF0
73FDFC
7FF07C
3E0018
ENDCHAR

STARTCHAR jisx0208_3146
ENCODING 12614
SWIDTH 960 0
DWIDTH 22 0
BBX 22 22 0 -2
BITMAP
7FF03C
7FF07C
7FF0F8
7073F0
7FF7E0
7077CC
7FF31C
07003C
FFF87C
FFF8F8
0003F0
7FF7E0
7FF7C0
70730C
7FF01C
7FF03C
07007C
77F0F8
F6FBF0
FF7FE0
5F2FC0
0E0700
ENDCHAR

STARTCHAR jisx0208_3147
ENCODING 12615
SWIDTH 960 0
DWIDTH 22 0
BBX 22 22 0 -2
BITMAP
FF0700
FF0700
FF7FF8
E77FF8
E77FF8
E77338
E77338
FF7338
FF7338
FF7338
E7FFFC
E7FFFC
E7FFFC
E70780
FF0FC0
FF0DC0
FF1FE0
E03EF0
E0FCF8
E3F87C
03F03C
01C01C
ENDCHAR

STARTCHAR jisx0208_3148
ENCODING 12616
SWIDTH 960 0
DWIDTH 22 0
BBX 22 22 0 -2
BITMAP
007000
007000
3FFFE0
3FFFE0
3FFFE0
3870E0
3FFFE0
3FFFE0
3FFFE0
3870E0
3FFFE0
3FFFE0
3FFFE0
383870
383DF0
001FE0
001BCC
006F8C
03FF4C
FFFBFC
FFC1FC
7C007C
ENDCHAR

STARTCHAR jisx0208_3149
ENCODING 12617
SWIDTH 960 0
DWIDTH 22 0
BBX 22 22 0 -2
BITMAP
1E7878
1F7C78
0F3CF0
071DF0
FEFBEC
FFFFFC
FFFFFC
E0000C
E0380C
E0380C
1FFFF0
7FFFFC
7FFFFC
00FE00
03B780
07BFC0
0FBBE0
3F39F8
FE38FC
FC387C
70381C
003800
ENDCHAR

STARTCHAR jisx0208_314A
ENCODING 12618
SWIDTH 960 0
DWIDTH 22 0
BBX 22 22 0 -2
BITMAP
03F000
03FC00
00FE00
001E00
0FEC00
0FF818
0FF83C
003C7C
7FBCF8
7FBDF0
7FBFE0
03BFC0
07B780
073F00
0F3BC0
1E3BE0
3E39F0
7C38FC
F8387C
F1F83C
61F80C
00F000
ENDCHAR

STARTCHAR jisx0208_314B
ENCODING 12619
SWIDTH 960 0
DWIDTH 22 0
BBX 22 22 0 -2
BITMAP
7C7F00
7E7FC0
1E0FC0
0C0180
00FE00
60FF00
F8FF18
FC073C
3FF77C
1BF7F8
03F7F0
1837E0
1C77C0
1C76E0
3CF7F0
38E770
39E778
7BC73C
77C73C
F7BF1C
F33F0C
601E00
ENDCHAR

STARTCHAR jisx0208_314C
ENCODING 12620
SWIDTH 960 0
DWIDTH 22 0
BBX 22 22 0 -2
BITMAP
7C0E00
7E0E00
1FFFF8
0BFFF8
03FFF8
638E38
FBFFF8
FBFFF8
3BFFF8
1B8E38
03FFF8
1BFFF8
1FFFF8
1C0E1C
3C077C
3807F8
3807F0
780BCC
707FEC
F7FEFC
F7F87C
63C01C
ENDCHAR

STARTCHAR jisx0208_314D
ENCODING 12621
SWIDTH 960 0
DWIDTH 22 0
BBX 22 22 0 -2
BITMAP
FF1CE0
FFFFFC
FEFFFC
1CFFFC
1C1CE0
1C1BE0
1C6718
FF7FF8
FF7FF8
FF7338
1C7338
1C7338
1DFFFC
1DFFFC
1FFFFC
FF0F80
FF1DE0
F03DF0
00FCFC
03F87C
03F03C
01C00C
ENDCHAR

STARTCHAR jisx0208_314E
ENCODING 12622
SWIDTH 960 0
DWIDTH 22 0
BBX 22 22 0 -2
BITMAP
7FFF80
7FFFC0
7FFFC0
070380
07FBFC
0FFFFC
0FFFFC
1E371C
1DF81C
3BF41C
7CFE3C
FBDFF8
EF8DF8
6600F0
19FF00
1FFFF0
1FFFF0
1CEE70
1CEE70
FFFFFC
FFFFFC
FFFFFC
ENDCHAR

STARTCHAR jisx0208_314F
ENCODING 12623
SWIDTH 960 0
DWIDTH 22 0
BBX 22 22 0 -2
BITMAP
71DFFC
7FDFFC
7FDFFC
7F01C0
70EFBC
7FEFFC
7FEFFC
3FCE1C
000FFC
7FCFFC
7FCE1C
3E0FFC
CFEFFC
FFEE1C
FFEFFC
0E0FFC
3FCFFC
7FE330
FDFF7C
EEDF3C
6E3E1C
0E180C
ENDCHAR

STARTCHAR jisx0208_3150
ENCODING 12624
SWIDTH 960 0
DWIDTH 22 0
BBX 22 22 0 -2
BITMAP
71DFFC
7FDFFC
7FDFFC
7F01C0
70EFBC
7FEFFC
7FEFFC
3FCE1C
000FFC
7FCFFC
7FCE1C
000FFC
FFEFFC
FFEE1C
0E0FFC
6FCFFC
6DCFFC
EFE330
EEFF7C
7EDF3C
3E3E1C
1C180C
ENDCHAR

STARTCHAR jisx0208_3151
ENCODING 12625
SWIDTH 960 0
DWIDTH 22 0
BBX 22 22 0 -2
BITMAP
038380
FFFFFC
FFFFFC
FFFFFC
038380
03BB80
0C7C60
0FFFE0
0FFFE0
0E38E0
0E38E0
0E38E0
FFFFFC
FFFFFC
FFFFFC
007C00
01EF00
03EFC0
0FC7F0
FF83FC
FE00FC
78003C
ENDCHAR

STARTCHAR jisx0208_3152
ENCODING 12626
SWIDTH 960 0
DWIDTH 22 0
BBX 22 22 0 -2
BITMAP
187000
3DFEFC
7DFEFC
F8E7FC
F3FF00
6FFF80
1E007C
1DFEFC
3DFFFC
39C738
79FF38
F9FF38
F81C38
B9FF38
39FF38
39DC38
39DC38
3BFFB8
3BFFB8
381C78
381CF8
381C70
ENDCHAR

STARTCHAR jisx0208_3153
ENCODING 12627
SWIDTH 960 0
DWIDTH 22 0
BBX 22 22 0 -2
BITMAP
7F3F80
7F3FC0
0007C0
FF8180
FFBE00
003F80
7F3F98
7F03BC
00FBBC
7EFBF8
7EFB70
001BE0
7F3BC0
7F3BE0
7F7B70
7773F8
77F3BC
76E3BC
7FE39C
7EDF8C
7F1F80
700F00
ENDCHAR

STARTCHAR jisx0208_3154
ENCODING 12628
SWIDTH 960 0
DWIDTH 22 0
BBX 22 22 0 -2
BITMAP
1F9E1C
3FDF3C
7BEF78
F9E778
F0DEB4
6F1FFC
3F9FFC
3F9C1C
0E1C1C
FFDC1C
FFDFFC
FFDFFC
0E1FFC
EEE6E0
EFEEE0
6DCEE0
6ECEEC
6F1EEC
0DFCEC
FFBCFC
FF78FC
78307C
ENDCHAR

STARTCHAR jisx0208_3155
ENCODING 12629
SWIDTH 960 0
DWIDTH 22 0
BBX 22 22 0 -2
BITMAP
7C0700
7DFFFC
1DFFFC
0DFFFC
006300
607380
F8F3F8
FCF7FC
3DE7FC
19EF1C
03EEBC
17FDF8
1FDEF8
1AF778
3CD7F0
38E3F0
38E1E0
78E7F8
70EF7C
F0FF3C
F0DE1C
60EC0C
ENDCHAR

STARTCHAR jisx0208_3156
ENCODING 12630
SWIDTH 960 0
DWIDTH 22 0
BBX 22 22 0 -2
BITMAP
000E00
1FFFFC
1FFFFC
1FFFFC
5C0000
DC7FC0
FC7FCC
7C71CC
5CF1FC
1DF1FC
5FE0FC
7BC000
FDBFF0
DDFFF8
5DFFF8
1C7070
3C7DE0
383FC0
780FA0
F7FFFC
F7FDFC
63E03C
ENDCHAR

STARTCHAR jisx0208_3157
ENCODING 12631
SWIDTH 960 0
DWIDTH 22 0
BBX 22 22 0 -2
BITMAP
0F03C0
0F83C0
078780
FB7F7C
FFFFFC
FFFFFC
038700
0783C0
0F03E0
1F01F0
7E00FC
F9FF7C
FFFFFC
5FFFEC
1CEE70
1CEE70
1CEE70
1CEE70
1CEE70
FFFFFC
FFFFFC
FFFFFC
ENDCHAR

STARTCHAR jisx0208_3158
ENCODING 12632
SWIDTH 960 0
DWIDTH 22 0
BBX 22 22 0 -2
BITMAP
7FDFFC
7FDFFC
7FDFFC
771C1C
7FDC1C
7FDC1C
771C1C
7FDFFC
7FDFFC
771FFC
771DDC
7FDDDC
7FDDE0
7FDCE0
80DCE0
AADCF0
AEFC70
BCF878
F1F83C
CFB83C
1FF01C
0FB00C
ENDCHAR

STARTCHAR jisx0208_3159
ENCODING 12633
SWIDTH 960 0
DWIDTH 22 0
BBX 22 22 0 -2
BITMAP
1C7838
1C7C78
1F3C78
5B1CF0
7F7BEC
7B7FFC
7B7FFC
FF701C
DC701C
DC701C
DC7FFC
5C7FFC
1C7FFC
1C0EE0
1C0EE0
1C1EE0
1C1CEC
1C3CEC
1C78EC
1DF8FC
1DF0FC
1CE07C
ENDCHAR

STARTCHAR jisx0208_315A
ENCODING 12634
SWIDTH 960 0
DWIDTH 22 0
BBX 22 22 0 -2
BITMAP
7F3FFC
7F3FFC
003FFC
FFB81C
FFBFFC
003FFC
7F381C
7F3FFC
003FFC
7F1C00
7F3FFC
003FFC
7F7FFC
7FF00C
7EFFCC
777FCC
773E2C
7739EC
7F3FFC
7F1FDC
7F00FC
700078
ENDCHAR

STARTCHAR jisx0208_315B
ENCODING 12635
SWIDTH 960 0
DWIDTH 22 0
BBX 22 22 0 -2
BITMAP
0E03B8
0E03B8
7FC398
7FFFE4
7FBFFC
0E3FFC
FFBB80
FFBBB0
FFBBB8
0E3BB8
6E3BF8
6FBB70
6FBDF0
6FB7E8
6E3EDC
6EFDDC
7EFB7C
FE6F78
DF8638
EFF9C4
E3FFFC
607FFC
ENDCHAR

STARTCHAR jisx0208_315C
ENCODING 12636
SWIDTH 960 0
DWIDTH 22 0
BBX 22 22 0 -2
BITMAP
FFCFFC
FFCFFC
E1CE1C
FFCFFC
FFCFFC
E1CE1C
FFCFFC
FFCFFC
E1861C
E3CF1C
E5FE9C
E7FF9C
E7039C
E7FF9C
E7FF9C
E0DC1C
E1DD9C
E3DDDC
EFDFDC
EF9FFC
E60F7C
E00038
ENDCHAR

STARTCHAR jisx0208_315D
ENCODING 12637
SWIDTH 960 0
DWIDTH 22 0
BBX 22 22 0 -2
BITMAP
1CFFFC
1CFFFC
1CFFFC
FF0700
FFBEF8
FFBFF8
1C3838
3E3FF8
3F3838
3FBFF8
7FB838
7B3FF8
FC0E00
DC3DF0
5C7FF8
1DFC78
1DEEF0
1CC7E0
1C0BD0
1CFFFC
1CFE7C
1C701C
ENDCHAR

STARTCHAR jisx0208_315E
ENCODING 12638
SWIDTH 960 0
DWIDTH 22 0
BBX 22 22 0 -2
BITMAP
3FFFFC
3FFFFC
3FFFFC
380000
3FFCFC
37FCDC
371CEC
37FCEC
371FF0
3FFBFC
3807FC
37FCE0
371CF0
37FCF0
37FCF0
771DB8
77FDB8
77FDF8
F71FDC
F77B9C
E77F9C
673B0C
ENDCHAR

STARTCHAR jisx0208_315F
ENCODING 12639
SWIDTH 960 0
DWIDTH 22 0
BBX 22 22 0 -2
BITMAP
7FFFFC
7FFFFC
7FFFFC
70381C
70381C
70381C
70381C
70381C
70381C
7FFFFC
7FFFFC
7FFFFC
70001C
70001C
70001C
70001C
70001C
70001C
70001C
7001FC
7001FC
7000F8
ENDCHAR

STARTCHAR jisx0208_3160
ENCODING 12640
SWIDTH 960 0
DWIDTH 22 0
BBX 22 22 0 -2
BITMAP
7FFFFC
7FFFFC
70001C
73FF9C
73FF9C
7C385C
6FFFDC
70001C
73FF9C
73839C
73FF9C
73FFDC
7078DC
73FFDC
7FBF9C
6FBBDC
7638DC
70381C
7FC7FC
7FFFFC
7FFFFC
70001C
ENDCHAR

STARTCHAR jisx0208_3161
ENCODING 12641
SWIDTH 960 0
DWIDTH 22 0
BBX 22 22 0 -2
BITMAP
39FFFC
39FFFC
39C000
39DFFC
39DFFC
FDDC1C
FDDFFC
FDDC1C
39DFFC
39C380
39FF7C
39BFFC
39C770
3DDEF0
3DDFE8
FDE3FC
F9BFBC
E1DE18
01E1E4
01FFFC
01FFFC
01C000
ENDCHAR

STARTCHAR jisx0208_3162
ENCODING 12642
SWIDTH 960 0
DWIDTH 22 0
BBX 22 22 0 -2
BITMAP
003800
007800
FFF7FC
FFFFFC
FFFFFC
01C700
07BBC0
0F39E0
3EFEF8
FFFFFC
FFFFFC
6E38DC
0FFFE0
0FFFE0
0E38E0
0FFFE0
0FFFEC
0FFFEC
0E380C
003FFC
003FFC
001FFC
ENDCHAR

STARTCHAR jisx0208_3163
ENCODING 12643
SWIDTH 960 0
DWIDTH 22 0
BBX 22 22 0 -2
BITMAP
003800
FFFFFC
FFFFFC
FFFFFC
E0000C
E7FFCC
E7FFCC
0701C0
07FFC0
0701C0
07FFC0
07FFC0
007000
FFEFFC
FFFFFC
0381C0
0F7780
0FFF40
061FF0
39FDFC
3FF07C
1F0018
ENDCHAR

STARTCHAR jisx0208_3164
ENCODING 12644
SWIDTH 960 0
DWIDTH 22 0
BBX 22 22 0 -2
BITMAP
FE03FC
FEFFFC
FFFFE0
077B80
0E0380
1E3B80
3C3B80
7B3BFC
FFBBFC
FFBBFC
63BB80
17BB80
773B80
F73B80
F7FFFC
BEFFFC
BEFFFC
1D0000
7FE000
F7FFFC
F1FFFC
603FFC
ENDCHAR

STARTCHAR jisx0208_3165
ENCODING 12645
SWIDTH 960 0
DWIDTH 22 0
BBX 22 22 0 -2
BITMAP
070000
0FEFF8
0FFFF8
1FFFF8
3C6E38
7EEE38
FFEEF8
F7EEF8
63CE74
0F8E0C
3F0FFC
FE0FFC
F837FC
637800
13FC30
3BBE78
3B9FFC
3B8DBC
7B81DC
F3FFCC
F3FFCC
61FF80
ENDCHAR

STARTCHAR jisx0208_3166
ENCODING 12646
SWIDTH 960 0
DWIDTH 22 0
BBX 22 22 0 -2
BITMAP
1C0700
1C0F00
1CFEFC
FEFFFC
FFFFFC
FF1CE0
1C7BF0
1CF778
1DFFFC
1FFFFC
3EFFFC
FF776C
FC7FF0
DC7FF0
1C7770
1C7FF0
1C7FF0
1C7FFC
1C770C
FC07FC
FC07FC
7803FC
ENDCHAR

STARTCHAR jisx0208_3167
ENCODING 12647
SWIDTH 960 0
DWIDTH 22 0
BBX 22 22 0 -2
BITMAP
1DFFFC
1DFFFC
1CFF98
FE663C
FFFF38
FF7778
1C66F0
1C99EC
1CFFFC
1F0E00
3FFFFC
FEFFFC
FC1C00
DC3FF8
1C3FFC
1C7E3C
1CEEF8
1DF7F0
1FEBE0
FBDFFC
FD7E7C
78381C
ENDCHAR

STARTCHAR jisx0208_3168
ENCODING 12648
SWIDTH 960 0
DWIDTH 22 0
BBX 22 22 0 -2
BITMAP
7C1FE0
7E1FE0
1E7FE0
0C60E0
0070E0
60F0F0
F8F070
FDE078
3FE03C
1BC03C
07BFDC
1AFFFC
1CFFF8
1CE038
3CE038
38E038
38E038
78E038
70FFF8
F0FFF8
F0FFF8
60E038
ENDCHAR

STARTCHAR jisx0208_3169
ENCODING 12649
SWIDTH 960 0
DWIDTH 22 0
BBX 22 22 0 -2
BITMAP
7C0700
7DFFFC
1DFFFC
0DFFFC
01C01C
61FFDC
F9BFDC
FC0700
3CFFF8
18FFF8
00FFF8
18E738
1CFFF8
1CFFF8
3CE738
38FFF8
38FFF8
78FFF8
7018E0
F3FDFC
F3F03C
61C00C
ENDCHAR

STARTCHAR jisx0208_316A
ENCODING 12650
SWIDTH 960 0
DWIDTH 22 0
BBX 22 22 0 -2
BITMAP
063830
0F3878
0F38F8
1E79F0
3E7FE0
3CFEC0
19EF80
07E3F0
1FD9F8
FF387C
FC383C
7738D8
0F39F0
1E7BE0
3E7FC0
3CFD80
19EE00
03EFC0
0FC7F0
FF83FC
FE00FC
78003C
ENDCHAR

STARTCHAR jisx0208_316B
ENCODING 12651
SWIDTH 960 0
DWIDTH 22 0
BBX 22 22 0 -2
BITMAP
1C0700
1C0F00
1D8EF8
1DDFFC
DFFFFC
DBBC38
DF78F0
DAF1F0
DC61E0
DC16DC
DC77FC
DC77FC
1C771C
1E771C
3E77FC
3F77FC
37771C
77771C
7377FC
F077FC
E077FC
60771C
ENDCHAR

STARTCHAR jisx0208_316C
ENCODING 12652
SWIDTH 960 0
DWIDTH 22 0
BBX 22 22 0 -2
BITMAP
1CFFFC
1CFFFC
1CFFFC
1F06C0
DB7FFC
DB7FFC
DF7FFC
DF76DC
DB76DC
DC76DC
DC7FFC
DC7FFC
1C7FFC
1E0380
3E7FFC
3F7FFC
37FFFC
778380
730380
F0FFFC
E1FFFC
61FFFC
ENDCHAR

STARTCHAR jisx0208_316D
ENCODING 12653
SWIDTH 960 0
DWIDTH 22 0
BBX 22 22 0 -2
BITMAP
01C700
7FFFFC
7FFFFC
7FFFFC
01C700
0DFFE0
0FFEEC
FE00FC
FEFEDC
FEFEFC
0EEEF0
1EEEEC
FEEEEC
FEFEFC
6EFEFC
0E007C
30C300
39C73C
79E7BC
F9E79C
F0E38C
60C30C
ENDCHAR

STARTCHAR jisx0208_316E
ENCODING 12654
SWIDTH 960 0
DWIDTH 22 0
BBX 22 22 0 -2
BITMAP
670380
EF7FFC
FE7FFC
7E7FFC
3C8380
7CFFFC
FEFFFC
EE0000
6E3FF8
1F3FF8
1F3838
3F3FF8
773FF8
F73FF8
F70DC4
673DDC
07FCFC
0EFFFC
1E5B78
FEBFBC
FCFE1C
78700C
ENDCHAR

STARTCHAR jisx0208_316F
ENCODING 12655
SWIDTH 960 0
DWIDTH 22 0
BBX 22 22 0 -2
BITMAP
0E3FF0
1E3FF0
5D0070
FBBFF0
FFBFF0
770070
3E7FFC
1FFFFC
3D8380
FBFF18
FFFE3C
FDB77C
0F8FF8
6E7DF0
6DFFE0
6FB3F8
6DCFBC
EDFDFC
EF7DDC
EE33CC
6E0FC0
0E0780
ENDCHAR

STARTCHAR jisx0208_3170
ENCODING 12656
SWIDTH 960 0
DWIDTH 22 0
BBX 22 22 0 -2
BITMAP
0D81C0
7FF3F8
7FF7FC
6DBFFC
7FEF3C
7FFEF8
6DADF4
7FF7FC
7FF7FC
80076C
FFF76C
00076C
7FF7FC
7077FC
7FF7FC
7FF700
18C70C
3DE70C
1DD70C
FBF7FC
FFF7FC
7F03FC
ENDCHAR

STARTCHAR jisx0208_3171
ENCODING 12657
SWIDTH 960 0
DWIDTH 22 0
BBX 22 22 0 -2
BITMAP
038380
FFFFFC
FFFFFC
FFFFFC
038380
0F8380
0E0000
1FEFFC
1FEFFC
3FEFFC
3CEE1C
78EE1C
FDEE1C
FDCEFC
5FCEFC
0F8E78
078E04
1F0E0C
7E0E0C
FC0FFC
F80FFC
6007FC
ENDCHAR

STARTCHAR jisx0208_3172
ENCODING 12658
SWIDTH 960 0
DWIDTH 22 0
BBX 22 22 0 -2
BITMAP
FFFFFC
FFFFFC
FFFFFC
038380
7C7C7C
7FFFFC
70381C
73FF9C
74385C
77FFDC
70001C
73FF9C
73839C
73FFDC
7079DC
77FF9C
77BBDC
73399C
70381C
7FC7FC
7FFFFC
70001C
ENDCHAR

STARTCHAR jisx0208_3173
ENCODING 12659
SWIDTH 960 0
DWIDTH 22 0
BBX 22 22 0 -2
BITMAP
780700
7CFFF8
3EFFF8
1E0700
0DFFFC
03FFFC
000000
00FFF8
00FFF8
FCE038
FCFFF8
FCFFFC
1C0F8C
1C3FFC
1CFEF8
1FF774
1BE73C
3D8718
7E0700
FFF8FC
F7FFFC
61FFFC
ENDCHAR

STARTCHAR jisx0208_3174
ENCODING 12660
SWIDTH 960 0
DWIDTH 22 0
BBX 22 22 0 -2
BITMAP
1F83F0
1FC3F0
3BEFF0
79EC70
F8EE70
F7DE78
7F9C38
3FBC3C
0E781C
FFF81C
FFB7EC
FFDFFC
0E1FFC
EEDC1C
EFDC1C
6DDC1C
6EDC1C
6F1C1C
0DDFFC
FFDFFC
FF1FFC
781C1C
ENDCHAR

STARTCHAR jisx0208_3175
ENCODING 12661
SWIDTH 960 0
DWIDTH 22 0
BBX 22 22 0 -2
BITMAP
0E0FF0
1FEFF0
3FEE70
F8EEFC
FDEEEC
5FCF1C
0F7FFC
17F7FC
FEE800
FFFFE0
6E00E0
0FFFE0
0E00E0
0FFFE0
0E001C
0FFFFC
2E0000
3FFFFC
7B199C
F7BFFC
F39DF8
631970
ENDCHAR

STARTCHAR jisx0208_3176
ENCODING 12662
SWIDTH 960 0
DWIDTH 22 0
BBX 22 22 0 -2
BITMAP
1C1C00
1C3C00
1C3BFC
1C7FFC
1CFFFC
FFF000
FF6FF8
FF3FF8
1C3838
1C3FF8
1C3FF8
1C3FF8
1C0000
1F7FFC
1B7FFC
3F7FFC
FE76DC
F876DC
E076DC
03FFFC
03FFFC
03FFFC
ENDCHAR

STARTCHAR jisx0208_3177
ENCODING 12663
SWIDTH 960 0
DWIDTH 22 0
BBX 22 22 0 -2
BITMAP
0E03C0
0E03E0
0E07E0
FFE6F0
FFEF70
FFEE78
1C1E3C
1C3C3C
1FFC1C
1FFB1C
1FB7CC
1DC7E0
1DC3F0
1DC0F0
3DC060
39C600
39CF80
79CFE0
73C7F0
FF81F8
EF8078
670030
ENDCHAR

STARTCHAR jisx0208_3178
ENCODING 12664
SWIDTH 960 0
DWIDTH 22 0
BBX 22 22 0 -2
BITMAP
7CFFFC
7EFFFC
1EFFFC
0C0E00
001E00
61FDFC
F9FFFC
FDFFFC
3C1C00
183C00
063BFC
077FFC
0F7FFC
0E701C
1E701C
1C001C
3C003C
380038
780078
F00FF8
F00FF0
6007E0
ENDCHAR

STARTCHAR jisx0208_3179
ENCODING 12665
SWIDTH 960 0
DWIDTH 22 0
BBX 22 22 0 -2
BITMAP
0E3FFC
6E3FFC
6E3FFC
6E39CC
7FBFFC
7FBFFC
FFB9CC
EE3FFC
EE3FFC
0E3FFC
7F8380
7FFFFC
7F7FFC
0E7FFC
0E038C
0F878C
1F870C
FF8F0C
FE3E1C
F1FCFC
01F8FC
00E078
ENDCHAR

STARTCHAR jisx0208_317A
ENCODING 12666
SWIDTH 960 0
DWIDTH 22 0
BBX 22 22 0 -2
BITMAP
000000
7FC7FC
7FC7FC
7FC7FC
71C71C
71C71C
71C71C
71C71C
71C71C
71FF1C
71FF1C
71FF1C
71C71C
71C71C
70001C
70001C
70001C
7FFFFC
7FFFFC
7FFFFC
70001C
70001C
ENDCHAR

STARTCHAR jisx0208_317B
ENCODING 12667
SWIDTH 960 0
DWIDTH 22 0
BBX 22 22 0 -2
BITMAP
003800
003800
1FFFF0
1FFFF0
1FFFF0
1C3870
1C3870
1C3870
1C3870
FFFFFC
FFFFFC
FFFFFC
007C00
00FE00
00EF00
01EF80
03E7C0
07C3E0
1F81F8
FF00FC
FC007C
70001C
ENDCHAR

STARTCHAR jisx0208_317C
ENCODING 12668
SWIDTH 960 0
DWIDTH 22 0
BBX 22 22 0 -2
BITMAP
007800
3FF7F8
3FFFF8
380038
3BBBB8
3BBFB8
39B738
3FFBB8
37FFB8
387C38
3FFFB8
37BBB8
3B39B8
380038
C7FFC4
FFFFFC
007C00
03EF80
1FE7F0
FF83FC
FE00FC
70001C
ENDCHAR

STARTCHAR jisx0208_317D
ENCODING 12669
SWIDTH 960 0
DWIDTH 22 0
BBX 22 22 0 -2
BITMAP
1E1F80
3E1FC0
7C07C0
F8F9BC
F0FFFC
66FFFC
0F0380
1F0380
3E0380
7C0380
FC7FFC
FC7FFC
5C7FFC
1C0380
1C0380
1C0380
1C0380
1C0380
1DFFFC
1DFFFC
1DFFFC
1C0000
ENDCHAR

STARTCHAR jisx0208_317E
ENCODING 12670
SWIDTH 960 0
DWIDTH 22 0
BBX 22 22 0 -2
BITMAP
003800
003800
3FFFFC
3FFFFC
3FFFFC
380000
381E00
381F00
382F80
3837B0
3B3B78
3BB878
3BB83C
3BB81C
3FB81C
77380C
77386C
7F387C
EE3870
F63FF0
E03FF0
601FE0
ENDCHAR

STARTCHAR jisx0208_3221
ENCODING 12833
SWIDTH 960 0
DWIDTH 22 0
BBX 22 22 0 -2
BITMAP
1C3FFC
1C3FFC
1C3FFC
1C39CC
FFB9CC
FFBFFC
FFBFFC
1C3FFC
1C39CC
1FB9CC
1BB9CC
3FBFFC
FE3FFC
FC3FFC
DC39CC
1C39CC
1C01C0
1C01C0
1C01C0
FC01C0
FC01C0
7801C0
ENDCHAR

STARTCHAR jisx0208_3222
ENCODING 12834
SWIDTH 960 0
DWIDTH 22 0
BBX 22 22 0 -2
BITMAP
FEFFFC
FEFFFC
FFFFFC
E70380
E70380
E70380
E70380
FF0380
FF0380
FF7FFC
E77FFC
E77FFC
E70380
E70380
E70380
FF0380
FF0380
FF0380
E00380
E1FFFC
01FFFC
01FFFC
ENDCHAR

STARTCHAR jisx0208_3223
ENCODING 12835
SWIDTH 960 0
DWIDTH 22 0
BBX 22 22 0 -2
BITMAP
1C1C70
1C7FFC
1C7FFC
FFFFFC
FF9C70
FFFFFC
1CFFFC
3EFFFC
3F0380
3F7FFC
7F7FFC
7B739C
FC7FFC
DC7FFC
5C739C
1C7FFC
1C7FFC
1C1860
1CFCFC
1DF87C
1DF03C
1CC00C
ENDCHAR

STARTCHAR jisx0208_3224
ENCODING 12836
SWIDTH 960 0
DWIDTH 22 0
BBX 22 22 0 -2
BITMAP
FFF700
FFF700
FFF700
E00FFC
E0EFFC
ECFFFC
FDDDDC
DDFDFC
EFBDB8
E7D9D8
E381C0
E7C1E0
E7E3E0
EEF3E0
FEF370
DE6770
EC0778
F3EF38
FFFE3C
FFDE1C
E03C1C
E0180C
ENDCHAR

STARTCHAR jisx0208_3225
ENCODING 12837
SWIDTH 960 0
DWIDTH 22 0
BBX 22 22 0 -2
BITMAP
FFEFF0
FFEFF0
FFEFF0
E00E70
ECEE7C
FDEE6C
DDDE7C
EFFC7C
E7BC3C
E7DBC0
E3DFFC
E7DFFC
EEE73C
FEE738
DEE778
FCC370
D803F0
E7E1E0
FFEFF8
FFFF7C
E03E3C
E0180C
ENDCHAR

STARTCHAR jisx0208_3226
ENCODING 12838
SWIDTH 960 0
DWIDTH 22 0
BBX 22 22 0 -2
BITMAP
7FFFFC
7FFFFC
7FFFFC
003800
003800
003800
003800
003800
003800
3FFFF8
3FFFF8
3FFFF8
003800
003800
003800
003800
003800
003800
FFFFFC
FFFFFC
FFFFFC
000000
ENDCHAR

ENDFONT
